<mxfile host="app.diagrams.net" modified="2024-01-07T14:46:58.108Z" agent="Mozilla/5.0 (Windows NT 10.0; Win64; x64) AppleWebKit/537.36 (KHTML, like Gecko) Chrome/121.0.0.0 Safari/537.36 Edg/121.0.0.0" etag="BLBzB9I0MaC_MTaoah8K" version="22.1.17" type="device">
  <diagram name="Page-1" id="BcsH2wcAWD2Zhj5n1Uf1">
    <mxGraphModel dx="1263" dy="960" grid="1" gridSize="10" guides="1" tooltips="1" connect="1" arrows="1" fold="1" page="1" pageScale="1" pageWidth="1600" pageHeight="900" math="0" shadow="0">
      <root>
        <mxCell id="0" />
        <mxCell id="1" parent="0" />
        <mxCell id="Hi3oB4pyn632pyHiELuE-11" value="Cart" style="rounded=1;whiteSpace=wrap;html=1;fillColor=#dae8fc;strokeColor=#6c8ebf;strokeWidth=4;fontSize=20;fontStyle=1" parent="1" vertex="1">
          <mxGeometry x="865.95" y="480" width="230" height="60" as="geometry" />
        </mxCell>
        <mxCell id="Hi3oB4pyn632pyHiELuE-10" value="Order" style="rounded=1;whiteSpace=wrap;html=1;fillColor=#dae8fc;strokeColor=#6c8ebf;strokeWidth=4;fontSize=20;fontStyle=1" parent="1" vertex="1">
          <mxGeometry x="865.95" y="390" width="230" height="60" as="geometry" />
        </mxCell>
        <mxCell id="Hi3oB4pyn632pyHiELuE-9" value="Product" style="rounded=1;whiteSpace=wrap;html=1;fillColor=#dae8fc;strokeColor=#6c8ebf;strokeWidth=4;fontSize=20;fontStyle=1" parent="1" vertex="1">
          <mxGeometry x="865.95" y="230" width="230" height="60" as="geometry" />
        </mxCell>
        <mxCell id="Hi3oB4pyn632pyHiELuE-8" value="Identity" style="rounded=1;whiteSpace=wrap;html=1;fillColor=#dae8fc;strokeColor=#6c8ebf;strokeWidth=4;fontSize=20;fontStyle=1" parent="1" vertex="1">
          <mxGeometry x="865.95" y="140" width="230" height="60" as="geometry" />
        </mxCell>
        <mxCell id="28YDYIqc8vvuPCRXRERG-3" value="\" style="rounded=0;whiteSpace=wrap;html=1;labelBackgroundColor=none;fillColor=none;strokeColor=#6c8ebf;strokeWidth=4;dashed=1;" parent="1" vertex="1">
          <mxGeometry x="520" y="40" width="980" height="830" as="geometry" />
        </mxCell>
        <mxCell id="a8Lo-MuXTKm9hJjzGvLO-51" value="" style="rounded=1;whiteSpace=wrap;html=1;fontSize=20;fillColor=none;strokeWidth=4;dashed=1;" parent="1" vertex="1">
          <mxGeometry x="590" y="680" width="810" height="170" as="geometry" />
        </mxCell>
        <mxCell id="a8Lo-MuXTKm9hJjzGvLO-38" style="rounded=0;orthogonalLoop=1;jettySize=auto;html=1;exitX=-0.029;exitY=0.386;exitDx=0;exitDy=0;exitPerimeter=0;entryX=0.75;entryY=1;entryDx=0;entryDy=0;strokeWidth=4;elbow=vertical;edgeStyle=orthogonalEdgeStyle;" parent="1" source="28YDYIqc8vvuPCRXRERG-1" target="a8Lo-MuXTKm9hJjzGvLO-7" edge="1">
          <mxGeometry relative="1" as="geometry" />
        </mxCell>
        <mxCell id="28YDYIqc8vvuPCRXRERG-1" value="&lt;font style=&quot;font-size: 20px;&quot;&gt;Event Bus&lt;/font&gt;" style="shape=cylinder3;whiteSpace=wrap;html=1;boundedLbl=1;backgroundOutline=1;size=15;fillColor=#f8cecc;strokeColor=#b85450;strokeWidth=4;horizontal=0;fontColor=#000000;fontSize=20;fontStyle=1" parent="1" vertex="1">
          <mxGeometry x="1275.95" y="150" width="80" height="490" as="geometry" />
        </mxCell>
        <mxCell id="a8Lo-MuXTKm9hJjzGvLO-1" value="" style="shape=image;verticalLabelPosition=bottom;labelBackgroundColor=default;verticalAlign=top;aspect=fixed;imageAspect=0;image=data:image/png,iVBORw0KGgoAAAANSUhEUgAAAGQAAABkCAYAAABw4pVUAAAAAXNSR0IArs4c6QAAD/lJREFUeAHtHQeUXUV1/rylhCooIEURETgoINIEAbH3hp7Yu8dwFCOs2T/zdgOerxAVKUGUIhZAVGTtRiKbf2e+hhjxCFJEUOlokCo9hLDseu68/96feXVe+SXJ33P2vJn3Zm6deu+d+YQM/4YSGEpgKIGhBIYSGEpgKIGhBIYSMCXA5F6Ui6/WOPy2xsUvKJOfJ+4V25iFhrnuS4A396Vu8weUi2nKxazxz+Ax6sI3yMTyHbtPyIaOwW2+jHIxSTnMGEoIK8XLr6EMvk1Ya5cNXWzV88+bR9RcscRCCWZvQcUw8RT2JlJftkf1hG1oEFERdRCFFBHuNUw8g72LsObeG5oYS/I7W3O4eLvDxZ8rUUSMYrC3EdY6qCSh63n1RoOiIigXV3dFEWHFcDFb47JJWOvQ9VyyOdmbd9VGDpcfpRz+0StFhPE4TKzAxpCT8vWseGNyY6UI1rw5LKB+5TuKma2tZ9JOYWdsanPK4TjKxX/6JfhMvAyuxcZCGg2awsk6/ok3t6ZMLKQc7s8USMx4n1iHwdOOK35POdyQWCYPPLPs9Q6H969filnQeg7l4iTKxcOVC4zB06QOR3pNdbZGmfha5ThQQUz803HFx8m8qzZad7vFxPIdKROnUTRlmK0uunkr+B33KIaAsBcWhGVVj8HtlIvPkPlLNzHwDnRmgdiV1uW3KIMnrZgsI0Am/mrIYuHU87qO06N3FXXlKBmb2tzAP1CZsand0KhHuVjTI6HMok2LLBQ7+3KgrpzXO9xo1IT7qSsa5PjWs3wa+v8chz0pFz+KtbyWaf2WdR0OH/aF4BkeQ9ZfSzjlFAkPURe+TNiKLX1a+vJ0GHysJ0NTqlDlIp95ysTfygm2tDLv7J+tjLUOpZ7BrrJJuqAwzw8UwuG/BWFUyIO8rS9zS401L+s/89ii5XcDhTBx32DQBMf6NPXm2Wht2tvJO20ogWN8pgelkdQ4XO7T1JvnuDx8IFoia95MGq2RgOl6a39Lb2KFQ1RsY3m4p7t76sp63xWC+xwmFgbKaCfQQDgIcxvhzX3DtHUtX+Pil1YKwVUPE8d7phN41KpO0orKhTuoK77pcPleskDsSkiKRRZ30ly+FHfVlItLy1sLYKbGBdQ4/IxyWG3HR2co7ZoifMCUi3sziWLiPtJYupVfZ8SFNxUYTtZQDheVdiKNrpzjuPA+h8srMumObxDzfT6ICwdTBk9nwnHlhUGdribc1osyiUFvHLpJQ3+Uy/Ns6lIOaykT5+q78BCo4tlxebjD4A92dKBXESdoszdaKvZfxYnMUdPz7sVOZOGJchVptLYwQI+unFOry1aaMNCXTsZgP6NeXCbJV5H0PgTD4fKDNGuZ7MIdhC3byag6d9KhnpExzG8oDzNkbGp7o243MvatXMyicEcYvN5oYWzFltjqokqBGerCV4xVU5gBJg7BMjUuJMUVVtxfXRxAuVhV4+Ln1IUFqXFZE7CDghU/TN1JxmFPA8U4PJvy5vejtMc3UIfLdxr1u5GhXFxvS1BQri5ucph8R0BPozVCObB2iM8jaH5xXPme4LuemL90E8/DaDqgHA5/0YsF6bGp7QO8nqCna1wsdbh8a1BGT2CL5+IsrQ6WX2YMl2jB5uKC/GYieYqOqvq05/XD+KZQ97TOXxIxwKEJO3aImq05rvhA0vBQc5u/jmdQOaqeiqNR+U9icRFCuZg/4sLrSKO1qQ63vVJ7PA5e1juca3RYladHuHxjFhFZ31XLznLw8ObWKng6XfHnJDFIcYmcXHfa27+YE3UcLMrFOSlwshslgydJY3LjONiVvKNcfqkUgW0hqb1EEkUqLKh5ZSaemE2hD9Lh8Mes+qqHNZZs5teJPOtwZBYMm++ll+wRwrQXGFhmQ0RmGfT0ja6co4E2k54f/pI0OA4TnzArdXLZfhG4XwUvdKpEUt4m0HooTukt8IUI8EpeqMmv5G47GEbglvBYHUej44qjaYJJfcQVb4irg+8oF2cmKRNXX2QCdkiqq96z1i5VOdxQsam4Cn9UhrsqWoyYderwNms6Ri/fltbFxWEBp9mKqCt4uDxl4gFcJNjipVycH4ERNKgccmBwty3OXOUok5+tgsBaXfwmijh7gvXifjsOqLRNFw5nOq21OvyK1FvPjeJNeeMtnysJXSJjU7ulYCr2ibryhzqTRdOk3tpfpwCHHjQaGptHvYCeHl++XduwOU3mTjr6Jz3tcPFmjz541HHlJ/VvSekRJl9LRi/fVv9OmTyxKJ96PYfBh3S4laQpl7fpSIqkHd680iCm0aCUwbVtWGdaKYUQkrpKQwSNJZuppW1d7G7gS8rU5VGUiSfwvKJRhC3bycqQmDWUuXC2Abd0BoPespBafFfRfxoxaIENwV2sfe5NEp1tfjAfE0+EJ3xcHodoTFlRJc0tcE2lzKBZowKiVoeXumiiiMKVp1dKfBqwcflyysUjJg3mMhXtUeb3JKGnvp+OWCjS6Mr6Rrk8vSxRaOU18CwUO6csLc8wynYj460aH4zh62oDXWPpVil0WvcWZZYxAJfIOBz+FEO4NTHtuifpJFAOx6TDxJ6SvfrSYVqnvdO8ccpQPHkeyQ406orr0mlN7R2enJg8sQOxTKqiCBO0g+lkKOtp1ryDx5qz/BtoDMTLAvA/bffvI8dhisH/0gQcXjSgsyytvM23GpO/80ko9+TNI2wQZpUhbusFOiG0Lm7KquN9h+P0enpauYWNoG5YGxamXp5w8UrKLawNTJym10NLsB2taT0FHspsXDrSpHRVESbhSa29zEwe9ph4Qm3oJlr7xNKmYorhoYig0MIad8K2sWQzhGfj01DmFQ2pcgNk9WaL7ySJFw1XZlIxYYEsIhizzhoDkTcMRpWBQ4krL1TOrLThx3MqJTvKGNyeeIZjdOUc9GJSBl9POnWFXkSdXrV5NfmJ0m7z3ZXzdLiF0lYRJlnEhO05uOHy63jj+QXOuHyLte+g0doiK4Il1XWrSwKPUTDxuRpvTnWiMUP7BlceGNDr013kWToSxTLCJJNYDAnS/zw7UT4l6PXRops2BzFxT6i4XbbR2sJh8t1oMjEqePuVYr3CVFy5SBTcWWcK20SYQDSsNhisIINB1km0heeAsujQzpWEK+/7sCUgF215IkwSCcPLX5gcz4XYpvA4HBbdZeMqB1an+UpsQEfKzJ10VM+p4ARxqUiUQhEmRo+BWyrdoYYl5V6xjbLIYnyVmovkojSzfLh67nxd7I6RlHgqt2N0xKA+eRdlcHdiozRkUjQSxTLCBGOv0LOHgsc9AAagKVO2dvYvN+N5K6ApXo+Cz1u/aHnclGob17AfJk5BhSNRrCJMGDxW6YFHjNBAZ04djkQfAuUwQZn4jtqPqADrgpLDwAkGn3KY+MiIK16jjp2NL9+uG6YZyuGaOEV03sFq69Wkzi6eLu0ASdiBuuI6vU6QbrQ2xb2E8m2z5o/RbkVceWDwvZ2gHL6I5m0MDUrynfs0kHE4LFzfOu9FwsctODAk6B7cj7RDXC+NBOyNTW2PAREqmE6t7OAavKlOzQWhGC6kx8buRZg4xJp2v2CcH9sXjvacJuPwYr8OetwoF2dQHrOD5mIWjwgEZZF4W48cbvTKGBrREcbFnRrdccpR78IeTWw0ifWUMsV8ZUPzcFiZWLIiXnQZBWlrJ7+aUNWVFouzjHaUN08NEGACw308T12igJQwXHGyUa9ABr2BiYJtT7p4BsQEPVuzuzYK7WP2d7gYYbUmwuScN4YnDFXGqiFHGSYeCJ9QVddvZMDLOmo8wuDV+J/MDSEYpZKuEJghdXmUDsM705KDvww+PPywFhuijscu3ZjcmHJxYzoTBYhl4niDAO+6pluS8YTMGEZlQvA6WGXBxQVGRmRJKj9o6g/9pUTGp/fodMWcFUKTIzsG+1EuCgUaJwtY3BtZmXHxiuRzgcDSKA4dDwjOrMfVSVmorArThNHyKTwUUwgugsrej6IOtqRrvAhxZ4YFhscTogKAmbAfxaiHRj/z8oLptAA6XIBEcGDPcuFgAy5ao3HzVy3fDxIXXmjgKZqhXCyulDgmnlH7gRBBOOnreDBoOlSkk1WXZkZdy97GK9n1a16/AWtxnugA9VLd4BdjxcJ4iucbrZGso2i6IK3STN5F1OZMJwtXNVpcLt7lnvCHG70kPBhelFCNBMtYBo/F2ZVUkJ3Z64qMAKE6MJFET/H3aDJHm02F3Vj1gJjNFe6oMVYq8f52ZcNKuUYDlZ00VrPm3pSJW2OHtonWPvEGywKLl7ac8JxLqT1Uqsa8I8GVXkymzmnEHeDhzecn0UJdODu7YXRuCYrA4c2tI+/qy/agHP6dDTeXcm4Mu64jeMu+SBsqijKDZwAx/NOKNi+EJ/qrCNGeu4bYhpJy+RI8KFqU/oR6jxAm97LiqWyhKsJiIkzgIR4LA2K+vUHnpqAknttR9eVumYg0BpiJm5+SaCj/Hi9BZmJlRKgRwnJ1b7z984FMOw/eDIrHo/HKDrxSsC4uxh7mxeDC9yiXp6g7d7OOAIyunOMZP9Ul/aFJOCfdYb7xdrme/6lAhc55jSqV43Dx6W7z074fslpF4A0WrHmZ7iPpNh8mfBVEB2urVAbCUi3cxFR5jnJxQtV0q8sM+v2TS5TDsdUzZu4/2s6y+TZzjKE59Oax1kGUy0WkLg7Qv3lugpJDkzlUPR67lNaR9iqNwW1VKkXfPXsXbarDNP7wgn6NS/GINkbFOAzehe5j5UJ2xVzvoH/zVIylNfwyTNynxxdXEx7qKxRm0jajvdJDBw/afupwVTVKgRv8MdjGR50Pp2Zi944ZJEbA54Mb8vN0JNPHlLoPxN5Jk8RwYPNRx93ErUnlir7HCEVfSu1fafB7XqGncmqlnHf0cfXliQbDTniM353zPOV5PuE4BBUVeno97TZsjLcqfqnZLF7hUczZ5HPZgydeiZQukHgFqfMT2q8PdGtZqmjTg57xyqVCpnZYHV4o9EC8RVDgbTzyJ7mUonwS5i90er8JEq+8XLDNlZA3LIVPxaKNLq5cyrteLM2LSD++jnLL5rhXKyacqAu2pWCOUD8GplPuHc/OvkfRV5A6V68DWBfSGHaZcXQsaJVMPGUY4tzmq4JvvhAqfcKj+gVlnYsGsnukcoBpQ+u6oIqAxnzOHlyhyVPac0fVfvygdwSK9u7UOqHtpbTFtyorkCJgflATXTFRVNpbsnuFp0RYS3jziEGVcw66Zms1Ln4atMy+CNNW6Cnl9JVZDu4HsyhbsSXl4u/rrlLgosEUbBmqvB+jr+S6o54qNuv2uzIy6Xdd9KJlHdbsqbCzh897rQ+P9lu4RfFTV5w8YEKPrsCUomBtONa3KM8DXk/FXi0e7J6CF5+JowdckBWTh4c2mThXmUjQdD8A/+ibRz/Lej9MVazKIbihBIYSGEpgKIGhBIYSGEpgKIGhBIYSWLcl8H8mfPpoeJKtQwAAAABJRU5ErkJggg==;" parent="1" vertex="1">
          <mxGeometry x="1410" y="50" width="75" height="75" as="geometry" />
        </mxCell>
        <mxCell id="a8Lo-MuXTKm9hJjzGvLO-2" value="" style="shape=image;verticalLabelPosition=bottom;labelBackgroundColor=default;verticalAlign=top;aspect=fixed;imageAspect=0;image=data:image/png,iVBORw0KGgoAAAANSUhEUgAAAloAAAJyCAYAAAAcpG6xAAAAAXNSR0IArs4c6QAAAARnQU1BAACxjwv8YQUAAAAJcEhZcwAAFiUAABYlAUlSJPAAACWPSURBVHhe7d0J1OdXXd/xyxahKKiAgIhrt8OpdKOCbQUBi8cKbZVOaVmakpl5niQQJLbqqRUiioCiqEWkBdQKsqhFlKUIWpdaF3ApO8WwL+lREBENSEJ+/37/k0sIwy8wSeYm9/f9vt7nvM4EGKM+9z73+WQyPGmnu9257TOXg3bv8O3hueEVy/H27nBxuGx30Hasi4/VR8NfhHeG3w4/Fb5td9i+Ov7zv9I/xNLVbtfaDeJz83bxOXj/uFOPC78Qf/ya8EfhL+NfLyffRz4uPkaXhj+Lj9Nb48dfD08PD9+d0/7+7oJ24/5hlqQxxUN0y3h0joWXhotPfqS49vYf1/7xPXM5r92if+ilq2w/rpZj7UvizvynGAivjB/9hc4A8XF9X3hWfKzvuzvSzugffkm69sXD8tfjgfnReMQ/uPYAMUZ8vP80PDk+9l/Wj0K6ot0F7YbxuXmvuB8vjnvy0bU7xBjxMX9HfMy/fXlIu1U/Dkm6+sUj/gXxoDwjfGTtseG6EQ/6h+MMfnT/t4T60ah4y2H7irgTv7p2X7juxBm8Lz4/vy3+2N/yl3Tq7e7RbhyPx8PCn578sHD9iUf9vfEF9ujuSLtRPyoVa3dm++z96I7PTb+CNZE4kzcuZ7d79WOSpKuu/0bal649JswhzucFy0PbbfqRqUjxhfxucfYXrt0Jrn9xNpfujrcnLOe1z+hHJkmfWPxV8l3isXjH2iPCXOKsLoyz+vJ+dEpc/83uR+PMP7R2F5hLfF7+sr8QkvRJxeNwn3jI/2zt4WBOcV5/Eu7ej1AJ2+1iZJ3dHhWfn/6bhBsSn5evix+/sB+jpOrFQ/618ZD7dg0bFA/6B+Ps7tGPUok68StZx9t3xRn73lcbFOf2h8s57Y79OCVVLR7yu+6/WK89FGxDnOH740G/cz9SJSk+Lx9pZG1bfG6+ZjnaPrcfqaRqLYftDvGQv2ftgWBb4hzf6veF5Cm+QH9duHTtrNmWOMeX+q7yUsH2n/jxCPzayY8C2xUP+ov338SyH7E22vLv2h3jLN+7dsZsU5zno/vxSqrSctC+Ze1BYNviQT/sR6wN1n9f1svWzpbtijO9JN7cu/RjlpS95fJ/Lprf/J7TB3wH+e22HLYHrZwpCcSb+/u+2bBUpPgrq59eewjIIR70p/ej1oZazm83i7N799qZksP+n+zQj1tS1nbH2t+Jx9x/kymxON9Ll3PbX+1Hro0UfwH0zWvnSR7xufmO3QXtjH7kkjIWn+jPXnsAyCX+yvmp/ci1gXZH2hl+NauGOOcz+7FLytZydvu8+Kvmj6x98pNLPOZ/vpzXbtGPXpMXZ3bk5DMkp3iDX9mPXVK24hP8kWuf+OQU5/3QfvSavBjGL147Q3JaDtud+tFLylQ85r+x9klPTvsv3v3oNXFxVrf0K821xOfmo/rxS8rS7pz2OfGY+07ThcRjfvHuzHbTfgU0acth+4a18yOv+Nz8rX78krIUn9hfv/YJT3r/uF8BTVp8bv7gyrmR2P5XMJcHt5v3KyApQ/GJfcHaJzy5xRfxb+pXQJMWZ+Rv6RcUb/JX9isgKUPxSe2blBYU5/60fgU0aTG03r92duTmm5dKyYovuK9c+2Qnt/gi/vJ+BTRhcUa3PPnMqCHe5Mf2ayApQ/FJ/fa1T3Zyi6H1qn4FNGHLYftra+dGfn61WUpWfFL/ydonO7nFub+lXwFNWAzhv7d2buQXZ/+8fg0kZSi+4H5w7ZOd3OLc39WvgCZsObvdbe3cyG85bM/v10BShuKvnv587ZOd3AytuTO06orPzZ/r10BShgytmgytuTO06jK0pGQZWjXFY/7OfgU0YYZWXYaWlCxDq6Y493f0K6AJM7TqMrSkZBlaNRlac2do1WVoSckytGqKx/zt/QpowgytugwtKVmGVk2G1twZWnUZWlKyDK2a4tzf1q+AJszQqsvQkpJlaNVkaM2doVWXoSUly9CqydCaO0OrLkNLSpahVVM85m/tV0ATZmjVZWhJyTK0ajK05s7QqsvQkpJlaNUUj/lb+hXQhBladRlaUrIMrZri3A2tiTO06jK0pGQZWjXFub+5XwFNmKFVl6ElJcvQqsnQmjtDqy5DS0qWoVVTPOYX9iugCTO06jK0pGQZWjUZWnNnaNVlaEnJMrRqinP/w34FNGGGVl2GlpQsQ6umeMzf1K+AJszQqsvQkpJlaNVkaM2doVWXoSUly9CqKR7z/9uvgCbM0KrL0JKSZWjVFOduaE2coVWXoSUly9CqKc79jf0KaMIMrboMLSlZhlZNhtbcGVp1GVpSsgytmuIxf0O/ApowQ6suQ0tKlqFVk6E1d4ZWXYaWlCxDq6Y499f3K6AJM7TqMrSkZBlaNRlac2do1WVoSckytGqKx/x1/QpowgytugwtKVmGVk2G1twZWnUZWlKyDK2a4jF/bb8CmjBDqy5DS0qWoVVTnLuhNXGGVl2GlpQsQ6umOPfX9CugCTO06jK0pGQZWjUZWnNnaNVlaEnJMrRqisf81f0KaMIMrboMLSlZhlZNhtbcGVp1GVpSsgytmuLcX9WvgCbM0KrL0JKSZWjVZGjNnaFVl6ElJcvQqike8//Tr4AmzNCqy9CSkmVo1WRozZ2hVZehJSXL0KopHvM/6FdAE2Zo1WVoSckytGqKcze0Js7QqsvQkpJlaNUU5/77/QpowgytugwtKVmGVk2G1twZWnUZWlKyDK2yfq9fAU2YoVWXoSUly9Aqy9CaOEOrLkNLSpahVVOc++/2K6AJM7TqMrSkZBlaNRlac2do1WVoSckytGqKx/yV/QpowgytugwtKVmGVk2G1twZWnUZWlKyDK2a4jF/Rb8CmjBDqy5DS0qWoVVTnLuhNXGGVl2GlpQsQ6umOPff6VdAE2Zo1WVoSckytGoytObO0KrL0JKSZWjVFI/5b/croAkztOoytKRkGVo1GVpzZ2jVZWhJyTK0aopz/61+BTRhhlZdhpaULEOrJkNr7gytugwtKVmGVk3xmP9mvwKaMEOrLkNLSpahVZOhNXeGVl2GlpQsQ6umeMz/d78CmjBDqy5DS0qWoVVTnLuhNXGGVl2GlpQsQ6umOPff6FdAE2Zo1WVoSckytGoytObO0KrL0JKSZWjVFI/5/+pXQBNmaNVlaEnJMrRqinP/9X4FNGGGVl2GlpQsQ6smQ2vuDK26DC0pWYZWWb/Wr4AmzNCqy9CSkmVolWVoTZyhVZehJSXL0KopHvNf7VdAE2Zo1WVoSckytGoytObO0KrL0JKSZWjVFOduaE2coVWXoSUly9CqKc79V/oV0IQZWnUZWlKyDK2aDK25M7TqMrSkZBlaNcVj/j/7FdCEGVp1GVpSsgytmgytuTO06jK0pGQZWjXFuf9yvwKaMEOrLkNLSpahVZOhNXeGVl2GlpQsQ6umeMx/qV8BTZihVZehJSXL0KrJ0Jo7Q6suQ0tKlqFVU5z7y/sV0IQZWnUZWlKyDK2a4txf1q+AJszQqsvQkpJlaNVkaM2doVWXoSUly9CqKR7zX+xXQBNmaNVlaEnJMrRqMrTmztCqy9CSkmVo1RTn/tJ+BTRhhlZdhpaULEOrJkNr7gytugwtKVmGVk3xmP+PfgU0YYZWXYaWlCxDqyZDa+4MrboMLSlZhlZN8Zi/pF8BTZihVZehJSXL0Kopzt3QmjhDqy5DS0qWoVVTnPuL+xXQhBladRlaUrIMrZoMrbkztOoytKRkGVo1xWP+on4FNGGGVl2GlpQsQ6smQ2vuDK26DC0pWYZWTXHuL+xXQBNmaNVlaEnJMrRqMrTmztCqy9CSkmVo1RSP+S/0K6AJM7TqMrSkZBlaNRlac2do1WVoSckytGqKx/zn+xXQhBladRlaUrIMrZri3A2tiTO06jK0pGQZWjXFub+gXwFNmKFVl6ElJcvQqsnQmjtDqy5DS0qWoVWTx3zuDK26fG5KyTK0avKYz52hVZfPTSlZhlZNce7P71dAE2Zo1WVoSckytGoytObO0KrL0JKSZWjVFI/5f+9XQBNmaNVlaEnJMrRqMrTmztCqy9CSkmVo1RSP+c/2K6AJM7TqMrSkZBlaNcW5G1oTZ2jVZWhJyTK0yvqZfgU0YYZWXYaWlCxDqyxDa+IMrboMLSlZhlZN8Zj/dL8CmjBDqy5DS0qWoVWToTV3hlZdhpaULEOrpjj35/UroAkztOoytKRkGVo1GVpzZ2jVZWhJyTK0aorH/Ln9CmjCDK26DC0pWYZWTYbW3BladRlaUrIMrZriMX9OvwKaMEOrLkNLSpahVVOcu6E1cYZWXYaWlCxDq6Y492f3K6AJM7TqMrSkZBlaNRlac2do1WVoSckytGqKx/yn+hXQhBladRlaUrIMrZoMrbkztOoytKRkGVo1xbk/q18BTZihVZehJSXL0KrJ0Jo7Q6suQ0tKlqFVUzzmz+xXQBNmaNVlaEnJMrRqisf8J/sV0IQZWnUZWlKyDK2a4twNrYkztOoytKRkGVpl/bd+BTRhhlZdhpaULEOrLENr4gytugwtKVmGVlmG1sQZWnUZWlKyDK2a4jH/iX4FNGGGVl2GlpQsQ6smQ2vuDK26DC0pWYZWTXHuP96vgCbM0KrL0JKSZWjVZGjNnaFVl6ElJcvQqike8x/rV0ATZmjVZWhJyTK0ajK05s7QqsvQkpJlaNUUj/kz+hXQhBladRlaUrIMrZri3A2tiTO06jK0pGQZWjXFuT+9XwFNmKFVl6ElJcvQqike86f1K6AJM7TqMrSkZBlaNRlac2do1WVoSckytGqKc/+v/QpowgytugwtKVmGVk2G1twZWnUZWlKyDK2a4jH/L/0KaMIMrboMLSlZhlZNhtbcGVp1GVpSsgytmpbD9tR+BTRhhlZdhpaULEOrpjh3Q2viDK26DC0pWYZWTXHuP9qvgCbM0KrL0JKSZWjVZGjNnaFVl6ElJcvQqike86f0K6AJM7TqMrSkZBlaNRlac2do1WVoSckytGqKc/+RfgU0YYZWXYaWlCxDqyZDa+4MrboMLSlZhlZN8Zg/uV8BTZihVZehJSXL0KrJ0Jo7Q6suQ0tKlqFV03LY/nO/ApowQ6suQ0tKlqFVU5y7oTVxhlZdhpaULEOrpjj3H+5XQBNmaNVlaEnJMrRqMrTmztCqy9CSkmVo1RSP+Q/1K6AJM7TqMrSkZBlaNRlac2do1WVoSckytGqKc//BfgU0YYZWXYaWlCxDqyZDa+4MrboMLSlZhlZN8Zg/qV8BTZihVZehJSXL0KrJ0Jo7Q6suQ0tKlqFV03LYfqBfAU2YoVWXoSUly9CqKc7d0Jo4Q6suQ0tKlqFVU5z79/croAkztOoytKRkGVo1GVpzZ2jVZWhJyTK0aorH/In9CmjCDK26DC0pWYZWTYbW3BladRlaUrIMrZri3L+vXwFNmKFVl6ElJcvQqsnQmjtDqy5DS0qWoVVTPObf26+AJszQqsvQkpJlaNVkaM2doVWXoSUly9Aq6rA9oV8BTZihVZehJSXL0CrquKE1c4ZWXYaWlCxDq6Y498f3K6AJM7TqMrSkZBlaNRlac2do1WVoSckytGqKx/xx/QpowgytugwtKVmGVk2G1twZWnUZWlKyDK2a4ty/p18BTZihVZehJSXL0KrJ0Jo7Q6suQ0tKlqFVUzzmj+1XQBNmaNVlaEnJMrRqMrTmztCqy9CSkmVo1bQctu/uV0ATZmjVZWhJyTK0aopz/65+BTRhhlZdhpaULEOrJkNr7gytugwtKVmGVk3xmD+mXwFNmKFVl6ElJcvQqsnQmjtDqy5DS0qWoVXU8fad/QpowgytugwtKVmGVlGG1tQZWnUZWlKyDK2iDK2pM7TqMrSkZBlaNcVjfkG/ApowQ6suQ0tKlqFVk6E1d4ZWXYaWlCxDq6blsD26XwFNmKFVl6ElJcvQqinO3dCaOEOrLkNLSpahVVOc+6P6FdCEGVp1GVpSsgytmgytuYsvtl+5dm7kZ2hJyTK0aorH3G+Gn7g4n7uvnRv5GVpSsgytmuLcv79fAU1YnNG/OPnMqCE+N1/Yr4GkDBlaNcVfNT+nXwFNWHxeftPauVHCr/VrIClDhlZNce6v6ldAExbn84y1cyO/OPu39WsgKUOGVk1x7pcs/77dvF8DTVaczxvXzo384uwvW85rt7j8JkjafIZWXctBu1+/Bpqo3TntS9fOizriXf66fh0kbT1Dq64YWs/s10ATFefyHWvnRR1xB57Sr4OkrWdo1RVnf/HysHarfhU0Qbsj7Yw4l3esnRd1xB147+7MdtN+LSRtOUOrtvgrZ99Pa6KWY+342jlRT7zNx/q1kLTlDK3yPhB34Pb9Ouh6bHdm++wYvu9ZOSMKirvw1uX8drN+PSRtNUOLuAPP27V2g34ldD0V5/D0tfOhrrgT39Wvh6StZmgRf+W8hIf2K6HroeVYe1B8Li5r50Nd8Xn5kbgX/7BfE0lbzNBiL+7Bxcth+0f9Wug6LL6Y3n3/8V87F4j78a7lrPZF/bpI2lqGFh8TD/r74j78g341dB10YmQdtD9dOw/4mLgjr4+/ELpDvzaStpShxZXFfXj/cnb72n49NLD4WD8k+JUsTknclTeHL+/XR9JWik9cQ4tPEHfikvCo+OOb9Gui09junPY5y0F7RnyMLzv5Yw+fStybP4t7c2x3Qbthv06SZs/Q4qrE3fjd5Vj7qn5VdC1bzmufER/Xg/hi6Vs4cI3F/Vnic/NXlsP2Ff1qSZo5Q4tPJe7HZfGw/+L+byfujrQb9Wujq1GM1S+Jj+G3h7evfYzhmjjxuXm8/XL88ZHlwf4B8dK0GVqcqhgK7wpPiTtz/+Xc9kVb+95bu3u0G+8u6I60M/b/iJMrnNs+czmrfdYJ57Vb7P/23hUO2q2Xh7bbnHC03Tb+/7/9Fc5pd/yY3WH74uWw3Sl+/OoYV0fjY/Xk8Or4ef4WIUPFPfuL8PLw2LhvD9kdb18Td/Bu+1/1AlYctLssZ7e/tTysff7wX0SIT0pDi2skLuqH4/68Lbw2/vjVJxxvrwmvv8JBe9MVjrcL48e3XOF4e0d45wn7EXe8XXQlfxT/3h+fcLy9N7z/Cgftg1ey/wLz4Stc/vvLLj3hoH107f9uAPiYE183Dtob4sdnh3PiL7C/9LT+QkL8SQ0tAIAuttEfhEcsR9vn9rl0zTO0AABWfWA5aN+7PKzdqs+mq5+hBQBw1WIr7X8Ly+H+9/r2+XTqGVoAAJ9ebKaXLVf3n9JgaAEAnJrYTe8Jp/4Peze0AABO3XL5f+P9fn1KfeoMLQCAqyeG1oeXY+2+fU5ddYYWAMDVt99Q4a59Uq1naAEAXDOxo965/6eG9Fn1yRlaAADXXGypF17ld5M3tAAArp3YUw/s0+oTM7QAAK6d2FPvXh7cbt7n1ccztAAArr3YVN/a59XHM7QAAK692FQXLee1z+gT6/IMLQCA02M5aA/oE+vyDC0AgNMjhtaL+sS6PEMLAOD0OPEd46/8m+INLQCA02c51r62zyxDCwDgdFoO26P7zDK0AABOp9hWP9tnlqEFAHCa/V6fWYYWAMDptBy0d/aZZWgBAJxOsa3e32eWoQUAcDrtt1WfWYYWAMDpZGgBAAxiaAEADGJoAQAMYmgBAAxiaAEADGJoAQAMYmgBAAxiaAEADGJoAQAMYmgBAAxiaAEADGJoAQAMYmgBAAxiaAEADGJoAQAMYmgBAAxiaAEADGJoAQAMYmgBAAxiaAEADGJoAQAMYmgBAAxiaAEADGJoAQAMYmgBAAxiaAEADGJoAQAMYmgBAAxiaAEADGJoAQAMYmgBAAxiaAEADGJoAQAMYmgBAAxiaAEADGJoAQAMYmgBAAxiaAEADGJoAQAMYmgBAAxiaAEADGJoAQAMYmgBAAxiaAEADGJoAQAMYmgBAAxiaAEADGJoAQAMYmgBAAxiaAEADGJoAQAMYmgBAAxiaAEADGJoAQAMYmgBAAxiaAEADGJoAQAMYmgBAAxiaAEADGJoAQAMYmgBAAxiaAEADGJoAQAMYmgBAAxiaAEADGJoAQAMYmgBAAxiaAEADGJoAQAMYmgBAAxiaAEADGJoAQAMYmgBAAxiaAEADGJoAQAMYmgBAAxiaAEADGJoAQAMYmgBAAxiaAEADGJoAQAMYmgBAAxiaAEADGJoAQAMYmgBAAxiaAEADGJoAQAMYmgBAAxiaAEADGJoAQAMYmgBAAxiaAEADGJoAQAMYmgBAAxiaAEADGJoAQAMYmgBAAxiaAEADGJoAQAMYmgBAAxiaAEADGJoAXCF+Dpw2f5rwXLQXhc/viR+/InwpN3x9oT48XGpHW+PD98ff/y0+PHnwu/GH78vfrx07WMFpyLuj6EFUFW8+0u4KAbFM+PHY8vRdufdme2m/ctC+XZH2o2Wh7cvWQ7bNyzH2g/Fx+m18XEyvDhl+23Vr5OhBVDFiV+pOWxPjXf/HvGvb9K/DOjTtGvtBvFxu1N83B4d/jA+jsvJH1u4MkMLoJAYBhfGW//w+ONb9qdf17D4GN5kOdbuGx/PXwmXXfnjDB9jaAEUEAPrPfHGHy7nt5v1J1+nqd0F7Ya74+1r4uP7irWPPbUZWgCJxbt+SYysJy9H2+f2p16Dio/3TcLB/m/LXvkMqM3QAkgqvuC/Jd71e/YnXtdR8bH/wvjY/+LJ50FNhhZAQvGevzB+vHV/3nUdt7ug3Xh3vH1nDK6Pnnw21GJoASQSX9iX8KT4Y/9NwglajrV/FV9bLz75nKjD0AJIIt7w/cj6tt2u3aA/65qgOJd7xvl84OTzogZDCyCJGFnfsv8+T/1J10QtZ7ev8jW2JkMLIIPD9gQja+6Ww/ZP4+vsJavnR1qGFsDGxdv9/P33cupPuSZuOWgPWztD8jK0ADYsvnC/aTmrfVZ/xrWB4syeuXaW5GRoAWxUvNmXxMi6S3/CtZH2wzjO7s1rZ0o+hhbARi0H7bH9+dbGWo61e8XXXP98xAIMLYANipH1Vv/cwm0XX3OftXa25GJoAWxQDK0H9KdbG2051r4gvu5+aO18ycPQAtiYeKtf5b9lmKMYzPvv4r96zuRgaAFsTLzVD+zPtjbeck67Y4ytj6ydMzkYWgAbEu/0Rbsj7Yz+bCtBcabPWztrcjC0ADYk3unH9ydbSVoO2r3XzpocDC2ADVmOtjv3J1tJ2h1pN4qvvxetnTfbZ2gBbES80W/uz7WSFWf7tLUzZ/sMLYCNWA7aU/pzrWTF2X7j2pmzfYYWwEbEG/2v+3OtZC3ntdvE2FrWzp1tM7QANiLe6C/rz7USFkPrrWvnzrYZWgAbcOJ99k1KUxdD6xfWzp5tM7QANiC+CL+6P9VKWpyx7xKfkKEFsAHxPr+kP9VKWpzx+Wtnz7YZWgAbsBy0n+xPtZK2nN0esnb2bJuhBbAB8T4/tT/VSlqc8f3Xzp5tM7QANiDe5x/uT7WSthy0+62dPdtmaAFsgKGVv+Xsdt+1s2fbDC2ADTC08mdo5WRoAWyAoZU/QysnQwtgAwyt/BlaORlaABtgaOXP0MrJ0ALYAEMrf4ZWToYWwAYYWvkztHIytAA2wNDKn6GVk6EFsAGGVv4MrZwMLYANMLTyZ2jlZGgBbIChlT9DKydDC2ADDK38GVo5GVoAG2Bo5c/QysnQAtgAQyt/hlZOhhbABhha+TO0cjK0ADbA0MqfoZWToQWwAYZW/gytnAwtgA0wtPJnaOVkaAFsgKGVP0MrJ0MLYAMMrfwZWjkZWgAbYGjlz9DKydAC2ABDK3+GVk6GFsAGGFr5M7RyMrQANsDQyp+hlZOhBbABhlb+DK2cDC2ADTC08mdo5WRoAWyAoZU/QysnQwtgAwyt/BlaORlaABtgaOXP0MrJ0ALYAEMrf4ZWToYWwAYYWvkztHIytAA2wNDKn6GVk6EFsAGGVv4MrZwMLYANMLTyZ2jlZGgBbIChlT9DKydDC2ADDK38GVo5GVoAG2Bo5c/QysnQAtgAQyt/hlZOhhbABhha+TO0cjK0ADbA0MqfoZWToQWwAYZW/gytnAwtgA0wtPJnaOVkaAFsgKGVP0MrJ0MLYAMMrfwZWjkZWgAbYGjlz9DKydAC2ABDK3+GVk6GFsAGGFr5M7RyMrQANsDQyp+hlZOhBbABhlb+DK2cDC2ADTC08mdo5WRoAWyAoZU/QysnQwtgAwyt/BlaORlaABtgaOXP0MrJ0ALYAEMrf4ZWToYWwAYYWvkztHIytAA2YDloT+lPtZK2HLZvWDt7ts3QAtiAGFo/1p9qJS2+Bj9w7ezZNkMLYANiaP18f6qVtOWwPXzt7Nk2QwtgA2JovaI/1UpanPHj1s6ebTO0ADYg3uf39qdaSYuh9dy1s2fbDC2AjVge0W7bn2slLIbWa9fOnW0ztAA2It7or+vPtZK1PLjdPM73krVzZ9sMLYCNWA7b9/TnWslazm73Wjtzts/QAtiI5aC9sj/XSlZ8/X382pmzfYYWwEbEG33Zctju0J9sJSpG9OvWzpztM7QANiS+ID+yP9lKUnzt/fK1syYHQwtgQ2JovXrX2g36s60ExZk+ae2sycHQAtiY+MJ89/5sa+MtZ7XPiq+971s7Z3IwtAA2JobWi/qzrY23HLZvWjtj8jC0ADYm3urLwl37062N1r931kVrZ0wehhbABsV7/eu7nd+rteWWw/botbMlF0MLYKPiC/WD+vOtjbU7p33pctD+Yu1cycXQAtio+EL9x8tR//zDrbW7oN0wzu6X1s6UfAwtgA2Ld/slvt3DtoqR9c1rZ0lOhhbAxsUX7u/oz7gmbznWvirO6yNr50hOhhbAxsXbvf9vId6/P+WatDijLwt/tHaG5LXfVv0KGFoAWxXv98Xhnv0512TF2dx+OWhvWjs7cjO0AJKIL+QfNLbmazmrfX6cjX9odFGGFkAi8Y5fHF/Uv7E/67qeW85ufyPO5MK1s6IGQwsgmXjLL10O27fujrQb9edd10NxDvcJ7107I+owtACSWg7az/k+W9d9uwvaGfH19FHhkrVzoRZDCyCxGFvvWg7bv9x/k8z+1Gtg8bH+28ux9ptrZ0FNhhZAcvG2L+HFyzntzv2512lueWi7TYysH4hh++G1M6AuQwugiHjj/zI8azmr/d3+7Otatju33S7G1WPi4+r3YrHK0AIoJt76S2Mc/FJ4QPzrW/YvATrF4mN2k/jY3T0+jj8eP37wyh9bOJmhBVBYvPvvjx9/Jn48K378m/6biuud+JWrw/bP4+P0I+Ft4bIrfxzhqsRdMbQAiC8IB+2j8XXgov6rXU+OP/4Py7H2b+PHfxbuE//evVM7bP8k/v/8+vj/+d/Evz4vPDH+9QvixwuD33vFNRJ3yNACABjB0AIAGMTQAgAYxNACABjE0AIAGMTQAgAYxNACABjE0AIAGMTQAgAYxNACABjE0AIAGMTQAgAYxNACABjE0AIAGMTQAgAYxNACABjE0AIAGMTQAgAYxNACABjE0AIAGMTQAgAYxNACABjE0AIAGMTQAgAYxNACABjE0AIAGMTQAgAYxNACABjE0AIAGMTQAgAYxNACABjE0AIAGMTQAgAYxNACABjE0AIAGMTQAgAYxNACABjE0AIAGMTQAgAYxNACABjE0AIAGMTQAgAYxNACABjE0AIAGMTQAgAYxNACABjE0AIAGMTQAgAYxNACABjE0AIAGMTQAgAYxNACABjE0AIAGMTQAgAYxNACABjE0AIAGMTQAgAYxNACABjE0AIAGMTQAgAYxNACABjE0AIAGMTQAgAYxNACABjE0AIAGMTQAgAYxNACABjE0AIAGMTQAgAYxNACABjE0AIAGMTQAgAYxNACABjE0AIAGMTQAgAYxNACABjE0AIAGMTQAgAYxNACABjE0AIAGMTQAgAYxNACABjE0AIAGMTQAgAYxNACABjE0AIAGMTQAgAYxNACABjE0AIAGMTQAgAYxNACABjE0AIAGMTQAgAYxNACABjE0AIAGMTQAgAYxNACABjE0AIAGMTQAgAYxNACABjE0AIAGMTQAgAYxNACABjkE4ZW/BsfOPknAABwjX2gz6wTv6L1/1Z+AgAA18B+W/WZFUProL1u7ScBAHD1xdB6bZ9ZJ35F6yVrPwkAgKsvttWL+8w68StaT1z7SQAAXH0xtL6vz6wYWkfbA9Z+EgAA18iRPrNa253bbhfL67KVnwQAwNWw31TL0XbbPrMubzlor1z7yQAAnLoYWr/T59XHi3/z/LWfDADAqVsO2iP7vPp48R/cOv6DD538kwEAODXL8fah5WHtVn1efWLxHz517X8IAIBPbzloT+mz6pOLn/CF8RM+fPL/EAAAn9r+7wwu57Q79lm13nK8fffa/zAAAFcthtZj+py66pbz281ibL1x7U8AAMAni5H1hv2GunxNfZriJ9/F30IEAPj0Tvwtw9hOfUadWsthO7r4JqYAAFdpv5X2m6nPp6tXrLPHrP1JAQA4xd+XdVXtLmg3XI61x8WfZFn7kwMAVLTfRuFx+63UZ9M1a9faDZbj7fxwydr/IgCASvabKEbWI/cbqc+la1/8Se8Tf9L3rP0vBACoYL+F9puoz6PT2+7cdrv4kz87+FuJAEAZsX0uC8/Zndlu12fRmHa7E38r8Z6x6H5z7f8QAIBMYvP89nKs3eu0/q3CT9fuSLvR/n9pjK4XhI+s/R8GALBFsW3+8sTGOWj33m+ePn+un5aj7bb9+279bPD7uACAzYkN8+748WeWY7Fpzm6f12fOXJ34lhDH2+2Xc9o9YgU+OP74EeFbw38EAJjEfps8om+Ve+x/H/q1/lYNkiRJui5r7f8DhwOk07m9zVoAAAAASUVORK5CYII=;" parent="1" vertex="1">
          <mxGeometry x="1375.95" y="380" width="48.09" height="50" as="geometry" />
        </mxCell>
        <mxCell id="a8Lo-MuXTKm9hJjzGvLO-3" value="RabbitMQ" style="text;html=1;strokeColor=none;fillColor=none;align=center;verticalAlign=middle;whiteSpace=wrap;rounded=0;" parent="1" vertex="1">
          <mxGeometry x="1369.99" y="430" width="60" height="30" as="geometry" />
        </mxCell>
        <mxCell id="a8Lo-MuXTKm9hJjzGvLO-43" style="edgeStyle=orthogonalEdgeStyle;rounded=0;orthogonalLoop=1;jettySize=auto;html=1;exitX=1;exitY=0.5;exitDx=0;exitDy=0;entryX=0;entryY=0.5;entryDx=0;entryDy=0;strokeWidth=4;" parent="1" source="a8Lo-MuXTKm9hJjzGvLO-6" target="a8Lo-MuXTKm9hJjzGvLO-26" edge="1">
          <mxGeometry relative="1" as="geometry" />
        </mxCell>
        <mxCell id="a8Lo-MuXTKm9hJjzGvLO-6" value="Identity&amp;nbsp; &amp;nbsp; &amp;nbsp;&amp;nbsp;" style="rounded=1;whiteSpace=wrap;html=1;fillColor=#dae8fc;strokeColor=#6c8ebf;strokeWidth=4;fontSize=20;fontStyle=1" parent="1" vertex="1">
          <mxGeometry x="875.95" y="150" width="230" height="60" as="geometry" />
        </mxCell>
        <mxCell id="a8Lo-MuXTKm9hJjzGvLO-41" style="edgeStyle=orthogonalEdgeStyle;rounded=0;orthogonalLoop=1;jettySize=auto;html=1;exitX=1;exitY=0.5;exitDx=0;exitDy=0;entryX=0;entryY=0.5;entryDx=0;entryDy=0;strokeWidth=4;" parent="1" source="a8Lo-MuXTKm9hJjzGvLO-7" target="a8Lo-MuXTKm9hJjzGvLO-11" edge="1">
          <mxGeometry relative="1" as="geometry" />
        </mxCell>
        <mxCell id="a8Lo-MuXTKm9hJjzGvLO-7" value="Product&amp;nbsp; &amp;nbsp; &amp;nbsp;&amp;nbsp;" style="rounded=1;whiteSpace=wrap;html=1;fillColor=#dae8fc;strokeColor=#6c8ebf;strokeWidth=4;fontSize=20;fontStyle=1" parent="1" vertex="1">
          <mxGeometry x="875.95" y="240" width="230" height="60" as="geometry" />
        </mxCell>
        <mxCell id="a8Lo-MuXTKm9hJjzGvLO-32" value="" style="edgeStyle=orthogonalEdgeStyle;rounded=0;orthogonalLoop=1;jettySize=auto;html=1;strokeWidth=4;" parent="1" source="a8Lo-MuXTKm9hJjzGvLO-8" target="a8Lo-MuXTKm9hJjzGvLO-7" edge="1">
          <mxGeometry relative="1" as="geometry" />
        </mxCell>
        <mxCell id="a8Lo-MuXTKm9hJjzGvLO-42" style="edgeStyle=orthogonalEdgeStyle;rounded=0;orthogonalLoop=1;jettySize=auto;html=1;exitX=1;exitY=0.5;exitDx=0;exitDy=0;entryX=0;entryY=0.5;entryDx=0;entryDy=0;strokeWidth=4;" parent="1" source="a8Lo-MuXTKm9hJjzGvLO-8" target="a8Lo-MuXTKm9hJjzGvLO-15" edge="1">
          <mxGeometry relative="1" as="geometry" />
        </mxCell>
        <mxCell id="Hi3oB4pyn632pyHiELuE-20" style="edgeStyle=orthogonalEdgeStyle;rounded=0;orthogonalLoop=1;jettySize=auto;html=1;exitX=0.75;exitY=0;exitDx=0;exitDy=0;strokeWidth=4;startArrow=classic;startFill=1;" parent="1" source="a8Lo-MuXTKm9hJjzGvLO-8" target="28YDYIqc8vvuPCRXRERG-1" edge="1">
          <mxGeometry relative="1" as="geometry">
            <Array as="points">
              <mxPoint x="1049" y="370" />
            </Array>
          </mxGeometry>
        </mxCell>
        <mxCell id="a8Lo-MuXTKm9hJjzGvLO-8" value="Order&amp;nbsp; &amp;nbsp; &amp;nbsp;&amp;nbsp;" style="rounded=1;whiteSpace=wrap;html=1;fillColor=#dae8fc;strokeColor=#6c8ebf;strokeWidth=4;fontSize=20;fontStyle=1" parent="1" vertex="1">
          <mxGeometry x="875.95" y="400" width="230" height="60" as="geometry" />
        </mxCell>
        <mxCell id="a8Lo-MuXTKm9hJjzGvLO-44" style="edgeStyle=orthogonalEdgeStyle;rounded=0;orthogonalLoop=1;jettySize=auto;html=1;exitX=1;exitY=0.5;exitDx=0;exitDy=0;strokeWidth=4;" parent="1" source="a8Lo-MuXTKm9hJjzGvLO-9" target="a8Lo-MuXTKm9hJjzGvLO-24" edge="1">
          <mxGeometry relative="1" as="geometry" />
        </mxCell>
        <mxCell id="a8Lo-MuXTKm9hJjzGvLO-9" value="Cart&amp;nbsp; &amp;nbsp; &amp;nbsp;&amp;nbsp;" style="rounded=1;whiteSpace=wrap;html=1;fillColor=#dae8fc;strokeColor=#6c8ebf;strokeWidth=4;fontSize=20;fontStyle=1" parent="1" vertex="1">
          <mxGeometry x="875.95" y="490" width="230" height="60" as="geometry" />
        </mxCell>
        <mxCell id="a8Lo-MuXTKm9hJjzGvLO-24" value="" style="shape=image;verticalLabelPosition=bottom;labelBackgroundColor=default;verticalAlign=top;aspect=fixed;imageAspect=0;image=data:image/png,iVBORw0KGgoAAAANSUhEUgAAAGQAAABkCAYAAABw4pVUAAAAAXNSR0IArs4c6QAAEB5JREFUeAHtXAtw3MQZdmk7tAzTaWnD47S68/v9vDvdnexQwrtQ0sK0mcJQ0gmlwAyPpNDSB2UIjxamTFMehU46FAoU0qQdXsG6c+zESQhJICE88nBik9iJ786O45A4jp3Yse/v/LJ1yIqk25XkPOUZj6S9lXb3+3b3//9vV8rKcv9cBFwEXARcBFwEXARcBFwEXARcBFwEXARcBFwEXAQcQ6B92rSvJSLC9HitcG9SDM1LiMJDcTF4W2c4XOBYIe6DMiPQXRssT4RD/+wUg30JUQD9/+An8Ujo9mQgcFbmJ7o5LCGQDAemJiLC4rgopPRJOJqcpCjsT0SEp+LhMLFUqHvTRAQgK+sMnJYSYmgtLQkG+YbiYujlTjFQMbEE94oKgZ5ppWcnxeCtCTHQagCwwVR19CjR3h8XhVVIMmRlfYmqMqdzpu7a2nMTtaG5CTG4Vwuk89eB1qQozO4Uxa+fzpjrtr1T9OfjXJ8Qg4N6wO/+yY/g87kPQPKiOssjQ++5mBaPCLsTEeHxjgsDF+hW7nRKREOdFIVF8UhwxAgwOb0uDEd27IDRvj44uHAB7L7xel1iuq68FD5/8A8wuCQG3dOv1s1jWE5EOIx2pqtOKDudOMhKG+pwcLUhODruLI4Q9d/Qxk9h3x8fgZ6bboC+vz0NQx9tABgdlbMc/uB9NjJU5Y17cY2nvJ1puyr/zLgYmpkIC1tZiEjnxVGya5eaE8Pzvff9yjIh6fKQpEjgY3QuMAg9ZUaNylD3TmisqldmTK8LQ+8dt8PQpo2GJCg/jPT0QKIu7Awh6ToGu9DZiIdC3z5pidlVG8gzM9QZSRAF2H3DDDjw/D9gJBFX8KY6Dre0wL7H/+S4ExCPhPrjojA/KQaKTxpikuFwAI1jRkOd7n0TY4fkhaJsG4a3tlCBb5ZptLcXDrzwPLuBN6ib0oniojCKqkEiIlx2QhKTNtQR4T2l0naP6OJ2X3sN9MyaCXvvnQP7Hn0I+p59BvoXvAqDMQlSBw8acpEaHICRriQMb9kMh9eshoF33oY9t/7c4WlsrCPFReFDtI0wbdpXjjs5iqGOR4QWuwSw3r//r3+ZQMjQ5k3Q/YOrbU9Tu8IB2BkOMJOXFIUk2pmdU6d+65gT03VhzRTZyNUKe1iBdCx/XRiGW7elSdn38IPMIKrr8lmwGj4oLoQGLw//JgSiuTmw1V/F/Mx4JHgAbWeytsY36cTsnirkyuqpKAyoG6M977r8Yuidcxfsf3IeHFy0EAYWvwWDS5tg4M3Xof+lF2Hfow9Dz89+atsb2nPbLQCpFIz2H4DkxRcyg7crEoRPK8pgeW4ORJGE8f9/EQL4/xIh8D+fF9aWFEE8EmR6ftrOiEKt48QkRKE2IQZelwsxMHhdV10BfU8/CTh1KAFauvsanIz298NgYwPs/fU9lskZqH8H+l97lQks9WhQSFAfFULUx9d4HpoK8qE95GcqCztreyjw2XZ/9Y22iEFDnRRD1yUyGGrsmf2vvgKpQ4cMYKdLPtLRDr2/vJu5sV1XXwG7f3xdxvuMRoOaCOVcTYT2/GVC4M2cbNhYXZGxTO3M0VJVMd8SKcna4E000nfX5ZfAcFsrHeI0uVIpQGOtbYid60yjQSFBfdSSYHS9wOuFlcWF0EnpBLT6K3uZCemU1yEmxgZGgPQ98xQNzEx50GV1ItLGOX9dcRHEVLZBDbrZuREB2vSFPh+sKimGTkr78lFp6XZmQtoCVQkjArTpvbPvlI0qE+IZMtsRBrX1w+uOkB8+KiuBpmxf2mibkYG/aYFXX79CCNTn5UJLoJp6JLcLftmDixHSzEzI5soKakKwwfsemWsapGXAf8LPh5qXQdcVl1A3VI8Ao7S4KMC2mkpYXVgAMZ43JEcyIGShzwurGKYnrEebvwpWF+anR6lkhZCm7OzV24M1TKB0ff9KOPDiCzDSu2cCwDQXqeEhOLS8Gfbc/gumMo2Ap0nfGQrIo2apT3/UKCMiPRoY4hEkvqW6ElZqXGkceZYIwZtw3n2vIF9mmKaB6Tx1Ydhzyyzo+/uzcGjFcjjS3g6poaEveBkZgZE9PXD4w/VwcNF/YO/v7gOMWdL3G7jUk/W7etQo0xi2/b9eL6wpLaK2DVi/eESATZXl0JydbTb62KcsJESpHB6X5+TIBbEGRhNArA1B8tKLJg345Hfr5FXEz3//Wzgw/zlZ60LCJ9QhA9k4ahBQPLLchwb9k/JSaPR5DYlQ8LQ8QpQHqI/Lsn3yMKf1KFgaRZsX7UvPrJsAZZL+V16So39c2tUGohgT4To87XOt5MMAcV1JETSY2CM1fuPn9cxGXTtCtA9dwvNyRdB7sdIQmntwPbz37jvkmATlFvS8WOzT/nlPTFrdPgtUw9qiQlPHQItZ+prn32YmJErIsvQDMvjw6LG0Mbh/RmR0fe8y2aYc2bEdUsPDX9gcC2don5yIY7R1RQ8N7SotNnr5YoTMZiZEImSx3sPM0tCj2FJVzizATWh0XVjWtHA0WP1LDQ5SySgTyjWxLWj0MxlqM1xUv3XECLnF0ua8KCHPqx7E1COWZvtkA2fXzvTMvFFWhln1MVy2pQXbLB/qXmiomwzcYgZ8tsV4ftb6QOCrzCNDuWEJIQUSxyUZCj2KNPQ4PiwtlqNks4Zn+g21MtS2cPUv058c4deGbBGChhrrzWioj2r/Up93/7sFefcvysr6soKrrWOMkHMkjntY4ri9dohBnx4NIGugeRRR6ukslTqKG5Txu6+dbpkMW4ZaZWdX5OZAS01luh64jzguhmbAjBnOENM8ZcrZMY6bE+P5XjvE4L1oZ7ZakKy15Oy+fobsAKinM5RvtPlorlv9VbYNtdw21LZM2tYR8ve0h/1zLNkQZWjh5jB8IylRG9w2ZtzKYFmOcRRKS9iy7GxH7Ax6ZrjpYeCtN5jISBtqB9qyMi9X1sdoyMc8W6orFir4Uh+RRXxNTN6ErPFAsDHYE3Bo0hJglK/R54MNZSWWNhTQAqDO55Shxml4FcpKFtx9S+shO0PB+9QNMTpvDVTLFTMCnDY9xit2hl7ONqqTXjpK32iol3iNFV6auiIRGHdtF9iEV3Wd1pcUbaMeGUrG1pqqbvVDMp3jPIw9hqZRZnmwwe/m5zliZ7DO28cjarMyaX4bc0wKYIcNInA0vVeQZ03t3VRZGs9Egt7v6EmtLTJfa6ABAPPgLhAMyPTKyZTmlKFG1xe1KqsSkTK9o51R2m1JXGzk+VU4HWVquNHvFkW3dKWVyuMRA7OPy0sz2hnc3CZH1A4Y6iVer0wEq+qr4IEy/MZKfQfIEiGKuGhXDtkZ8sMGB+ZuJAZX+N7Ny5WdAAQe3Wc84tIsTgVmK4Bqgs3OG71eub5IrgIuy5HGabBFiFJ5u3KIUlGa9QKlzGN5lL290mLAerIQoORlie4dIUQBx64cgkMZdwmybDZQyp6Mo92OZiW6ryfkHcV5oj4qU5YRCGNehz05ZFNlmelSp1HZTqQjEdgxlB7OerQjw0sc9xY1EUrGKCFNtA23I4coXsgKlRdCW66VfM3yUnSZpSUCp6J7iedvVnCmPkYJqWdtsF05xKkgU6/e6ELjWg3rSMD8iv2zK8PXE/JxjOd/SE2COmOM457TaxhNml05ZGxediaWQf/fTPAzI8ip6D5KyJoGjrvGlqgocRyRCGmlIcAoj105BAHBoAyfY1SGUTpG+7hBzQxwo9+sGGq9eqzIzd2/rqTofltEqEfJYo/nLImQu6KEdOgVSJtmVw6RiSnOvLMDiVtTmC/LJUZgm6U7Fd3LoqOqM8QjgY34WrVjn+/ApccGnr+50UsStCQY5bMjh+CesC3VFfB+cZGsm6HajIHi+0UFsLGyHHaF2WMIpww1drpM6u/OcHCgI+B/wtZSbqconhOPhO5PiMEu7F2y7O6AR9SEEXFZCViNiM16Os1vWK4T6+VIhKz+Bullpq015TH1TER1jm+TJkThsbgoHNRroFMeEb7Lh+/07WDcR6xXJ5q0jnBA7ghOyPAoorZbUH/baiy8H7IzHHiMpoFOeUTY03C/E87jNOWy5nFKhrer/mK915UUbaEaFepMbYGqHpZG2/GItPbGkX3E46ucThlqRf3FEcaCizoviqHohlvSsj6tLN+lfhjtOVbYiS00SBK+JoBKrhVjjUGgI0vMNtXfMRl+4m54S4Q0eslK9GhoidDmw5fux2T3zLvBtSNEe43z/fqSItiewXDiIhKum9iNqLF8lOGxM1jd7IdOA96vp25bIkQRF+3KIZ1hx3b/ycEhvneBTgA2FtdC0FNCspzSwnBU4jOtvnZBI8PbIkTprXblkDF/X38FTSnjeB4V9dcqESzRvSOEKGDZlUPS6q4DW4iUOtk52lF/cZq25DRYeR1BmbKMGmtXDpEbE6iWd5gYlTGZ6XZERwei+zfVHi3VucRxS2gBsSOHKMQ4sYWIpr52iHAouh+NctwMKhLUmWKESDQNVOexK4c4uYVIXS881wp+Wq/Q7Bp3nqDMYze6x04ueTx1apypz6M8P0/bKNpru3KIU1uIFMEPP6thBrjRb05E9xIhKVyyjRESogZfL6N0/vlToh7POloS9PLZlUPsbCFCncmqPmbJUKteRxjHYiTKcQuihFTq4WspbW5W1hmSxzM9ynEf6AHOkmZHDlGCrEwBnyxvFBdBh2DtRVQnonuJ44ajhLzc4PFM7gcyo17vVCvvHWpJsyOH4NSCvRcVAHwBaFV+HqwtLJClGlwWQO/HaPoxSnfIUEOU44aQiBgh+ZZ6v9WbFGJwbtSCzXKdFuss9mYjgGnTv5Dh7Uk7EiH99YQ8tZgQziqmjtxXT0gF9giJkCMsRGjzKnbG6vo3LQFKPtTDUHpxYNtpX4yQx5s47sT6qHKDz5eDPSTKcYNasFmv7e4jVkDXOzpkqFFP64kSMveN7OxvOtKzJ+shDeeddy5WNMZx+1iJ0Oa3u71TIQRtCq5BYOCqLYP1WuK4bomQ3+DGj8nCcFKeK+XnfwO/VGD3lWoEzOrqXFphZvhYmRFB9YTswPY0Z2ef3B/il/Lzz5Q4bqbEcW1GjaVNlwXNwgLY5q8ylcUxkEMp3u775VgvyePZhPVvzso6/l+qdnLo4JYXbFiUkM20BJjlw4Uj3HuF31HENRFcncQgcKnJ96nMnqf9Dbd7Yn0de9nfSTCdfFY6yCRkjRaEE+Ka51dhEOzYLkMnwZvsZymxzIlExGS3+aR4fj3HVWMsEyVk5FiSIwt+hCyuJyR8UgB1rCsp8XzeeCxzeJKJGUX5J3bBBf5j3caTsrxGj8crE0PIgJPEKIJf1OMpOimBOd6VXuzxfAeDTLtfIYpyHI64+Q0eD3+823RKlC9/hYiQ2VGOi7OMGEXwW8LznlMCiBOtERhkRjnutighG8yIkaNqnn8Av/N1orXhlK1PPccVxgi5s56QP4+rzU9Gef4eieMip2UMccoy7TbMRcBFwEXARcBFwEXARcBFwEXAReBYIfB/+XuIrw8159MAAAAASUVORK5CYII=;" parent="1" vertex="1">
          <mxGeometry x="1143.45" y="485" width="70" height="70" as="geometry" />
        </mxCell>
        <mxCell id="a8Lo-MuXTKm9hJjzGvLO-15" value="" style="shape=image;verticalLabelPosition=bottom;labelBackgroundColor=default;verticalAlign=top;aspect=fixed;imageAspect=0;image=data:image/png,iVBORw0KGgoAAAANSUhEUgAAAGQAAABkCAYAAABw4pVUAAAAAXNSR0IArs4c6QAAEfhJREFUeAHtXQeUFtUVVmPv5Rh7iRo1x2jsJzFRY0+MsURTTDSmasQSW2ygIkVFRQURFZAWJIIoSlGQuiwsy9LLwsLCwrLs0paydNiFL+cbZn7e3P/NvHkzs0vxv+f8Z+afeeW+e+e9ee/e777Za68c5SSQk0BOAjkJ5CSQk0BOAjkJ7MISAHAWgHsAtALQA8AgAEMA9AfQDcDbABoDuAPA6TurKQAOAHARgD8BaAGgI4A+Lq/kd6DLP9vxEIArARyys/i1qhfAGQBaAiiDPa0EMBjAUwDOs6o4YmIAewM4B8C9ANoBGA9giz2rqAMwBUBzABdHrL7hkvEJB9AdcBiN0T5tlnK3F10S1hIARwC4FsDDAFoD6ACgt9sL33J7YTMAXwNYoa0p+cVSAI8AODSM1wa55wpiXfI2hZYwE8DTAI5jowAcBeBxAHkAakNzNuzNVW6vafghDcCBAHqGtXf5ui34qqQa749dhOe+nosHPpuFRn1L8NI3ZXivoALD565E9XqrEYOJhwNYH1av7b2t27ahtHoD+s5YhnfHVODlIWX4d7/ZeGpAKZ79ai7eyCtH76lLMWHRGmyp2xal+AUAbm2QHuE+oQe5430Wc2s21aHdmApc22ES9ntuOPZ5Zpjxd+oro3FH92n4oHAR5q/cmFVmfV/gg/NE/zk4qPEII6+HNBmBn38wEa8OX4CyFRtMrHFycFi9KsZ9MfaSnGzbBqcnHPvyKGOjTEo6r3Uhmg0tw9xqY4MdNtZtrsO4hTXoPnEx3hpVjlYjFzi/DuMq8fn0ZZi2eG2kJ5v1XddhUmT+v/PsMFzZfgK+LF4Otj+AZnMiUW9KAdBEVrx6Yy1u7jwlckNMCvHuH/liXqBSNtZuRcdxlbih42Qc+Lz5yT7g+eG44r3xznA0uXKtbELmPwX7dv5C7B+xd3u8XvjOOAyeHThnqAZwdepKAXC+nCau2lCLi9uMS10Zh70wEvnz+Y70U93Wbc775/jm+YnqvPzdInSdUIXarfpHe1jpSsTp7X/pPRMr9O9FdvdrU1OKO1SNVcXDxlzz4cREgvGeMPXIp5kvfEkLV2/ET9qNT7W+s18vQJ9pS2VVzv95Kzbg/LcKrevjOzGgF3I2enkqSgFwi+T6xW/mWTOrCj7onC9MSRMXrUHSXhFUH6/f1m0qlqzdLKvF0rWbce4bY63befgLI9F/5vKs8gBUATglsVIA5Kulz1m+PtLYHSYE3T2+VDkNVYlP2zFN86yFois/7NrJLUdj9ILVatXOOXvm914bY10/Z5mcSmtoaCKFADhXFnrvJ8XWDIYJg/cObTISFas3+ariU3v6q/bCMNUVdJ9TX90Qxgcwzjvl4MYjtO9CALfHVgqApqqUKms2geN8UKPiXn9h8Dy1Guf8zv9OS70eE398sj/VvFcGzFwOTnVN+eV99m7NmmVAEoVMUiXFaaGsNOn/E5rng4tKlQbOqk69nqh8cirNmZak/wwsjcXTHz6eIYuiycfe9gXgcGk0vPqD9GdWNE+oROVwthJVgPWRjk928VK/mY6mk0vbFlnzxaFLPnAArrLuJQBuUgW1qXZrJBODjYBojpA2rdajyq0bbVNn1LS0GnARqtL4ijXY91n7IXtUWda6qlEchTyhMjNmwerUBfWPPrPUKpzFWkO+yE3KoYFR0l97z7SWw0dFlbKYl+MohI6cDHUZX2XNiKnBcqr5yZQlqddh4iHsPl/yhQtrMjLgSdWazeAwFJZP3mOvF9QujkLowswQZ0KyoiT/T2qRn7XuqA+7WBIemZdGREkPfl5iJYsWw+bLImIppEAt5Z99ZlkxYRLEQ1+UqMWDtrEoxkJTufVxn9NelWgdjupiID+aHtI2Tg8pVpn4/cfTU1WIbGSPSYtTLT9NxdCOJun6jtHN9R8WLpLZW8RRiK+f/SpFMzsXWdIySmtpmkJMuyx6DVXqVFQZmd9+xf4eBuCxOArxTTF+3XVqZAZMwvhh60K1bc45ra/0RfDJe37QXHASwVVzz8lL0HZ0Bf7cqxgntkhmejfxJe//uN14x/XcvmBRln+Gph6ZPui/VCaAu+MoxDfI/6Z7eqYM2sNU2ly3Fd0mVGX1GjUNz7k4+9+UJTilZf0tHGmtJQ6gZJnZfX9cM7OXlOuWtZv9lggAl8VRyGRVIHxCg54A2+uaWYdalfGcEwD6t23rNaX/WfsJWUbOMGZo9jGV+YM3fa4kr7gj4yikn5ebRw4jpsqj3tdZVdW6opyv31KHC2I4kYJ4pFlowxb/ytzEx1EvmV0DGltWlbUymAFAG5UhQnqCGmN7vaA82/fg1UVvJK0CbUYvdIaOlsPmO2ACnbDoL4ljhZX8UrCLavzmf4+fWcvWOz58zdQ10gKRwAtB/eMqpJFaEHFWsiFx/89enj0+c27/r89LcMSLI7X1cHgYWpoNJri9W/LJBvFikujXv0wxJsqpL338Uexag2YT5+CjpnEVQphmhoibiqsAmY/mB5UI49EtCmmioL3rnfyFYE+hj0Tm7TU1ubmFTiiVlq3bguZD5zt4saZDyvD91wtwa9epahLQNyTbJf+zTRpL701xFXKiygG9q4TnyErj/Jc9JGgGRxOFiQh2i8ODl4cmHBNxzUREo0pFFTXGegkaFEQ04EGxFMJMAHyD/U/fm2Bkwmto2JGNUSnIgnrOG2NBs7+JKNSw+sLucWZlIuLP5MyQloawcnnv9ez3x6DYynAV4puz3f9ZOvYsCfXh0xfUuHs+KfahDwk8kMMAQXNB+U3XCa5QSeAsnDUEhytOMlSKslKfvsTv5ALwRFKFvK8ywRWzqYFR7ktERhODJZmAPI7pTw8sxdFN85xZmMrXY/3mxOaLU2eVOJtjryHUiaDr017ZDrSga0AlQpbC2kqvp4aSxb8AuF8tNC0nFVflKrFrhzVO3pP5ozytsgzvP921knQuZNmrH+8f/hBo3n+0MO6dtIdcqjJLl6ZuNuQ1LuqRIQkq0VYUNS/TNR7kR6kkBUVwVqXS3T1nZPHDh1ElkztCOt8AtE+kDPcdwjg8H7fExtoIT5eWClCJCtKlC7r2908Zx7OD2PigtFGuS+iPzhUgkShh7z0aSuW7CMAViRXiKoUxdRl65MvgF3CUxjON9A/whRk1L9P9tsf0DD88mbFknVV+WZccXhjmIBeoDD1QiesTWY73n+87QbyQbLjytAmgi1q47unxGIl6pGldpTfz7JAmv/jIZ/d0DIJR69alI5SUK2+V2AvVtIywUokIevW+d05Tjib4yB7U4ClAHt2Q4AwvXNV6lcc9Sm+hreGSvneVOBWOy4uX75s5frOMHAafHMD4zh00ct4qbZ3XfOifRrs5zpZyjf0fwAU72IAzNiZFo8uF4d/E0+gJKegoLahJhyzW88eeWQhDB+Dg8UAXtkqEiHr31CNHEEGFsYWvy+jGh/gGUDKvMmF7Xr7KH09oizbhAlUlWo9teZDpiVmWfKmzt6ven6hW6SxWpXGRaxZNcOgDOrkmugbgM5WbzgkxWhIRaDtzk+BsWlSlgOP858JTJc6UvCgxGhglSXwWsc+COA6mHyoN4FG1oiRjNuEzkuhVsxEg3bgq2U6bg+qi8ZTGSpU8t8N3m41SLzvnDL/zyqIFQZp0ADRL1BOCMsv3CLmxFaLHOI+yhzAoU71vOp9a5Q/etAWuhZUvX95sK1/Uuh7CuBavLPrhBdHjdXyQTBNd171HHv4i/nqEwfoqPWqxtiGwQEZacXz3BJP0yGFIBg8RTir9ITTJe3Ux2Ef6aQB8lEjopszyPcKFkseQ7VEaF7lbQtQyJGKFi7gogf9Ry2c6mkUkMeZdJdq2vDIb9dX6bX5kkmmi+3I9UrOpNpJP2WNaPUoYKYXKMVpNE3QuAyqTPBhBdRAfJp1oqjJ47lmouaLXBI0OTCTsKJkBnArAt5yN68+mNVWujLmDQ5CAvOscruS0sr4Qj78T5hlVIZx9ndmqwOH3leFZZhJ61C6KItPEaQD4bBZEFXrCsj1K2xCxVqaIV+5LopLO5mTLR1B6mkDysgNtnOo55DIf1x0aNEyPxIKOWoAMAiUij1FQQY0Ku05Eh7SIEtYTVp4MM0vDrhbGI4OH+KBIuqnTdg+lZlXOOfOZUeWZOB2ACyVzdyWIlpWOJpbNXqfbb0RnI+K1MIGmcY++EUnsOcT9ytkegHcTC9m2AAA+o47NDEkKiIspLjIlfV1SDYmbJdxHJQLY0gDJSZ50/wlTkrQyu+dwGnaC+7sGwIPKvpOdARDndpStvI3pATyjMsdxXF2x6hoUdo2RrRowsjNz4WyMQxjLl2M1F3Bh5aZ5jwDsIGSjIguObVmoauU+TxlvfYNRyDYJAJwMwIfNIZgtiQCIGtGYHZy2UFnSOswbaS4GTbxLl7EQsu1fYqDOtZG5Ma279WuGkUmVaxIphAK5pE2Rbj6fqUN3wmGLiJP62F3CU9KNnXwTSx0bca51NgrZJgGAmyUXDI70GhHneNE74wJ7iaxL/qf5PamPRsczzeu6OBEaNzn5kMOoxxdnZtzpjrMwwoVGzMvaGaLURt7GtK5ty2cvUH0HusaFXeNCMcIY7bVXexxbXpMKIkblU4dqVLfYoOWa6EqGMnAaz5/uwZD+GwAVRiHbJnBnDT7hxNlkjCZvaSfyFer+ocmEeykyXk/js3ZS0aakCjTpuQxBIBLRdmZHmdDMJKiPrbyN6QkaBuDzyBAqYyMEjv1DhC9bZZx4KXZ7aZ6nULgGkR4+bn1hU78pLYcdlWhiN+Xx7pNHbo8bMKzdaBRwnAQA7lMZ5nnU/bTIsESfMNaQYANCOOmpMz2NXDGrRPuYblHpCcn2yF3lVIqKIWavIAgigLrEkXWkPAD2cfdCz9RNj1uU2Ds1SIa+BfpEuFC0ERrhO5LCTC82ZbMcadrxDIq6cghJva9XMUbMXZmVT+HxKwD7RxJu3ETuVwN8CyJ29bDFIjFPamPZEF0jTdfOapXt544S92cql/e5CaYkIvHZS/ijNZg9maA/2uA0ZhSZvS2AfePK2Sqf+7kHHwMcenQBPnT+SNM7N7rktDeKoJiG+GLGlEhMLhmIsx2frl7GwqREjJf7pZVAkyam5gFkPVK0U3Eo4ph6S5cpTvBmWCO5PSu3MiJclS9tmlXYC/gjMoWGPuKCF4uQOLXMtDYX4FQ2IXEPWoJD6neIClIegJMAZHlrEjbKOrsulEDXA0zXuC9xDKKB8UsAd+40RagKcj/s4lswGhql38nYkCnsdlq7PGgUwsUE20asFXckIwSfAYr8Ms+T7rt0P1Ueu8S5+40PfuoojLip7V3uWoafP/Kjr8Ny7rhHA+eIHX+3n3HmZXr6o9zXKGTZLiHguEwAYLBPJwAELBGjxIBtos34QRbfrpyuKYYY4sfc7z4RTc30qlWZTyh9uH3dr9rw6z7cqNNHOYXE1VjEfACOlAr0srqfPfIpJElErtpz9rge4gmtPo/u8OhTSFqzrJxCYmgOwNE+bdB/GmGHHrUnBJ3nFBJPIcdIhejM30FCD7ueU0g8hRwrFSLBEWFCD7uXU0hKCskNWTEEmVYWroYl0sPGJhbWQ2RgKddKafG9R5dDd6g6bPGLOWGCjnpPg2gv2qMFmVbj3MVmRidJ9j1RlcU9ugT1SovnPboc91u8GdmltRWhZmvXxnu0INNqnPuV6YxCGNehPulxzulTkT6bWN/8SKuRu1M5OgD4GTE+5KUq7pnsz1RwD8ADdye57DReXcOkDw2d5D1Cb6QGZlS/8YI7TXr1VLFrIc4MW9xlwebrBWrvkFv5uYXa70RdT23dLYpl5HJGG+4Jt99QBR3lnK5mGTJHJ9RuIYRdjUkZt0IQnQ0ChR8Zll9scBedl+5qbd0t+AFwm+wljGOMApxjDLr8OJlblv13PnYLaTUQkwCGSaUwQJMgNt2QRTQL92tUMWJK/sEAdj0feQPJMpVq+PFf1/WryBVO3Ak32uTO2IQjEaPLPbs0aw0vHyGRh6XC1Le9EADXAfDv3eGJOdqROx8d/G2XY6rtZxwfgEC0c4Be+E2jh7muSZWZXGHbJQDgNAAEN5uIq3B+s/GknOwaQAIuHOk1AGMA8GMeBOcRuNuV0ROEEjUAG7kqchLISSBVCfwfffG7riorCFUAAAAASUVORK5CYII=;container=0;" parent="1" vertex="1">
          <mxGeometry x="1140.9466666666667" y="395.0028571428572" width="70" height="70" as="geometry" />
        </mxCell>
        <mxCell id="a8Lo-MuXTKm9hJjzGvLO-11" value="" style="shape=image;verticalLabelPosition=bottom;labelBackgroundColor=default;verticalAlign=top;aspect=fixed;imageAspect=0;image=data:image/png,iVBORw0KGgoAAAANSUhEUgAAAGQAAABkCAYAAABw4pVUAAAAAXNSR0IArs4c6QAACaZJREFUeAHtXVlsG8cZFoIiCIKiD31I0Ic8FAXyEBR5yUNegrylaO0mdo7WZyNbtpRE1mEd1kWRInVTlmSZpkRR4iGROmLK1kVREkWRomyRIhVSMiswCJDzIUnzUAdpg8aJnWSDX+46qw2XXO4OZ5fLFSDMzuzOf3zf/jOzy5nZvDwJ/Fl2TNUScEM6Lug2ez8xhU0HpeNRFnviiDt+W7lUck+5rHw3i92Qjul9Qe3669f/TrxofYkwbY08Lx3PstATU9TQemzqZeKo4/AeIfVLDR9moRvSMHko3H8FIgPI2PsfP0IcMB8kDCFDlTQ8zCIvLgW0Nx8Q8X9CTjtOEX8xHyBOTJ68NxIZ+UMWuZO9pqoJ9UMXA+1ROhmQf3PmjT1CgJRKZ9UXxojx0ez1NAssBzI61pvjiciAsrL5kgeEACkXXLWfWtesj2SBa9lpYndAG2QiA8rPO8v3EQKkKJaV7wGR2emxiK02hHW2ZGTAuUpXxS8IAVLUK+pbInYt+0wzR43qE1Ov/jyaIkdVtLR6sTIhIUBKp6/TnX2ei9Bi+471cP700ZRkQITULFYzEgLD4d4N3RURupg9Jk3sTjxe7nrj21RNFXm+dvkCIyEQJYdGDhPGsDE/exAQmaWtftVHJNhs0jp3TVJCgJTj48e/H4mOPCMyV8Vvjml7sJ0NCdRrGty1KQkBUkpmSr5aW1v7lfhREImFjvjYU2dnT/5ABZvNsWKlnhUhQIrWr3WJxF3xm9HmV3/AhgD6NY0e9oS8NHKIGA4NvyZ+NAS2cHTHVHzMcf/tLR3wVHllGoRAlBReK/zGEXf8WmCXxase2vWKxXN3UgHPdF7paWDdZAEh8N/qa7spXkQEtswY1g8ygc2mXLWaPiHwo5Y5ZP6TwK6LT70z4ny0ZOHsXTbAM13TxIEQiJIqZ9W/xIeIwBYNhC7bmYBmW67yKtJussimy7BpqBAYAvGoh76j1FX0HVvgma7jGiFASvHMuf+IBxGBLTFHDB1MIKdTzqUPISMEUv3mQIPAUIhDfb2n8qt0gGe6VsmxDyFJOTdTIkfJxK79Ba7PHXRimrzpj7JIMsh0KDRUII7bVCAreoPaAB1YrnkVAkLqFus+EQgK4dVCZ/7WfME9rgTQ6/HtQyBK4LlkNDr6tPDoCGCBdXuolA4qnzyKJgtI6fB2OQWAQ3iV3RttET4E0OuiIqTAceZb4dERwAIUzx5UUpp4PBiSnTqZDoaGTwsAiXAq7THrn6lgojhu8rJ//U4Cz5RqVjRh4dARQHN/+NJVFCRQZaAkJP/qqbsCwCKcyla/8mMqmCiOUQx7qRFjCpsOC4cQZs3FzjPIhrskmSgjBIhpX2tfwQyLMOrejtn+SIKIMlWt1nF+20uNDPK4bLb8S2EQwqzVtD2oQUkEKUu5ym7WCQl4qhTmccFyOczw4Fd3ebPHSYKIMlUijhAgLCcW/3T4Ne+hJIKUhTpCgJAWb/sN/LcsZo117gokr9tJIsi00ZN65mKqZop+vmax5jPM8OBXVzj3etqT4EjQk6UKT/K5vXSw2eTPThXewY8QRo3Wj62PoPr9g06OwsM8+50N+ImugY5d0gt+JnYnnqYDiSrfsIKeECDJFrb9HuM9i1cVrPdARQBdTv1KFdLnEDJiTFumF/GihFGbJWqsoAOJKp8pQgybhjKMEOFVNRwd7EJFAF1O3UriNYbknc41HQgM1OJFCaO2oaihlw4kqnytOzOE9G/2N2GECK+q4Uh/NyoC6HJq3Ocz0ofog/p2vChh1DYUGbhIBxJVvnq5LCOE6AK6bowQ4VWVSUKqlvbv5MC1z6DXk/TqXVhzjioi6HIqFoszEiH6oF6D97bFqG3sluUIHUhU+TLXz5vP0O9yPnlJT3h4+9bok6gIoMspWSjMSIRIepc6eC/0j+t/Y7UzAx3wVPli55mMEGKL2R7D2IjgV1W6UMRrpRQTMW/NFyAnBF4u4kcIs0a1r+EzJlD5lBc70RNSeK3oG8zw4FenC/Us8wGeqW4mmizFkuJ9/Ahh1pipF4yZ6NS7/F0zmOHBr87+rv13x6deQd6xZ2LYOxA0nsePkAAaq5fLv2ZqeriWoybkoOWv0v5xisp7JvqRctebSEdZxdPF/6XaLOljWFvINRKY6qF+l9Xh6/RImgS6c+nsFsdEArUc9e8hw1vDR+g2SzqvC/a4qYDyPVasoJsGdGLi5PeSnm2S6M6C91ooX6M0IZxK2rLaEkxks+TLUK4TafZx3+uE+jYYdjC1vmN9QfLgJ3LQtmMu5NtUkfVb1lRIRlk5swwhESFQpli9cJsElU/a7lcjIUS3obvEZGtOlI/uWPJRTC/t9LfwJgTWFsob+Ofl5am8tV/wiQ6o27neypuQvhuXDTkRBamcHP+n5dCJa6n3d09GWuc6vwg57Sj4zhF3PJzK1pw5373REUoGeKpzHWv8CNEF9J05AzYbR6djtsf4bEbT5mvm3GSdn6/4Nxsbc+4ay/ZQI9cOvnm1iRMhsKlyzj53sLnDtDdab6VqnhKdVy43ciIk514isiGBes3Y+2O/4bKhssqV/pM6bH4pd+RU9BmOYXOa09PHfkwUCYnKTk0fJTQuZVoR8qrttR/NEfNzDCbIxXQE4JMVbPuT0oUionNRw5qQA5aDhD6gb6HrlPMpEOgLdnkTRQS9rNFdTeiXtKwJyZl9TFLgy+m09mZLjE4APd/l1RCWhV5WhNS76j/Kud86OCHPUAmWUqt99Z/TSaDm+71aYuzaxZSEyF8AZQA53WL4zocmyYxHi6eXmLC3EUfHjjGSUjZffjsnNpNJF1yu18PwtNWv+pAaGeTxmPM+IRpX4meRamfV1zIZXJFPUg9IafOr95EC31OfnOzYi5CR+Z5fRIhqqfGOe2v2iSRi5VN8EIANmOG7uOSQuGyhaI8MaLLgv2bu/mQHGNr2+XvjfHTJddNAYCjS3wcfuO/xNu8jZPyqlmh01hP2oGUqDXHypSgQmI1NNoy7Lu0jBKIkFFwwo5Avy+CAgHvReptsriCdm75yF5o1DqLkKigQ2AzM26mE+P2OKAq5sgyOCESjnleohIQC8xMcRcnVUCAQj8cfdkx2PehHIlvLShRyZRk8EHDNGf9HRglEDA9RclUUCHjco5+ThOzsrObmNFAUQKKS4fc5YiQh29ve51HJleVwRODm+nU/SUgs5nuWoxi5GioEghszsyQhcoSgQpWHHBjqkoTsvOM5xEOUXBUFAsGg00YSEoms5qOQKcvggcDu7voToY250SWX5XYk4i7lIUrwqj8BMp6a2Oy8G6MAAAAASUVORK5CYII=;" parent="1" vertex="1">
          <mxGeometry x="1148.45" y="240" width="60" height="60" as="geometry" />
        </mxCell>
        <mxCell id="a8Lo-MuXTKm9hJjzGvLO-26" value="" style="shape=image;verticalLabelPosition=bottom;labelBackgroundColor=default;verticalAlign=top;aspect=fixed;imageAspect=0;image=data:image/png,iVBORw0KGgoAAAANSUhEUgAAAGQAAABkCAYAAABw4pVUAAAAAXNSR0IArs4c6QAAEfhJREFUeAHtXQeUFtUVVmPv5Rh7iRo1x2jsJzFRY0+MsURTTDSmasQSW2ygIkVFRQURFZAWJIIoSlGQuiwsy9LLwsLCwrLs0paydNiFL+cbZn7e3P/NvHkzs0vxv+f8Z+afeeW+e+e9ee/e777Za68c5SSQk0BOAjkJ5CSQk0BOAjkJ7MISAHAWgHsAtALQA8AgAEMA9AfQDcDbABoDuAPA6TurKQAOAHARgD8BaAGgI4A+Lq/kd6DLP9vxEIArARyys/i1qhfAGQBaAiiDPa0EMBjAUwDOs6o4YmIAewM4B8C9ANoBGA9giz2rqAMwBUBzABdHrL7hkvEJB9AdcBiN0T5tlnK3F10S1hIARwC4FsDDAFoD6ACgt9sL33J7YTMAXwNYoa0p+cVSAI8AODSM1wa55wpiXfI2hZYwE8DTAI5jowAcBeBxAHkAakNzNuzNVW6vafghDcCBAHqGtXf5ui34qqQa749dhOe+nosHPpuFRn1L8NI3ZXivoALD565E9XqrEYOJhwNYH1av7b2t27ahtHoD+s5YhnfHVODlIWX4d7/ZeGpAKZ79ai7eyCtH76lLMWHRGmyp2xal+AUAbm2QHuE+oQe5430Wc2s21aHdmApc22ES9ntuOPZ5Zpjxd+oro3FH92n4oHAR5q/cmFVmfV/gg/NE/zk4qPEII6+HNBmBn38wEa8OX4CyFRtMrHFycFi9KsZ9MfaSnGzbBqcnHPvyKGOjTEo6r3Uhmg0tw9xqY4MdNtZtrsO4hTXoPnEx3hpVjlYjFzi/DuMq8fn0ZZi2eG2kJ5v1XddhUmT+v/PsMFzZfgK+LF4Otj+AZnMiUW9KAdBEVrx6Yy1u7jwlckNMCvHuH/liXqBSNtZuRcdxlbih42Qc+Lz5yT7g+eG44r3xznA0uXKtbELmPwX7dv5C7B+xd3u8XvjOOAyeHThnqAZwdepKAXC+nCau2lCLi9uMS10Zh70wEvnz+Y70U93Wbc775/jm+YnqvPzdInSdUIXarfpHe1jpSsTp7X/pPRMr9O9FdvdrU1OKO1SNVcXDxlzz4cREgvGeMPXIp5kvfEkLV2/ET9qNT7W+s18vQJ9pS2VVzv95Kzbg/LcKrevjOzGgF3I2enkqSgFwi+T6xW/mWTOrCj7onC9MSRMXrUHSXhFUH6/f1m0qlqzdLKvF0rWbce4bY63befgLI9F/5vKs8gBUATglsVIA5Kulz1m+PtLYHSYE3T2+VDkNVYlP2zFN86yFois/7NrJLUdj9ILVatXOOXvm914bY10/Z5mcSmtoaCKFADhXFnrvJ8XWDIYJg/cObTISFas3+ariU3v6q/bCMNUVdJ9TX90Qxgcwzjvl4MYjtO9CALfHVgqApqqUKms2geN8UKPiXn9h8Dy1Guf8zv9OS70eE398sj/VvFcGzFwOTnVN+eV99m7NmmVAEoVMUiXFaaGsNOn/E5rng4tKlQbOqk69nqh8cirNmZak/wwsjcXTHz6eIYuiycfe9gXgcGk0vPqD9GdWNE+oROVwthJVgPWRjk928VK/mY6mk0vbFlnzxaFLPnAArrLuJQBuUgW1qXZrJBODjYBojpA2rdajyq0bbVNn1LS0GnARqtL4ijXY91n7IXtUWda6qlEchTyhMjNmwerUBfWPPrPUKpzFWkO+yE3KoYFR0l97z7SWw0dFlbKYl+MohI6cDHUZX2XNiKnBcqr5yZQlqddh4iHsPl/yhQtrMjLgSdWazeAwFJZP3mOvF9QujkLowswQZ0KyoiT/T2qRn7XuqA+7WBIemZdGREkPfl5iJYsWw+bLImIppEAt5Z99ZlkxYRLEQ1+UqMWDtrEoxkJTufVxn9NelWgdjupiID+aHtI2Tg8pVpn4/cfTU1WIbGSPSYtTLT9NxdCOJun6jtHN9R8WLpLZW8RRiK+f/SpFMzsXWdIySmtpmkJMuyx6DVXqVFQZmd9+xf4eBuCxOArxTTF+3XVqZAZMwvhh60K1bc45ra/0RfDJe37QXHASwVVzz8lL0HZ0Bf7cqxgntkhmejfxJe//uN14x/XcvmBRln+Gph6ZPui/VCaAu+MoxDfI/6Z7eqYM2sNU2ly3Fd0mVGX1GjUNz7k4+9+UJTilZf0tHGmtJQ6gZJnZfX9cM7OXlOuWtZv9lggAl8VRyGRVIHxCg54A2+uaWYdalfGcEwD6t23rNaX/WfsJWUbOMGZo9jGV+YM3fa4kr7gj4yikn5ebRw4jpsqj3tdZVdW6opyv31KHC2I4kYJ4pFlowxb/ytzEx1EvmV0DGltWlbUymAFAG5UhQnqCGmN7vaA82/fg1UVvJK0CbUYvdIaOlsPmO2ACnbDoL4ljhZX8UrCLavzmf4+fWcvWOz58zdQ10gKRwAtB/eMqpJFaEHFWsiFx/89enj0+c27/r89LcMSLI7X1cHgYWpoNJri9W/LJBvFikujXv0wxJsqpL338Uexag2YT5+CjpnEVQphmhoibiqsAmY/mB5UI49EtCmmioL3rnfyFYE+hj0Tm7TU1ubmFTiiVlq3bguZD5zt4saZDyvD91wtwa9epahLQNyTbJf+zTRpL701xFXKiygG9q4TnyErj/Jc9JGgGRxOFiQh2i8ODl4cmHBNxzUREo0pFFTXGegkaFEQ04EGxFMJMAHyD/U/fm2Bkwmto2JGNUSnIgnrOG2NBs7+JKNSw+sLucWZlIuLP5MyQloawcnnv9ez3x6DYynAV4puz3f9ZOvYsCfXh0xfUuHs+KfahDwk8kMMAQXNB+U3XCa5QSeAsnDUEhytOMlSKslKfvsTv5ALwRFKFvK8ywRWzqYFR7ktERhODJZmAPI7pTw8sxdFN85xZmMrXY/3mxOaLU2eVOJtjryHUiaDr017ZDrSga0AlQpbC2kqvp4aSxb8AuF8tNC0nFVflKrFrhzVO3pP5ozytsgzvP921knQuZNmrH+8f/hBo3n+0MO6dtIdcqjJLl6ZuNuQ1LuqRIQkq0VYUNS/TNR7kR6kkBUVwVqXS3T1nZPHDh1ElkztCOt8AtE+kDPcdwjg8H7fExtoIT5eWClCJCtKlC7r2908Zx7OD2PigtFGuS+iPzhUgkShh7z0aSuW7CMAViRXiKoUxdRl65MvgF3CUxjON9A/whRk1L9P9tsf0DD88mbFknVV+WZccXhjmIBeoDD1QiesTWY73n+87QbyQbLjytAmgi1q47unxGIl6pGldpTfz7JAmv/jIZ/d0DIJR69alI5SUK2+V2AvVtIywUokIevW+d05Tjib4yB7U4ClAHt2Q4AwvXNV6lcc9Sm+hreGSvneVOBWOy4uX75s5frOMHAafHMD4zh00ct4qbZ3XfOifRrs5zpZyjf0fwAU72IAzNiZFo8uF4d/E0+gJKegoLahJhyzW88eeWQhDB+Dg8UAXtkqEiHr31CNHEEGFsYWvy+jGh/gGUDKvMmF7Xr7KH09oizbhAlUlWo9teZDpiVmWfKmzt6ven6hW6SxWpXGRaxZNcOgDOrkmugbgM5WbzgkxWhIRaDtzk+BsWlSlgOP858JTJc6UvCgxGhglSXwWsc+COA6mHyoN4FG1oiRjNuEzkuhVsxEg3bgq2U6bg+qi8ZTGSpU8t8N3m41SLzvnDL/zyqIFQZp0ADRL1BOCMsv3CLmxFaLHOI+yhzAoU71vOp9a5Q/etAWuhZUvX95sK1/Uuh7CuBavLPrhBdHjdXyQTBNd171HHv4i/nqEwfoqPWqxtiGwQEZacXz3BJP0yGFIBg8RTir9ITTJe3Ux2Ef6aQB8lEjopszyPcKFkseQ7VEaF7lbQtQyJGKFi7gogf9Ry2c6mkUkMeZdJdq2vDIb9dX6bX5kkmmi+3I9UrOpNpJP2WNaPUoYKYXKMVpNE3QuAyqTPBhBdRAfJp1oqjJ47lmouaLXBI0OTCTsKJkBnArAt5yN68+mNVWujLmDQ5CAvOscruS0sr4Qj78T5hlVIZx9ndmqwOH3leFZZhJ61C6KItPEaQD4bBZEFXrCsj1K2xCxVqaIV+5LopLO5mTLR1B6mkDysgNtnOo55DIf1x0aNEyPxIKOWoAMAiUij1FQQY0Ku05Eh7SIEtYTVp4MM0vDrhbGI4OH+KBIuqnTdg+lZlXOOfOZUeWZOB2ACyVzdyWIlpWOJpbNXqfbb0RnI+K1MIGmcY++EUnsOcT9ytkegHcTC9m2AAA+o47NDEkKiIspLjIlfV1SDYmbJdxHJQLY0gDJSZ50/wlTkrQyu+dwGnaC+7sGwIPKvpOdARDndpStvI3pATyjMsdxXF2x6hoUdo2RrRowsjNz4WyMQxjLl2M1F3Bh5aZ5jwDsIGSjIguObVmoauU+TxlvfYNRyDYJAJwMwIfNIZgtiQCIGtGYHZy2UFnSOswbaS4GTbxLl7EQsu1fYqDOtZG5Ma279WuGkUmVaxIphAK5pE2Rbj6fqUN3wmGLiJP62F3CU9KNnXwTSx0bca51NgrZJgGAmyUXDI70GhHneNE74wJ7iaxL/qf5PamPRsczzeu6OBEaNzn5kMOoxxdnZtzpjrMwwoVGzMvaGaLURt7GtK5ty2cvUH0HusaFXeNCMcIY7bVXexxbXpMKIkblU4dqVLfYoOWa6EqGMnAaz5/uwZD+GwAVRiHbJnBnDT7hxNlkjCZvaSfyFer+ocmEeykyXk/js3ZS0aakCjTpuQxBIBLRdmZHmdDMJKiPrbyN6QkaBuDzyBAqYyMEjv1DhC9bZZx4KXZ7aZ6nULgGkR4+bn1hU78pLYcdlWhiN+Xx7pNHbo8bMKzdaBRwnAQA7lMZ5nnU/bTIsESfMNaQYANCOOmpMz2NXDGrRPuYblHpCcn2yF3lVIqKIWavIAgigLrEkXWkPAD2cfdCz9RNj1uU2Ds1SIa+BfpEuFC0ERrhO5LCTC82ZbMcadrxDIq6cghJva9XMUbMXZmVT+HxKwD7RxJu3ETuVwN8CyJ29bDFIjFPamPZEF0jTdfOapXt544S92cql/e5CaYkIvHZS/ijNZg9maA/2uA0ZhSZvS2AfePK2Sqf+7kHHwMcenQBPnT+SNM7N7rktDeKoJiG+GLGlEhMLhmIsx2frl7GwqREjJf7pZVAkyam5gFkPVK0U3Eo4ph6S5cpTvBmWCO5PSu3MiJclS9tmlXYC/gjMoWGPuKCF4uQOLXMtDYX4FQ2IXEPWoJD6neIClIegJMAZHlrEjbKOrsulEDXA0zXuC9xDKKB8UsAd+40RagKcj/s4lswGhql38nYkCnsdlq7PGgUwsUE20asFXckIwSfAYr8Ms+T7rt0P1Ueu8S5+40PfuoojLip7V3uWoafP/Kjr8Ny7rhHA+eIHX+3n3HmZXr6o9zXKGTZLiHguEwAYLBPJwAELBGjxIBtos34QRbfrpyuKYYY4sfc7z4RTc30qlWZTyh9uH3dr9rw6z7cqNNHOYXE1VjEfACOlAr0srqfPfIpJElErtpz9rge4gmtPo/u8OhTSFqzrJxCYmgOwNE+bdB/GmGHHrUnBJ3nFBJPIcdIhejM30FCD7ueU0g8hRwrFSLBEWFCD7uXU0hKCskNWTEEmVYWroYl0sPGJhbWQ2RgKddKafG9R5dDd6g6bPGLOWGCjnpPg2gv2qMFmVbj3MVmRidJ9j1RlcU9ugT1SovnPboc91u8GdmltRWhZmvXxnu0INNqnPuV6YxCGNehPulxzulTkT6bWN/8SKuRu1M5OgD4GTE+5KUq7pnsz1RwD8ADdye57DReXcOkDw2d5D1Cb6QGZlS/8YI7TXr1VLFrIc4MW9xlwebrBWrvkFv5uYXa70RdT23dLYpl5HJGG+4Jt99QBR3lnK5mGTJHJ9RuIYRdjUkZt0IQnQ0ChR8Zll9scBedl+5qbd0t+AFwm+wljGOMApxjDLr8OJlblv13PnYLaTUQkwCGSaUwQJMgNt2QRTQL92tUMWJK/sEAdj0feQPJMpVq+PFf1/WryBVO3Ak32uTO2IQjEaPLPbs0aw0vHyGRh6XC1Le9EADXAfDv3eGJOdqROx8d/G2XY6rtZxwfgEC0c4Be+E2jh7muSZWZXGHbJQDgNAAEN5uIq3B+s/GknOwaQAIuHOk1AGMA8GMeBOcRuNuV0ROEEjUAG7kqchLISSBVCfwfffG7riorCFUAAAAASUVORK5CYII=;container=0;" parent="1" vertex="1">
          <mxGeometry x="1143.4466666666667" y="145.00285714285718" width="70" height="70" as="geometry" />
        </mxCell>
        <mxCell id="a8Lo-MuXTKm9hJjzGvLO-27" value="Redis" style="text;html=1;strokeColor=none;fillColor=none;align=center;verticalAlign=middle;whiteSpace=wrap;rounded=0;" parent="1" vertex="1">
          <mxGeometry x="1145.95" y="550" width="60" height="30" as="geometry" />
        </mxCell>
        <mxCell id="a8Lo-MuXTKm9hJjzGvLO-28" value="PostgreSQL" style="text;html=1;strokeColor=none;fillColor=none;align=center;verticalAlign=middle;whiteSpace=wrap;rounded=0;" parent="1" vertex="1">
          <mxGeometry x="1145.95" y="455" width="60" height="30" as="geometry" />
        </mxCell>
        <mxCell id="a8Lo-MuXTKm9hJjzGvLO-29" value="PostgreSQL" style="text;html=1;strokeColor=none;fillColor=none;align=center;verticalAlign=middle;whiteSpace=wrap;rounded=0;" parent="1" vertex="1">
          <mxGeometry x="1145.95" y="210" width="60" height="30" as="geometry" />
        </mxCell>
        <mxCell id="a8Lo-MuXTKm9hJjzGvLO-30" value="MongoDB" style="text;html=1;strokeColor=none;fillColor=none;align=center;verticalAlign=middle;whiteSpace=wrap;rounded=0;" parent="1" vertex="1">
          <mxGeometry x="1145.95" y="300" width="60" height="30" as="geometry" />
        </mxCell>
        <mxCell id="a8Lo-MuXTKm9hJjzGvLO-33" value="" style="shape=image;verticalLabelPosition=bottom;labelBackgroundColor=default;verticalAlign=top;aspect=fixed;imageAspect=0;image=data:image/png,iVBORw0KGgoAAAANSUhEUgAAAZAAAAGQCAYAAACAvzbMAAAAAXNSR0IArs4c6QAAAARnQU1BAACxjwv8YQUAAAAJcEhZcwAAFiUAABYlAUlSJPAAAEBlSURBVHhe7d0HeFvV3T9wO5O27D0CSSQ5DmGkEMpsG0aGdSUnAeLY98pJCCNhhFVG+QNt+jLavlDKXi2jQBhJIGR5annbAUrf7sHb0kKhLSvT2rL/3yOf8CbOkS3Jki3J38/z/J4wcu499+je87vnjnMLiIiIiIiIiIiIiIiIiIiIiIiIiIiIiIiIiIiIiIiIiIiIiIiIiIiIiIiIiIiIiIiIiIiIiIiIiIiIiIiIiIiIiIiIiIiIiIiIiIiIiIiIiIiIiIiIiIiIiIiIiIiIiIiIiIiIiIiIiIiIiIiIiIiIiIiIiIiIiIiIiIiIiIiIiIiIiIiIiIiIiIiIiIiIiIiIiIiIiIiIiIiIiIiIiIiIiIiIiIiIiIiIiIiIiIiIiIiIiIiIiIiIiIiIiIiIiIiIiIiIiIiIiIiIiIiIiIiIiIiIiIiIiIiIiIiIiIiIiIiIiIiIiIiIiIiIiIiIiIiIiIiIiIiIiIiIiIiIiIiIiIiIiIiIiIiIiIiIiIiIiIiIiIiIiIiIiIiIiIiIiIiIiIiIiIiIiIiIiIiIiIiIiIiIiIiIiIiIiIiIiIiIiIiIiIiIiIiIiIiIiIiIiIiIiIiIiIiIiIiIiIiIiIiIiIiIiIiIiIiIiIiIiIiIiIiIiIiIiIiIiIiIiIiIiIiIaPgoqa4ee7rXrU97+unR8j8RERH1bcrq1WPO9rhe/obb5TvFVf/EdK93lPxfREREamLkca7X9QISiO80jysy1V3vn+Ssf6pg9eqR8q8QERHtqQwjjxle98pzPW4fEkjXNIxAkECCZmddeJyr9mEmESIi2kvZ7343ZnaD56UZDR7fdI8rhAQSmuZ2+k92OyNmZ73vKGddcN/62scKeDmLiIh2EclDa/C8OqvB03mB1x39doPbf6bH6Z/mcUVPdNX7TBiBHF5fFxxbX+sbXVv9ZMHvVo+RRYmIaLia9s47o+c0eH9ha/T6ZjW4w0ggwW95XP4z3M4wEkjgBFd9wOSqjxxaX9c5tr4mPKa2KjCqpmplAcrJRRAR0XBT1t09cm5Tw6OlSB5aozckEsj5XrfvW1539xkeV+epbmfweLczMsFZ5zvUWRcZXV8b6Ekgm0Ijq6ueZxIhIhqGxKO5FzU1PTWvqbHT3tgQ0Rq8QSQQ//lIIt/0ugNneJzBU9z14cnOev94Z13wkPrayKj6ms4xtdXRkdWb/IVVGwMjqza+VFBdPVYukoiI8p0YecxvbnziouYm/7ympoBIINZGb+fMBnfkPK87+E2Py3e6x9X1dbezs9hZHz4WCeTAulr/6PqayOiaKv+o6k2hwqpNoVFVG5BI1r3CJEJENAwsfeed0RXNzU/Mb27qRAIJYgQStjU2dFobPNEZGHmcizjb7Qx/w+3yT3XVh4oQSCC+A+pqw6PraoKja6p9o6o3dhVWV3WOqlofLty0LlRQtf7FgtWrx0yfvmLUrigoK+Mjv0RE+UJctipvaXmsvKU5cDGSx4VNjaG5TY1+e6M3ZG30hGd63T4kkOhZHqf/Gx5XYKqzLmL57g/CpiXLu8Zfsjx63CXLu2Kx+JrosYuvwT9f033s4qvxz1dHJ85b9J7FZvz5yygxyuRq816py3VEaWPjXPmvRET5RSQPo63l8YqWlkB5c5MPI5AuJJDOuY0NEXtjQ6Ck0e2f0eCJnOtx+c72ukLTnPXByd+5I4Jk0J1UaHoUcZtcbd4r8XrH2Zq8v0QiDlzU3GDI/0xElB9E8ljY2vKU0dLs01uagwuam8MYgfhjI5DGhpCtscFf0uAOI4EEv+1x+c9y1UePv/GOsDJB9BV2R/eht9z5q4Lnn99HrjqvzXA6j5vV6Hnb1uDxzWls9F/Y3LRtflPD1fhfhT1/g4goh4l7HovaWh6ubG0JGa0tvvKW5uiClmb/RU2NQXR4YSSQTnuDt2tWg9t3QYMn8C1nfeSEm+5MKXkc9IN7IwVvvh5GvJDvSQRJedx5De63Z6LdbI3ewJymxh0XNjWJS4M7FjQ1iSRCRJS7VqxYMWJxS8tDi1tbAhiBiNFHVFy+QgIJyxvo/jmxEYg3OKvR7b/A7QyfdNOdUWWC6CcO+sEPIwXr3wgVrHvDjwQSQrxRsGrVV2RV8soZLtcR53hcvznX696KBBLVGj070I47MaKLIoFsQRsHK5qbL5V/nYgot6zo7h5xWVvbjy9pbQ0ubmsNxEYgLc1BcQO9rLkpis7ON7epMVLa2BDUGr2ds7yu7qnfXRFSJYc+w250H3LnXYGCDW92IYF0IjAKWROIJZG1azYUvPji12SV8sJUl+uY0z2ud8/xOP0YgfiRQAJag2cnEkgACdmHxLxzAdq3orXls8q25uUowstZRJQ7xMjj8tbWH17e3h5EAulEAul2yPsfSCCR+RiFXITkgQ4vUNroDVi97tApt/9X8jfM7Y7uQ+64K1qw/s0wwh8bgYh483U/kkcX/uxGrM+XJHKS1ztuqsf5y9M9TvGuzHaMQEIzGjydGIH4Sxu8PvFQAtpVjPD8FS0tfoz6di5sabkSRZlEiCj7la1ePfKKtrYfIXkEMALxI3mExQgECSSgt7SEkUD8GIEERAKZ29jgs3s90Wm335PCPQ+j+9A7/itUsPHNKEYffkSwYP3acMG61zuRNLqQQMQoRCSQ7thIJMcvZ1mQPI531b091eOKnOZxbRMjkHM9LvHgwRcYgXRhJLcDCXnnxc1NYSSQbRXNzSGM+vyLW1u2XdLWtkwuhoiyX+FRdvtXLSWOcZPs+jctmqPSYqu41Ww17rNo+s8sNsdr6ANX7x5mzXgO8VCRZtyJ/3+pxVoxs8hmmE6eWYmT5+7cOIEUl62WdbTdtay9LYIE4kMCiYhLWItaWzodrS3dGIF0IoGEMQIJiUtYcxq8kdNSSR6Iw+64S7xEGC3YuM6H5BGWCcSHBCJGIMEvk8eXsWZ9riaRcbW1B49/9hfvFC29MTrpkuXR4iXXRiYvubbr+CXLo1MQp9x4R7fd5dwmXsq8GKOQBc1N29HWXWjzLUggITEKRFK/XC6OiLKMubTSYrbqi8w243GLTW9B/Af9XFfvfi+F+BzxNuIpkVgmzHYUy1VmlxUrkDww8riyoz28FMkDCSRyaVtbQIw+FvY8geWXl7DEI7y+Cxsbwt+4/Z7kb5jHRh53h0dVbwghgQQwAhH3P6Kx5CHuf6xD8li7RoxCeiUQRC7eE/F6Dz2orrZ9nLNuW9EDj0QtpZXKdjl52Xcipc56v0wgPnEJC6O+TplAtuH38F/V0bEUS8zY2ci4+fO/Ujyn4uihDNOFlYcXz7l0vyllZfuiSnl16W4o23e8tvhI0a4iOMvDwI2bNf9gi1W/WIwcLJrxgeqYzlSYbfqHiGeQsOaNn7v4QFmloSNGHle3t//wqvb24JXtbf6lbW1BdFjhJa2tPiSQ6MK2Vr/RcwkrUt7c3HlxY0PX6bfflcINc4dIHqERVRu7R1Wt9/UkkHVi9CFGIUgebwS+vIGuSiA9kTP3RPZtqj5sdF1164F1tduPcdYFJ7vqA1N+8kggXhL5+tW3dM9zOkUCCVSgnTEC8S9C2y9BiBEhRobb8Dtd192dmSEths8X4czJP6ShGZ04KLebNX07hvtf4ED5O9rmHfy5Ef/9CZzh3WSxGnYxvB8/fXFOPeo9pO2rGb6edjVEu27Bn//Ef/s1ohZt/SziDrRzmbm04oRYkqG9WEoc+4ukgfZbG9s/FcfwoIf4LW36y4jZQ3I8iHseyze3/9c17e1dSCCdSCARmUB8GIFELkHnJZ7AwugjVI6z4rLGhtCZd96b/NAMI4/D7rwnPLJqo0gggZFV6wNIIGEkEHH/A6OQtSKBiEtYUSQJ8SivKnn0RC7cE9mw4dCRNVXNo2ur/QfU1fiPqa/1FbvqO0921ftPeuCRoKXUoWynr195U/Qil1OMQHYggUSRwLfiNwhd3iYSe+vOK/G7XN3RcUtBBpII1l/Wuz7ZGkgkYRw0H+JA3oiO+eaJVuOkaUuXZvXnAVDvXGjfLrTtJ0gwDYi7imzl3xLX8+UmDEeFk+z6ZLTFg0jEHyvaK3tC09/DMXH7xNKKI2TdM0s8bXVdR8c9yzs6Qle3d/hjI5CO9tDS9nY/OiwxAgkubm3xLWxp7kIC8ZU3NYnkkdI9j8PvvDs0qnpTZETNpsDI6k2dI6s3dCOB7Lr/EUIC6bmEJUYga9f0NQKRsWZ9werV4jJH9lm16mBsZ/OomqooEsjW/etqwhiB+CY563ac7HEGTnM7O0997MlwUbyRyLLvRBd4PEFHS7N4iGHHJa2tXfg9tixtb8MIsT14TUfHF8vb229LdxLBunMmgSiiCwf5H9H5/dhkqzxRblJWQR1ztX3/hbYVN3nPQ6cxQm5O3jNZjXOQNNbhJCX5qy1DGEgi21Dv+zObSND5XIeRBxJIZPnmzSJ5BBARjEA6MQLpEiOQS3rugUQqxSO8zU3hM++4J4VHdTHy+N694THoTEchefQkkI0hjED8hVXrgzKBYOTxRhghEocPCWTXI7x9x9rXvQXO1QfILcoO1dWHFVRtbB1Zi+2sqRaf8N2BBNJ1tLPui0mu+qBIINPcri3neF3dpz321M6iOQuV7XYKRiLlTpdPJHAxCrysDb8LfqMr29p2IoH4r+3oCOK3uzWdl7Ow3lxOIHuGZjTjz7IpZWVZ8/lkUZ896piLoRl/Qed0vbicIzcr3xSatfKzsY0ebG86boIPZWwVI5KeJ7nSq/CGzZtvux6jjWs3b/Yt39wRvqqtPYQE4l/W3iYul4Qua20N4Mw3Iq7Bi0d4v3X3/aoK9hvH3nB75KurVgW/+tqqyD6vveYf++qrXfu88kpg7CsvB8a88kp09MqVvtErX+oa/dKLgdEvvRAY/cIvImOeey4w9uc/704kvvLYE54JFy85A2ee0/YKrfLsIpsxY6BhKTXs2BZx8PcZpjmVFQf+6Keb933o8dD+jzwe2P+RJ4IHIg579MnQsY89FSx6+InwlAceDZz400dDpzz0WPS0nz7aeeI1tyjbTcTUy64PG05XBIl8++UYDS7D74MRoriE5UMC8V+3uWPnDUgiYiQpf9cBwTrFdijrkqPRhQ7vtxa7fnFZFtw4Rn3ypn0xGvmnxea4IROd01ART1Jh21ah70jpKku2BpLIn0zWivOxiQM/2RSdzQ1vvXXzDW9tDlzX0R4UHRESSPTK9g7fle3tYSSQIBJIJ0Yg3Zfg7HdRS3Po2/fcn1NDuHyKU5be2G243OIprO5lbW1bxWXGqxHL29u3Xd/REbpx8+bt38HJQDouZ2F9+ZZAdkWXWdPrirSFx8tNHRKoR961L9r19+IkC5uX9ntyg8VScu1Ys+a4o+fSj3o7cz2wbSGz3XhIPt2Yuhs7OpZj9BG9DiMPdECBa9vbI8s7OjoxAhGXr2JnubERSFubeAs9eN4Pf5rrw7icj7Nvu0tcwgosbWvbeWVHRxgJZBt+M3ECIBLIlu+89Zb/ptbW8fInThnWla8JJBbo7LbjILoGmzoknR3qkJ/tqxkRi01/RDymLDc1Z1jmVJyCzvVd5XblZ7xjnlVpkZufvOs3b/42RiCf4U90QB1hMQK5Bp3RVe0dEXF5ZGl7e/QKJJHYW+itrVH7cy/5J81bpKoIYxBi6uXXRxxuT+Cy1lbx2/gxSvSLS1jLcQKA386HBPIFEsgc+fMOCNaX1wnky9CMV4+yLx30J4uw7nxv37eL5y6eIDc3q02fPn2USdNvQfIIKLYjDRF7dPq3+HOVWTPustj1JRa7Y1aRZnwdIzaTuMF9nM04yFIy/zDx7+KSu3g83aQZ11k0/Wks4x2U9+293DSEpn9hKXHMkk2RvBvfemv69Zs7tosOCBG6pkO8/9Hhu6rnEd7A5e3twSWtreIFNv+i1pag9vxL4UlzU0siExZe1X3M1TdHj77uu9GjRFx7ayyO7IkIouvI5bdEEFFE15HX3Cz+uVsVR9xwW/fhN92xRxxx7a2f4of5WazREw2b/jB+sB8PPPQfYHnf3T2OuOV7rQfd9WPfwffc133w3f8dOhRx+L33RY699/6g+Yc/CU/+0U/CU370QHjqjx8InvKjB0InXnWTst1ETL38hojudIbFjXQk9O1XtLdFkeS3X93eEcQIxI8R5CfXt7enJXkIWOfwSCAiNN0rDl656YMC6x0O7ft+sdU4SW5yVpo8b+EhOH43oK5pu7qCJBHEPvVLLPdH6Bdmi3UM6IXNFStGTLLrhyKhXITlPY9k8m/VelMOJCcks0uwptRG4ze81Tbjuvb2T3EmG8YIxCduoqNzCsq30LvFS4SXtLUGF7a2hMWHpKy/WNldfOHipBt8gmNZ91dXreocXVvdPbJ6k29E9SbxBFaocNN6X8HGdZGCDesCBevXBmJPYK0T73/sNgdW//FJwRuvnSk3KTt4vQcWVG2qwnZGR9ZUfzGmtjrylfqaziPq67abXXXRk9z1209xO0Nnepz+055+JlgUZ3SH5NFVVl8fS+CL2lq3i0uKVyC5xxJIR0c3EsjHSP5p/Qwu1ptEB6f/xqzpznRGrFMXB6FmvI91bI2dxWXwSRisp8k0o2zQnuLDOoesfbHMdxB/Rgf3OTqPTiw/pc8uJBJo149MNr1IbnZWmVhScTLa4A+qeicdmhFB2/5PkRjJlFZaMvmIs3i502zX5yGZbEL90zJqwrJCON5S/4DddZs3X4CO6D/okKLyCawAEkgYCcQvRiBiGg3xHRADnVhFS3PI+tIroUkXXqKsTF8xoeKKyD6rVgWRQIIjqjZFkEB8SCAhJJAQEoivYMPabvkSoZjGRHxQSpUs9oy1az4vWLPmDLkp2WXduv1GVG90j6iu8iOBBPepq95xeH1t0Oys85+IBHKqx9V9ys+e3REveZx82fXdF9c7d6LdxTQyfvEY76VtbZ1XILkjgfivau/Yjt/NJteWNlh3MmfIGf1mvXgpUEzBUaRVnGGyVSzG+h7ADt+Y7mF9kc14fbCe0ML6hr59sa2WkiWHWUoqTrHYHPPF5RVEFTqSLxR1SDlEJz1l1mUHy7VmhUl2xwXo8D9T1TeZiHW8Nv1F8bjvULwXUzzbUYzteFKeYCnrmESELVZDzPidmqs3b/42Esjn4g1ndE5hcZYrrrcjgXTFXiJsbYnoLc0BMQvvguamrtkvveIrviiVJHJ5dMyrr3aNrNroQwKJIoH45VvoGIWs9WMUEpQTKfr2ShZ7xZrPCt5cPU1uQnaqrt5/RE11/ZiaKj8SiP+w+rpOk6u+EwnEd9LPnhXTmSjPrE+67PquuXV1vvLm5p1odzGNzBYkEDEvmZhQcceV7W1br2pNf/IQsP6sSSDxWEpKxppt5efiIP4pDiAxzYmqbkkFlnW7XHxGYV3Z277oCMX1ebPV+H9iFIj1D3jkh3Z9I1vm3TLbjfIBd7hiOhib8bh5bvmxcrFDymQvOw71emqgIxKcQETEyYRcbPKWtbefixHI1mUdHeJGbfCynrfQxTxYoUqMPGIJpLk5tAB/XtzcFJi58tXopAsXKyvTV4w3lnXv88oroRGb1omZeOUlrDcDBevf8GMEIl4eTOQlwq1IIGfLqmc375sHjq6t2rBPfU1EJJCJzrodk596JmSJM/I48bLrI3Nq68SEijvR3gG9ucm3qLVlJxJ59NLW1i1L29q2ItGn7Z5Hb6hD1ieQ3Ym5f+SEdu2oT8odHjq6wGBct8e6cqJ9YzeYrcY5OMtd23O2raxfItGF32eJXOyQQeJwDGg7ND2Kfez1idbySXKRWcVsd5yK5NaEuqZ+DIg50kodqd8OuGbz5rOWtbV9iAQSuUy8hS6mMWlrDYsPSRmtLd0YgYhJ/oIXNTdF5jY1+i548eVuJJGkKzwBSWTsypfERIpdSB493wGJvYUem/9KjED6msZEJI8LZJVzg9N5wD711V4kkC8mPv1M1DJ3kbLNTrj02rCtpiYsPiqFJO0Xnw420OYL0f6xCRVbWz+/vK3tQrnUjEA9ciqB7DJt2tLRspP4UFHPBEP3oOccJReZEVhPrrVvIUYl30YHKqYTV9UxgdA/FjeD5fIGXc9+kfoZOpLoX8XTUVhUVr/nImZcQBK4Gb9Vp2o7Egv9PfFkmFxk8q7s6Djzivb2jzACiX0HRFzCcvTcRBff6A6WNTeFkED885oag/bGhsi5L64MpDISmTh/SXTMiy9EMALpGYX0fAdE3DwPx70HsnbN9oI3Vom3KXPOwdXV+x/1zPMN5kVXdRXpS2MxyVjaVYyYbCzrOumaWyIlNTXi+/IigXwxv6mxCwl7B0Z+O8VDDJe0tW7Bb5LxDgW/TU4mkF0mnl9xhDhTVNQ1kegyaxUlclEZgXXkZPuKy4Y4w71X3DRW1DOB0O+WixpUFrteinWnetlKnOj9XEzbLheXE8QoAseAeAhFtU1xAydfOy3WyiUDvqdzeUfHNHRW/1nc8ynbCEYgQb252Vfe0tI9v7mpEwkkjBEIEojXZ230Rr754kr/pFTuiZRd2jXmhRe6Y/NgrccIZP0bQYwudv+U7Z7JY+2q6bKKOemQlpb9JrjqnFNc9Z1T3U7f6YhzPC7/eV63byZCa/CIBNKJBCIuYYUw2tumI3lUtrZsWdTapMvFZBR+l5xOIDE4ANDRrUD9kh4d48BryuQ1e6wjtxN0z1TmyZ/hasbWwZ4i3jxbPwujh1SnXN9qthrlWExOvl1vmll5ONq8TbFd6hDvq5Q4psjiA4cEcvritrZPxBNA4kkgvaUlJG6i48w4dBEi9inbRm8ICSQ4s8HtO/vFlV1FKYxEJiy4rHvs88+LR3ijGIF0IoFgBPJ6pFcC2ZqrI4/exnu9B07xOOumuuv9Z8Q+a+uKnNfg3oEEErQ1IoE0eEUCEfeZ/OK76EjcW43mZkMWzzj8JrmfQHoUWqz63ahjskkkbLYZGXs4A8vP+faNPUoq3nlQ17mP0K+Si8g489xLjsU6P9q7DgmEZvylyFY5VS4qZ4nJLjGiFu+6qLdTRM+9necyMjHm4ubmM5FAPjBamqMV6MyQQETHFr0Qo5B5jQ1dNjECafAEZjR4IufiTPq0F16KIokkf08ESWTMc8/3TOW++3fQdyWPXLvn0Y8pXu++GIGsOd3jCpzjdQXObfBsndng6dYavVtLkZjRviGMQLaIeyAVra2DMvLYBb9HviSQ2I1gs91Yo6h3f/GAXETaYdl50b6o26296ppA6C2D8cirmGEA62vde/0JBM7axaPjclE5T0x0iQRRpdzW2ChLX5TR36SyqekMjEA+Fu+AlDc3B2Ofso2NQBpxxuz1lTS6wzMa3H6RQM7yuqNTn3vRX3TxElVl+4yJFy+JjvnF81EkkP/7lG0O3/Poz5mrVn3ldLdr4zc9Lp9oOyThgNbg2Vna1BCc19S4A6O8nWUtTZXyrw8a/BZ5k0AEMV0EOq5/KereR+jvZeqgwvLzo33LykaaNV089aOqtzLw90M40x0nl5AphWab42HV+vsNTfcO5kulg0V88haj6l5zfem/Seslq74Yzc3TyltaPl3Q0iyeDgqhgwvNQfKwNTV0z2r0dM7wukPf9rjCZ6MznOZ2hk9Y+XLQMv/S3SqbWEwou7R77HPPia8R5sU9j/6c2db2lW96Xaum94ziOrVGj7+0wetD+26d39jokH9tUOF3yKsEIhRp+jJF3eMGDrZwkVaekVl7sfy8ad9ia8VpST8aq1Vk9KSoyOa4EKOIFL5ZpHvzaVr63opnl09AAv9MXLKyaI6fTRvseeD0trbTkUD+jTPj4LzmJj8SSAgjkOCsWOfnDiOB+M7yuEKnigTidnaaX36l23zxktQuZz3zTN7c8+jPyXV1XzvP6143o9GzRWv0ds9pavz0wpahSR4CfoO8SyBHoGPAgfMPRf3jhsnmWCyLpxWWnVfta9Zi80mp6q4OTX9aFk2742Y7jsKZddKfnMU2bB4/d+6BcjF5C9s5t0hz6INxGVGpor3pDCSQf+AMOTqnqcGPEYgfCSR6vtfd+S2vO3KG1xVAAvFPcdWHJ7jqA0e+8FLEdPElyT8JY3f8W3zfWq42781EEkESXmONXcLyDuo9j97Q/nmXQASMKn6sqH/cwJn1w7JoWmHZ+ZVAbI45inrHD814SxZNOyz/lb3W10/grPxvJvvC4+QiKNMubG09EQnkH6UYfeCMOTQTI5DzGzzBb3pc4TM8rs5TPK7IZFd9cIKzzneIs677ay+82GlK4Z4IsuWnmXwaJtuc2bbqK7ObvefKfx0yaPu8TCCT7I5vKOofN9CxOGXRtMKy86p9xT2D2KURdf33Ds34txgRyuJpI6ZJx/KTO1nVjM4im366XAQNlnntDcfbG70fWRu9nbO87tD5De6wuBmMEUj0FLfTN9ntDBznrA0fVF/nG11XE/raypdDB933YOiA+x+KHnTfT0P7PfhwaN+HH4vu++CjgX0ffAR/Phze94GHth9z6TXX44cVB1gsTNbK9HyCkRIm2159wO0dOZNAet4N0bcotkEdmv6eLJlWWHbetW8fT/nsFfi7wXTfSBcfscKI8feq9fUZmnGZXAQNNpvXeyISyN9nIoGc53H5z/G4Qqcjvo4EUuyqj46rr/UfUF8bRAKJjK6p8o2q2dRVWLXJN6pqQ6Cwan3PG+gb3gzLaUy+KHjz9Xly0TSEcGDlZwIBJAWXYhvUoRk+WSytsOy8a98i8bEkdf2VMbF00cmyaFpYbLo48VSuq49YjaI8OR1KJU2uk2c0uN871+uOnO11B77hdvmRQKJFznrfOGddaD+MPkbXVvtHV28KI4EEkUD8o6rWh+UsvAFEtGD92k8RF8lF0hDDgZW3CQRnv08otiFuiIkaZdG0wXLzcQSyUFH3uDHJWpG2B2RiH4bSkn1hUP9Y3HCXi6ChNB0jESSQD872unynuZ3hqR5nwOKs9x9TXxv9an2d+IhUBBEcWb3RN6K6qntU9fpOjEB2fQdkK5JHWj+IRAODAyx/RyA2/XuKbYgbA5pULg4sN+/aV95/UNVfHT0TE6aF2abfrlxH/OjCfjBkTzmSwjnN7hPO8rg+Os3j6jzZXR80u+ojRzvrOr9aXxtLHqNqqwIjqzeFRlRtDGAEEizctC6M5PFFwYY3S+UiKEvgAMvfBCI+OazeDmUcfcHCQ2TRtMFy8659xY1oRd37irRsl5h+w5Lk6EM8HDFYHw+jJJzjdp9wqtv5txNd9WGTs85/hLMusA8SyJja6s5RNVVRJBD/iKoNAfkhqc8KNq3nyCML4SBjApExqbRyoiyaNlhu3rWv+G6Iou59xAA+XLQb8RU99fLVIW7gD6cnO3POKS7XyVNc9f870VkXPqy+NjS2rkZ8zjUyqmZTYET1puDIqo3iW+ifF2xcl9FvWlDqcKDlbQIx90yuqNoOZRw9jyOQRGAEoinqHj/sjlmy6EAUYlm/22vZfYb+iijXU5yy0uS6uhMnOOs+OKS+zjemriY8pqY6NKp6kw8JpGtU1YZtI2vW51SnM9zgQMvbBFJkM55TbEPcEI+HyqJpg+XmXfvirH6pou5xQ4xYZNGUJT3qEVN4DNbcTzQwx1ZXmw+ur3tvdH2Nb0xtVQAjkHBh1aYdIzZtGtK3rKl/ONjydwSi6W8ptkEdmr5FFksrLDv/EojdeEhR97hRPNtRLIumDL/ls6plxwuzZqyRRSkXHODcZBpVV/N7cQlrZM2mbSNqNi2U/4uyGA62vEwgPS+bJfFZU03/pSyaVlh2vrVvodmmi+/Rq+q/d2jGDvGxI1k2JXJus/8ol68KMbmifWFeT8yal8bW1lpG1VT9akT1pkGfljyOQvGtADH3jdnmOFc8zmfWHNfGbq7uCptxqxiSm8SsniWOM8drZUdm4n2AbIXtz8sEIj5Vq6h//ND0X8iiaYVl51X7Fs+oOBoJZKei7srA3/37tKVLR8viKTElec8Fo49fZ/Irk5RJXu+Qdr7iM5riuXN0CD/BmUgzksMnqp0sbvR8seuf+NOLf7+nyGbMsJRcO1YuPu9gG/MzgSR5/wMd3XJZNK2w7LxqX7O14gpFveOHZtTKoinDsfgz5bLjhNmqf0cWJeqfeD5cTFuMnVXM0ePrvUMNNNC5bEO8jJg9paxsjFxtwmJfTNOM9eKZ9H7iv2WRQYPty7sEcmJpxRHiN1PUP16ETbbKE2XxtMKy86d9cVaPOr7Tq859Bk7G7pKlUyJO3nAy8L5q2crQDN8EzRgvixPFZykpN6PTfRCdRXKjjNRDvNX6Z4vmuBqJZF9ZjX6JUREOpH4/9i+SiCwyaLDevEsgqOd9verdX/w5U5c8sOy8aV+cqM0XI3RFveOGGMHL4ikR3ypPbp16I4rx0V2KT9zTwM7yFM42OvfegQYncFb0N6z/skRGJEwgg8dsd5yKDie5/UIz7pXF0w7Lz4v2jU3jnsxIAIH9+TOx78tFpAQJIamJE3Gc3SyLEu1JdNboHMSN7629d5yhChwk7Tiw+nzblQlkcIi5rJAMfquod9zAbxeYZNcny0WkHdaR8+0rpgLB/vuqor59BsqslItIGY6JNaplxwuTbUFGLkVSjiu2GichefxStdMMdeBACWJHv2P69OmjZHX3wASSebE2tumNijr3E/o6FM/YJQ+sI7fbV9z30CoeUNS13zANdBbe2DddjA9Uy1aG+IxxHj/wQqnATmS26pejc+23Ax7yEDfxS+YfJmv+JSaQzJKXNJt71bXfwOgjbLbrZ8nFZATWk7PtWzxnjthvxQt8yX+mWtP/B4sYUGLuefw+qXd5XpNFiXDwlZSMxRniI+iYI8odJhtD039rsulFchNimEAyRJyhWvWL0bZJfh+iJ9A5ZXyuJKwnJ9tXXJZFvKuoYwKhd5ntRrlcVMrMWmWS7/IYN8qiNNyJ5GG26W8od5TUogsdzR9xULyOTv4nRZp+C/55qQj88zKL5rgN//9BcUkDO+Jf8HeSetpk90Ai+Ke5tOIEuSlMIBlQpJUfX2TTN4rOSlHPfiP2mG+aP7WqgnXlVPuKF2nRNg8jEj/z7x2a0RTvcm4ycGzepFx+nCiylX9LFqXhTLw3gc4UnYN6R0k4NP0LdNwrLXb94imz5h8sF58QU1nZAShXip34cRwQ/1Auv8/Q/1U8p2cOICaQ9Jg2belok738ArTl64gBjEpxhmzVL5eLzSisLxfat3BiacXJ2M8fReJI+C1zVYjyYllyuQOC4/dp1Trixfi5iw+URWm4ij1pZTNW9d45kgnsxH/Cznd1ur4wN37x4n3EdArotKrQyYdU61QGRjJFtvnHMIGkaMWKEZMvdBwlEjk6/YfRhu8PZGS4K3BS8JJYtlxLRmF9Wdm+4oSqSDO+Hfu+uab/EsdMWFGfZKPLpBnXyVUMGOqV8DftsW/8UxajYawQHcX92CFSuyyhGR+hc7hCjGDk8tKt0GStOA07dnXCHZmme3FGdkQ+JBCctS8SyTDdIc4cYzdM7fpZZs2xAJ3Z7WgL8eb/79F+6X3XRzPaxMwFcvMzDuscsvYV724Uz6k42lJScYrZ5pgjLwn9HPE22nXL7utOR+A3ezadL2SKEzDVelSB46tZFqPhyqI5KrHTJH9poqcz//nkDHySVK27EGduFyHZfbxXXVRh1V/EdvXbEWb9CETT/SIRpjvk76deZxpDJKRjZ1QcLTd9UGC9Q9m+QeV6MhGxJxBL0voILdoj4ZOH2KiShi9xvwA7/A7VztFXoMynYiZduZhBNcmuH4oksk5Vr1QiBy5h5Wygg3l3vLb4SLnZgwbrzvv2RWJ+ZdyZ6f0YV2z+OMW64oXZatwni9JwIx/XbVXtGH0Fdtw/WIb4q2NiqmrU/e6URk69ggkkI9GF32Ztuu6HJQvrz9v2xfEXMlv1Hwx0unaVItuiY1TrjBfiqUpZlIYbjCJuVu0UfYamvy2u78pFDLHuQrNWce1AkwgTSHoDo44d+E1uFE9vyc0ddKhHfravZvxDfHMFm5iR92jEVwyV640T+K2XyqI0nByvGeORDL5Q7RRxQzN+ZylZstcb30MtlggH9v4IE0h6QjyEUbPrMeqhhHrkVfvG7qtoxqPJPhafLCSEaar1xwuTTa+QRWk4wQ6Z7Id/PiyeXT5BFs82hajjI73rnGgwgQwwxAhQM1zYp86TmzfkUK+8aN/Y5SoxseEgXTJONoEghvwlTBpkE63GSdhRkpnrxm+x61n9reOem396i7L+/QQTSErRhXb7J5LGE+Jx1Ux91yNVqF9Oty+Oz08Qj8uZFQbtOxtMINQvHPhiojbVzqCMIs24UxbNauIsDdvW73sfvYMJJKEQU9KIp/XeEU/emOyOC46YWfk1uTlZB/XMufbtuaSsv1GkVehD9fBBsgnErFUskEVpOJh4fsUR2En9qp1BFdih3k3H/DqDxYRkp9qOvoIJRBFiOm9Nfw2//49jszLb9bOGqlNLBbYh+xOIpv8H7VyFP79vtjnOTeZrm5kiTsKUdY0T2D94E304wc56m2pHUAV2jrDJapwji+aEnkeTk/iWASLbEwjq91f8Kb6JnXKYbfqvYvcqFMtXhqb/I9M3bDMJ2zCo7asI8da5C1GNtn8FJ20PYz13YBS30KxVnq36/EA2EN81R92V7aQKnFh8RxalfDd9+opR2JF/o9oRlKHpa2XRnGK2GtcotydO5MAIZODXmWMfCdJfUyw7bqCze1CWzjmo/+C2b544ZM6c/RTtEz80/YeyKOW7ItuCqfjRE5rvCp1qaFLJgm/IojlFzLmEs+1/q7ZLFcMigcCk0sqJOBveplh+nND94lvnsnhOQf2ZQFKUzCVu/N3nZTHKd/ixv6feCfYOnH26B2vm1EzAtj6s2i5VDJcEIiSzD8QiNlle96A9BZQuqDsTSIrwm7+vaCNl4NhxyWKU7/CDJzxtSa6/IFRk00/HdiQ62ho2CWT89MX7IIm8p1hH3Jhoc1wqi+cM1JsJJEU4eWxStFG8eF8Wo3wmJiBM+PKFpm/J9Y/ExL6sqOl/U25frxhOCUQwW/V5+I0TfnMf+83HppmVh8viOQH1ZgJJEfaNXyjaSB3YjzL4GQfKFuIjNsodQBWa8aYsltMSPRCGWwIRlyaxzdWK9cQNs+Z4EiVz5lIW6swEkiKcMNyuaKO4MdHuyMl7pZQE7BTLVT++KsQEhbJYTjNbjStU29c7hl0CAfPsihNwopD4dx/EXEyljjNl8ayHOjOBpEh8pkHRRnGD74IMA+gkn1T9+KoQX/+TxXKaeIJItX29YzgmEEG8JKhYV/zQ9LfEp49l8ayG+jKBpGiitXwS2iTxT+1ipC+LUr7C2Wat8sfvHZoeHTc/vR+pGSriPg46yX7n/BquCeQkm3GQxab/XbG+eNEl3rGRxbMa6soEkqLYt3aSegze+KN4x0wWp3yEHeK3qh9/r9CMD2SRnGcpuXYsEuI/lNu5WwzXBCLEPmesXme8+Fx8a14Wz1qoJxPIAOC4SfwemWZExDtGsijlI5xpJvYdcZvRKovkg0KzmMJDvZ1fxnBOIAUF4g11o1mxzrhhtsZeHsvqG+qoJxPIACR7I71I05fJopSHCnFGkdjHozSjVpbJCxheNyi3c7cY3gkkdi9kWuwmuXrde4emR/H3s+bbHyqoJxPIAJjtC89CuyT0HlVP6NWyKOWb4jmX7ocDPtFpzlfLYnlBJAfFNu4Rwz2BCNg/nlCsN26gzd7N5ntlqCMTyACImYFxYvEvRVspA/vD9vFa2ZGyOOWTZBIIdoQ1slheYAJJjDj4cRaZcIchAvvUzbJ41kH9mEAGCCPNpCbftOTgjAWUgNgsvJqxRf2j7xlD0ZlmEhNI4tBhXK1Yd/zQ9C9M9rLjZPGsgvoxgQyQSXPoiraKG2ab3iiLUr7B2eKnqh+9d2DY+q4skhew3f3O68ME0mPatKWjsa63e627z0D7ZuWIFXVjAhmgKbMuOxjHRsJf+EQCCRXZKqfK4pRPcKD/UfWj9w4kkE9kkdwX+wZG/48vM4H8H1OJ/k1xk1xRh3jRhY5jtiyeNVAvJpA0QNus6tVWfYem/0wWpXyCH9ar/MEVMfmChYfIYjlNTPImEqJqG3cPJpA94WRjpaIOcQMJ5PcnZ9n30VEvJpA0sNj1UkV79RG6nzfT8xB+3J/v/WOro8hmzJDFcpp5bvmx2J5+H0VkAtmTyb7wOIzctirqETeKNMcdsnhWQJ2YQNJg+vTpo3B8/FPRZn2Efr8sTvkCZ+I3qX9sRWjGClksp5ltFXOU29crmED2hlHIzYp6xA204XYxh5IsPuRQJyaQNEn2pUL0H52WknKzLE75YJLdcYHyx1ZHc0F37n2Frjdsx329tksZTCB7E5ekLJqe2PQ3MpB0NmTLVyxRHyaQNBFT12BfSOgpzl2BY+plFM35PoQk04WVh+MA36H6sXsH/l7QPKv8WFk0N8VuoOu/VG1f72ACUSuy6ZrFlsQNdU2PiqnAZfEhhfowgaQRRhUPKNotbphtRlictMrilAcK0Rl0qH5sVRRl8UtiiZgw21GMxBBSbVvvYAKJo+cptjcV9YkbZpv+/rQs+EId6sIEkkaWCx3j0E5J3RdDEvnDlOll+8pFUK4zW/UfqH5oVWAU8kfxWVhZNOeI+ziq7VIFE0h8RTbDhPX7etWn79D0H8riQwb1YAJJMxxT9yrars9AP/KQLE65DqOKr+NHTXSCtC78/Ytk0Zwi5mhC/d/vtT1xgwmkbxi53q2oU/zQjE6TbcGJsviQQD2YQNJsyqz5B2OE+aGi/eKHuKxpN6xyEZTLYlOa2Ixf7/UjxwtN/2WufIFud2JOHtQ/4ZlEmUD6ZppRdgDa6K+KesUPzagtKysbKRcx6FAHJpAMwEnlJYr26y/+NVy/FyIeiS+y6afLf8194t6G4geOF+iEc2uCNDH6MCcx+hDBBNK/SXajHPVIYnpvMYKt0GXxQYf1M4FkxIoRGIU0KtqwzzBrxmZLiWN/uZBhQZxAYbs3iJcr0Qa3indq5P/KXZPnLTwEG7Sz9w8cL9AAn+bCF+h2Se06LRNIf2IHg82oV9QtfmjGB8fZjIPkIgYV1s8EkiGT7PpkHDMJz5G1W7yZi1c0UoVEu7zX9rvzYiSGA/vRXhvWZ6DjeB09yJBdjkgUznDOlNleuR3xggkkMUWzKqfioOj3G/O7B05AHpTFBxXWzQSSQeLb+Gi3ZEakscD+8NxQXtocLGat/GzViTr6ms/QduXZ8r5USkQWREeQ8CgE0YWkc6MsnpUsJUsOs2j6nxR17zeYQBJWaLYbDynqFzfQYQSHYoZWrJsJJIPE5Ri0W1KPeO8KHG9P5vITnv2JTQVkM/7We7u/DM2IoP99ZvzcxQfKIrnHZNPvV25cnMAoJCBeLJPFs8q4M2P3PZK7vLJbMIEkTlySQqL+j6KOcQO/TYN4gEMuYlBgvUwgGWYpmX8Yftv/VbRnIvFKNn/RMlXi+EByeFexvXsFTq7+aLbrZ8miuWXK/MsORkfwD9WGxQt0tNtN1orz5SKyQuyRXc1Yr6pvosEEkpxkn3ITMXGQH8bAOplABoF4NQBJJKEZLnoHOtrGfJq5VzytiD414VnPRaANQpaSHP2SIzagDBuczLcfepJIlkxRIIaASB5VqnomE0wgyZEztLYr6hk3cLb10WA+jIF1MoEMEnSA88WlSkW79htIPu/nw2OusamiUng6LXbPtmThKXIxOUZMVWHTX1RvWB+h6Z0mW8XiobwRNGGOoxj1SGiuq/6CCSR54iZhsp2GWXM8KYtnHNbHBDKIxD1ScW1f0bb9BjrenWar/h3xRUy5uJwy0bpwEvrR36i2rZ/oMtmN6+RicpOpbOkBOAv4s2Lj+o6eG0FPDsW8R1jvIiSPL5T1SiGYQFKDdntWUde4EUs4JQvOlMUzCutjAhlchclMlaQMzXCJR4Tl8nKCxWrYsV8n9Lnw3oFyK3Ph6dZ+iWknsEGf997AhEIz/iI/QJXxqZsxVJ6C9dUq66EIdHBr8Pc7Vf9v92ACSU3xnIqj0XafKerbV7wzGAcN1sMEMth6Jt9M+j2sPUP3F2nGXaYZSw+QS81K8mGSx5K9BbArkDyasu0rngNi1ipKxFBStbH9Rs9o5A35uGbaE0nsxSWr8RTWk/CkfqjPH8TjdPih+n3hiQkkdRarfr2ivn2H5rhaFs8YrIcJZEjE3lS/XfQJinZOOLCMD81245opZdk1m6+4zFakOXRx70ZV78RC/00uvZydMJNNr0CHm9LNMBGiLGKDSEYDfURPTANttjnmYEd8M3ajSbG+eCGShrgxVzzn0v2YQDJLvFmMs7DkPjxlMz4Roxe5iIzAephAhk6hxW5cmexxGyc+wAnHbcfNdhwllz0kxH4u+iP0FeLhkaRfoNwVKP/XItuiY+Ri84/4IBAO8KTeNlYFOu6P0FjPWqyGIaYELyjo+wuH46cv3sdsd5yKne4qlF8tOpney0wwusz28nKxTCaQwWEprZyZ7Bmn2ao/j6IZu+yJdTCBDDFTia6l615l7OqIZrwq3kUbzOlQTDMrD8d6b8T6f6+qVzIRW0aJY5xcdP4qspV/C432b1UjpBpyB/gdEoQHf65Hp70GSaIe/9yGwFlGatcSe0VYJCC5GUwggwjtvkpR77iB3z6cyXeKsA4mkCwgPuyG9k18BvBEAkkJ/cnLZruxsOfkNI1Pg5aVjTTZKk80acZ1ol/AetCnKOqQZGA5jeLFS7mW/Gey6UVowLdUjZGNgUQRlMnjy7NaJpDBY5m3yIx6JvnFOv1XYuQpF5FWWD4TSJbAWff++K2fwYnigO6LqEIe93/H8t/A8lcgqZSLy9fi/ucku35o8Zw5+4nL6buHuAE+Xlt8pOjjLHZ9usVWcSlOaH6E8lVYzsdprmcXlvn8Efl0wzxR4gaWmPtInC0qGiZ7Qnzw365fLKv9JSaQwYUD8nuKuvcZ+H0y8ulkLJsJJJusWDHCrFUsiHXQ6t8grSH6LKxrG+ITsc7dI3ZZrefpzJTvZSQW+k6z5rg2pydOTAfxmC4aPqWJCjMemvFr8+yKE2RV98AEMrjECQd+j78o6h83sF9ty8RNRSybCSQLiTN//OYvoxPPcOc9tIE+5X/EPV252SQmLETD3IqGSfa5/wyFeORYv7uvSyBMIIPPbKuYo6h/f7E63WdpWCYTSBYzlVacj3Z/p9fvkPOB5LjTojm+n8+zDQ9IbNp0m3EPzjTTepM90cDQNIAO/+Xi2Y5iWaW4mECGRCESe7ViG+KHpkfNWmWJLJ8WWC4TSJYTT1MV2RyLcUynOqNv1gQSRwh/rhbTmsjNo76Mi31g37gCB/9bg3GPBOv4BPF4sdU4SVahX0wgQ8NcWnEC2rTfGQB2D/z934t3f+QiBgzLZALJEbF7rVb9chzff8BvkVOXtmJ9n6ZXi7nhsCkZn40jHxVORKeOs87vYVSyWZxNqho6lcCP8zkSwKv45zKRDOT6EsYEMnRQ5/t6bUO/UaQ57pDFBwzLYwLJMWJEIl8erkWk/YmtdAZGHAH0eS+arAtPk9WndIjNESMmGLMZ/4Vksh4N/Xt00OK+SdwzC/z/EDr6j0QCwt9/3qxVXGuyVpw20DmTmECGjpwrKLnvzdiMHeLRSrmIAcHymEBy2KTS+RN7Tkpjsxxky6hEfJn110V2/RYxfbusKmUUkoCYNGzyvIWHWErKzeLJBHQU00QU2RZMLZ5dPkF8iEXeDE/rEFAsFwmk36lZhiKB9Hy5rKcd+gvxd2WxnDJBM8artqevSNeBORzadzgQ354R/QQSyffRebfFblIrjuFMheg/sI+8a7bqd4u5/gb7y5o0hGJnwYqdondgp9woixBR9ioUjwFb7HopTvr+GyMUDzr4T3H8ihvYymM7udCjSBY78OdvkLB+ZtEqKieVVk4c9u9xDFfH4wxYvaPsGdgJX5VFiCiHiBGBubTSIt5VK9L0ZRil3IvO/xdIBJuQCFpwfL+DZPPXXYH/L95TegdJR3w98E0c+0/gn2+PTSSL0aj4yqlcNA13YkqDXUmiz9CMR2URIiKi2Af/L1ImjL1C/54sQkREVFBg0vRb1AmjdzgulUWIiIhiX1l8Tp0w9oxJdscFsggREVFBodmm/0qVMHqHeNxUliEiouFOzNmFBLJNlTD2DH0n/jqnICAioh6WEscsdcLoFZrRJosQEREhgWiOnygTxl6hPyKLEBHRcCemP0BieE+dMHqF5qiUxYiIaLibZK08Hwmk31mBY/NkzVtklsWIiCglPTPf5sXNZIumr1UljN5htul/wF/nDXQiopQheRRpxnNiPhj5X3JWz8ydiX1LwKw5/lsWIyKiFBTijP3png5V3y7mj5L/PfcgEWI7anZPEvHCbDPCYnpmWZKIiJKyYsUIdKQ/2rNj1T+eaC3Pye/6iumXsQ2JfXxGM5o5TTMRUWoKLXb9NnSme3W4Zs343wmz5xfLv5cTzLMqLUh+n/TelnhhtpaXy6JERJQMs7Ximr7uFaAz/lDMjy//elaTn67drNoOZWjGby0lJWNlcSIiShRGHksSudGMBLLDrDkWyGJZadz8+V/BttSq6h8vTLaKC2VxIiJKlMWqX4zRReKfgESiwdn9g1Oml+0rF5E1LCXzD0Md3XvVuY/AttSjKB/dJSJKRpFWfjySR0ofpUfH+2tLycLpWExWdL7m2Y5Tkdx+p6prH7E1Vx8QICIaWmVlI5FAnlR0rAmFePQV8VLsQ/NDZNq0paOLNP2WFBJhl8VuXCkXQ0REyesW38kQSSSxx12VofuxjGcmWo2T5EIzTnw8P/aJ2uRHHbEQ9eVju0REAyVeuNOMe8X9DVVnm2iYxVxSmu4S719MnrfwELn0dCoUH3uy2Bw3yMSRUtIrshn1R9ntX5XLJCKiAcHZOEYSV+HMPKDqdJMOTd+CPzeZNOM68Yb3lDJx0z3JM35RpxLH/mat/Gyz5rgDy2xC4vDtta5kQtPfFsuUayAionQx2xznopP+t7LzHUho+hf48x38+ZrJpt9vsRq3mm3G0t4h72f8FKOZNajHr/HPKd3kVwWW3zBu1vyD5aYSEVG6Fc+pOBodbkJzSOVKICGtFO+IyE0kIqJMEU834ex/uRw5KDvl3Ahxg9+4qWD69FFy04iIaDCIR3TRCb+Bzji8d+ec7aH/Rtw/kZtCRERDoNBkrTjfohlt6o46u0LcNzHZ9O8dMbPya7L+REQ0tGLvjMzGmb3HovX/idjBDrNmbDfbjMcnz3YcJStMRERZRXw3xL7gVHTajyChfNi7Ix/sQB3+brbqd1tKHONkDYmIKNsdZV/61SKbMQOjEpFM/mTWkpiYMdUQLzxqxgdY17NFNl3jS4FERLmvUHzICcnEgY7+EbNmNKflKS5N32K2GR3482nxrkix1ThpOp+qIiLKf6aZlYdPtDu+Ybbq88y2iiuQCL6L0coPkAx+vCssmuP7sf9uNa7BP1earIZVvMHOF/+IiIiIiIiIiIiIiIiIiIiIiIiIiIiIiIiIiIiIiIiIiIiIiIiIiIiIiIiIiIiIiIiIiIiIiIiIiIiIiIiIiIiIiIiIiIiIiIiIiIiIiIiIiIiIiIiIiIiIiIiIiIiIiIiIiIiIiIiIiIiIiIiIiIiIiIiIiIiIiIiIiIiIiIiIiIiIiIiIiIiIiIiIiIiIiIiIiIiIiIiIiIiIiIiIiIiIiIiIiIiIiIiIiIiIiIiIiIiIiIiIiIiIiIiIiIiIiIiIiIiIiIiIiIiIiIiIiIiIiIiIiIiIiIiIiIiIiIiIiIiIiIiIiIiIiIiIiIiIiIiIiIiIiIiIiIiIiIiIiIiIiIiIiIiIiIiIiIiIiIiIiIiIiIiIiIiIiIiIiIiIiIiIiIiIiIiIiIiIiIiIiIiIiIiIiIiIiIiIiIiIiIiIiIiIiIiIiIiIiIiIiIiIiIiIiIiIiIiIiIiIiIiIiIiIiIiIiIiIKGsVFPx/KVKpoTDGgAEAAAAASUVORK5CYII=;" parent="1" vertex="1">
          <mxGeometry x="905.95" y="315" width="70" height="70" as="geometry" />
        </mxCell>
        <mxCell id="a8Lo-MuXTKm9hJjzGvLO-49" value="Microservices" style="text;html=1;strokeColor=none;fillColor=none;align=center;verticalAlign=middle;whiteSpace=wrap;rounded=0;fontSize=28;fontStyle=1" parent="1" vertex="1">
          <mxGeometry x="875.95" y="85" width="230" height="40" as="geometry" />
        </mxCell>
        <mxCell id="a8Lo-MuXTKm9hJjzGvLO-50" value="Observability services" style="text;html=1;strokeColor=none;fillColor=none;align=center;verticalAlign=middle;whiteSpace=wrap;rounded=0;fontSize=28;fontStyle=1" parent="1" vertex="1">
          <mxGeometry x="760" y="696.13" width="480" height="30" as="geometry" />
        </mxCell>
        <mxCell id="a8Lo-MuXTKm9hJjzGvLO-53" value="" style="shape=image;verticalLabelPosition=bottom;labelBackgroundColor=default;verticalAlign=top;aspect=fixed;imageAspect=0;image=data:image/png,iVBORw0KGgoAAAANSUhEUgAAAZIAAAHICAYAAABkl2xrAAAAAXNSR0IArs4c6QAAAARnQU1BAACxjwv8YQUAAAAJcEhZcwAAFiUAABYlAUlSJPAAADreSURBVHhe7d0JnBxlnf/xSUBEchASwmSOZAJBzXS8Q9Ld4RjXFcVbMx3x7+6Kusp6Qk9wFUiG1l11V2TxQvE+Vtd11VVcdsUjM1HUVTlUPNb1ZAXlEjkE5Ajd+X+fmV806TwzU1Vd3f1U9+f9en1fgaTreZ6qrn5+Xd1dVT0AAAAAAAAAAAAAAAAAAAAAAAAAAAAAAAAAAAAAAAAAAAAAAAAAAAAAAAAAAAAAAAAAAAAAAAAAAAAAAAAAAAAAAAAAAKBL1cqFv7D/BAAgnsqxfauqY8Xbx4uDG+yvAACIrjpW+GxtrLi7Wi5ecer69Q+wvwYAYE7zVUQucEVkT1RMvnZib+8C+3cAAGZW2TjwuL2LyB9zevGF9hAAAGamo49LfIWkOla8aqSn50B7GAAA+9tZypV8RWRPJku5M+yhAADsa2T58oU66rjWV0D2pDpWuKOycWDQFgEA4E92l4un+opHfVRs3mCLAAAw7YxH9C6olos/8hWO+lTLhRsrx6w6yhYFAHS7kaFDl7gv0n1FY6bo8TdX8kOrrQkAQDfTEcY7fcVirmi5i60JAEC3qowMuaOR+3yFIkq254eGrSkAQDeaGB1+ra9ARI2OSj5oTQEAus32/MCDVQju9hWIqNHRTG1y87pjrUkAQDeplotf8hWHuHFf1FdGhg62ZgEA3WD31vzzfUUhaVSU3m1NAwA63fYNK9fpKOIuX0FoJDs2r/sz6wIA0MHmVccKX/UVgkZTLRd+nMv1HGT9AAA60eRo7hRfEUgrk6PDZ1tXAIBOpKORH/oKQFqplou/3bKl5wDrDgDQSSY2Dz/ZN/mnnZ2ltS+yLgEAnaJSGFyqo5Ff+Cb+tDN1Ha5i31rrGgCQdcetWLi8Wi783DfpNyvVcvE2d8KjDQEAkGW1cuFs32Tf7KiYvMOGAADIqqm7HpaL1/gm+manOla49az8kb02FABAFlXLhfN8k3yrUh0rfsyGAgDImu2FwYdrIk98ifi0whnvAJBR7hLvvom91VEx+7wNCQCQFbXTiydUy8U7fRN7q6OCtqtWLpxiQwMAhG48v2p9CB9p1WdnKXeSDREAELD51bHCZb6JvN1x57KMDPVw3xIACNl4sf/PfZN4KKkUBp9rQwUAhEhHI1/wTeChpFouXqFhzp8eLQAgKBOl3Bbf5B1adpRyr7AhAwBCcXZhcKBaLvzGN3GHFnfGe23s2Efa0AEAAZinIvId36QdalRMbqqMDPHFOwCEYKI0/Fe+yTr0TJZyW20VAADtctyqQw/T0ciNvok69Gjcv3cfydmqAADaoTpWvNA3SWcl1bHCp2xVAACtduZxq9zRyC7fBJ2lbNu46khbJQBAK02Whv/ONzFnLdVy8V22SgCAVqmVC0+rjhXu8U3MWYvW4379+TJbNQBAs+0YHT5e7+Kr9RNy1jM5OvwMW0UAQDOpiHzONxFnPdWx4tdtFQEAzVIpDj4sxEvEpxGtV21y87pjbVUBAE0wT0cjX/NNwp0SFZOrRnp6DrT1BQCkaaKUe4Fv8u20cMY7ADSJ3q3/j2/i7bRUxwrX7d6y5QBbbQBACtxdDy/wTbqdmmq5+JlcrucgW38AQCMmSsMv9U22nZ6JUu4s2wQAgKSKvQuOqJYLt/gm2k5Pdax4VyU/tNo2BQAgidrW/DbfJNstqY4V3mybAgAQ16ZlyxbpXfm1vgm2W6L1v3mkb+HhtkkAAHFUy8V/8k2u3RYdlXzANgkAIKpaufhXnXCJ+DSio5Jabazwt7ZpAABzcffn8E2o3Z7tGwceaZsIADAbHYm80zeRdnu0XT5qmwgAMJPx4uAGuz+HdzLt9uwcXfdY21QAAI/51XLxCt8ESqbjLhOzfn3PA2x7AQD2Np5feaJv8iT7ppIf2GybDACwNx2NfMk3cZJ9Uy0XvrFlSw8XdQSAPdz9N6pjhY/7Jk3ij7bXF0aGeg62TQgA3W1idPhVvsmSzB5tt9faJgSA7lWZukR88QbfRElmT7VcvO3U9ev54h1Ad5sczZ3imyRJtGj7vdw2JQB0n+NWHXpYdaxwk2+CJNGi7XfrWfkje22TAkB30ST4Ht/kSOKFM94BdKXaafkHh35Rxmq5+CPlD75/Cy6nFTfYpgWAznfcioXLdTTyC++EGFB2ltY+R8XuPN+/hRaN8zdnFwYHbBMDQGfTu/yP+CbDUOIu2767XDzTjXVk+fKFGu81vseFFhXnT01tYADoZBObh0+Yvr+GfzIMIXp3/0Eb7pQdpbXP8j0uxExuXvdEGzYAdCZN0hf7JsCQUtm4KmfD/SMdlVzie2xo0fbdYUMGgM6zvTD4cE10YX/BPlb4TxvuPs48btVhGvvPfcuEFI3//sqGlcfYsAGgc9gZ7F/3TX6hxP1Cy92d0Ya8n52l3Em+5UKLisnlnPEOoKOcdHTPA1VEPu+b9ELKZGl4mw15Ru4Lbd+yoUXj/Or6vr5DbNgAkG2V/OBzfJNdSKmWC7+vjCxfaEOekbuDo2/5ELN7a/75NmwAyLT57qMW30QXSjS+O2qnbyraeOekojPpaye06CjwKneJfhs2AGTTZGnty3yTXEhxl7G34UZSKfatnSo+nrZCy8RobsyGDQDZ4y4mqAn3Vt8EF0qq5eL3k7xrrxQHH6Yjk1t8bYYU95EdZ7wDyKxauTjum9yCyunFF9pwY1MReou3zcCiYvL3NmQAyA73LlgT2G98E1so0dHSr07s7V1gQ46tcsyqo9xPhn1th5TqWPGGSn5otQ0bAMJX2TgwqEn6Ot+kFlJ2bh5+pg05sYnS8HZf26FFz8dN24orhmzYABA2HYl82jeZhRIdRVRr5WIqdxbM5XoO0vr+2NdPaNF6f86GDQDhch/3+CaxkKJ35xM23FTUtuZf6usnxGzf1P9QGzYAhKk6VrzQN4GFFHepExtuKjYtW7ZIxekyX1+hRUcl77dhA0B4KoXBjVMfG3kmsFCiCb8p9+yojAwd7E4A9PUZUtzzMzG6bpMNGwDCUcnlDtJEeqVv8golzT6nwk3QoRdSF22H77nCZ8MGgDCoiJzvm7RCiibQ99pwm0ZHPJf6+g4t2hbvtCEDQPvtGB0+PviPtMrFO303rErbztF1T/X1H2I01sfasAGgfdav73mA3oX/0DdRhRKN79bdp296lA256dTfZ33jCC06ivwf9/zZsAGgPSZLw6/2TVIhZXI0l8o5I1FVju1bpUn6Bt9YQstEKXeWDRsAWm/qroflwo2+CSqUVMvF29pxt8BauXCsbzyhRUdPN23Z0nOADRsAWkvvZl/gm5xCysTo8GttuC2nSfrjvjGFFh1V/rUNGQBaZ3t+4MHu3axvYgolOhr52chQT9t+5lrZMLTCHRH5xhZSNMbfcsY7gJbatmnlmmoG7sWR9hnsSewo5V7hG1tocQWvUhg82oYNAM2lI5G3+iajkKKJ8V9suG3lvp/JwlGJS3Ws+HYbNgA0T7F3wRGhH424n7We8Yjk9xlJm/uexjfO0KI3CLe6u1rasAGgOTTZ/LNvEgopoZ1od9LRPQ/UUcklvrGGFr1J+KgNGwDS5yZo3+QTUkKdCKd+Kj1W/LpvzKGFM94BNI0m6f/yTTwhpZIfeIQNNziV4uAzfWMOLTrq/E8bMgCkpzZWeJ4KyS7fxBNKNAF+wYYbpCxcTsZl6nkuF//Khg0AjXM/o/VNOCElKz9fnbrA5Vix5luH0DIxuu4JNmwASM6d0Kd3qD/3TTShREUkUyfUabwf8q1HaFHB+6n7oYANGwCS0bv85/ommZCiiflcG24muMvZ+9YjxFTyg8+xYQNAIvM1SV/hm2BCicZ357biiiEbb2bUxgqv0NjDv5viWOEyDXf+9KgBIKYsXN5jYkvuTBtu5qiQvMu3TqFlsrT2ZTZkAIiutrX4aE10QV/aQ+P7UaM3Zqqdns/bf8ZWKQwuddcds/+NbWTo0CXVDNy3pOquZHBaPtifVQMI0Fhh8EGa4G72TSohZXe5eKoNOZEzN/Qv03qeb/8b29TVfccK/2D/m4gm6b/3rVto0ThvfOVJR/PFO4BoJkaHX+WbTEKKjka+vWnZskU25EQmS8Pb1M5b7H9js0Jy3Ym9ya/rdXZhcECT9O996xhaJkZzYzZsAJjZtmP6V2pyvMM3kYQSTbzfa/Tdsfuoxk3gjRYSN55Gb561o7S2XL+OIcZtL1f4bNgA4KeJ9TO+SSSUaHzV8U39RRtuIpX80OrqWPH26fYK59lfx7ankGhMd9ZOK26wv45tS0/PARrPh/dez1Cjdf2kDRsA9ufODPdNHiFFR0uX2nAT02T4+r3aS/wdx55CMt1O8YZKLneQ/VMiGssv9rQXclwhtiEDwL40kb3HN3GElB2b1z3NhpvI+r6+QzTpX7unvbQKicvEaO7F9k+JTJZyf7N3e6FG2+wCGzIA/EltrFB2Hxv5Jo5QognsIhtuYprsx+vaTK2QaPtdP7J8+UL75yTmV8uFb+7dZojRNru/Vi68xMYMAHonvHndqG/CCCmavG6qHNu3yoaciJv41c4+PyRIs5C4TIwOv87+OZHKpv5HqZgEfZXlPWn06BBAB6mOFb/lmyiCyunFE2y4ield9Kvr2027kOio5LfuJlb2kETURjbuppjC91UAOsDE5uETfJNESFGh+zcbbmKVkeULNUH/bP+20y0kLjtLaxu60KHe6f+Zr93Q4j4K/XJpbUO/oAOQcVM3WioXf+SbJEKJisjtlU0r+23IibgTBlUwLve1Pzma+3t7WGwzFRJt019WNh692B6WSK1cLKmde33th5RqufA99/NlGzaAbuMueOibHEKKO1nPhpvYZCl3jq9tl3MKgxV7WGwzFRIXFcCrGj3zXoXkjb62QwtnvANdavep691tX2/yTQyhROO7I4XrO83TpD7jhRGbVUhcKvmVz7eHJlJZ33e4tsH9vrZDigrer3dXuNQ80FXcXe/04g/+C92JUu4NNuTEdpZyJV/be9LMQqJt/G09bN70o5Oplgvv9bUdWjTOTzd6JWYAGTJZylV8k0FI0cQ0WRjseZANOZFcrucgtTPrbYKbWUhcVAyfaw9PpDC4eGnoR457kuV7wwCIwV0GRZPr3b6JIJS4d/KVkZ4DbciJqWBu9bW/d5pdSKpjxavdfe9tkUR2bsk939d2aNHzdmej5/oAyABNbG/3TQIh5Zz8ypNtuA2Z62jEpdmFxGU8PzBqiySiAc53X9772g4tKiaZun8+gJjOyh/ZWx0r3OqbAEKJJsyfuu9wbMhJzdOE9k++9utTKQycbcvEFrWQaJtP2CKJ2eX9r/O1H1K03X/75/2LltmwAXQaTdIf8734Q8qO0toTbbiJTYwOP9vXti+V/EDiz/WjFhIXbfsLtUhDX7xPloZP9rUdWrSu77MhA+gk1Qzc0lXvZj9hw01s6gv2GJdjb1UhcWn0i3dH2+hLvrZDisboLv55hg0ZQCcYzw/k61/sIWY8v2q9DTmx8Y0rn+Fre6a0spCowP23LZpYpdD/eF/bIWZ7YfDhNmwAWaejkU/7XuihpDpWrOnP7TbchsR9x97SQuLu7th4sZyvguS93Eto0Tj/2cYMIMt2jA4/yfciDymaYD9iw21IknVtZSFxUdHcaYsn5oqR2rnP135omSytHbFhA8gid/5ClJ/AtjMa3y3HrVi43IacmLuUit4B/8DXx2w5pzD4t9ZEbEkKictEKfd0ayIxd1l9FeA7fe2HFI3xR5zxDmSY3m3/pe/FHVI00bzFhtsQtZPoAoeVwkDii0ImLSQqeF+0JhqiIvxBX/uhZbww+CwbMoAsqeRy7vIg3/G9sEOJJv8/VI5ZdZQNObHtGwceqXVNdFfBthQSjXX36cVnWjOJuS+zs/ARl8b4dXdSpQ0bQBZM3X+jXPiG70UdUtz9023IDdFE9WVf+1HSjkLioqOS+ysbVh5jTSWmYnyur/3Qoufo8ymcaAqgVTRJvdn3Yg4pKnQXpzGxTGwefrKv/ahpVyFxURH4ijWVmN2061e+9kOLuy+MDRtAyCrr+w5xHxn5XsihREXkxt2VkYYvyuiorf/y9RE17SwkLpXi4MOsucR2l4vB36DMRQXv1lPXr+eLdyB0k6XhV/texCFlojSc+JdSe9ueH3hwo98RtLuQqOi/y5pLbKRv4eHaDj/1tR9a9Ny/1IYNIETuEt6amIL+Sajelf4wrZ+Dqq3P+vqIk3M2Dr7cmostnUJS2LU9PzRsTSZ25nGrDlNbQf/U20VjvKXYu+AIGzaA0Ghivcj34g0letdc2zE6fLwNtyFqb3t9+0lSKfS/xJqMLY1C4qLJ9WJrsiE7S7mTfO2HFu2nnPEOhKhWLj7F96INKZowv2nDbUil2LfW136ShFBIplNI5QxwFevg71vi3lDUyoXH2JABhGDbppVr3BeZvhdtSJkYXbfZhtyQarn4Dl/7SRJKIVGR/Y27X4w1ndjO0eHgT0J10XP468qmlf02bADtphflJb4XayjR+NxlxU+z4TZk+6b+hzb6BfveCeeIZGo7vduabojeVEz42g8teh7/zYYMoJ12lnIl34s0pKQ1QTppfw8UViEp7Nq+YeU6az4x99GfttMdvj5Ci45Sn2DDBtAumjAu871AQ4r76M2G25DKxoFBX/uNJKRC4qJ36W+35htS25rPxt0Uy8Uv2ZABtMPO0XWP9b04Q4omis/YcBumthJdmHG2VIqDL7TmY2tSIbl5ZOjQJdZFQ3SE09DJmq2I3gjdn8YNzQAkcMYj3KUxiv/je3GGEvfxyrZj+lfakBuye2v+OBWS1M/Yr+RXPt+6iK0ZhcRF2+3N1kVD3AUxm7HN0o47qq6M9KRypQMAEbl3rJogvu97UYaUidHhV9mQGzL1mX+5cLevj0YTaCG5p1YuPs66achkaXibr4/QojdFO9f39R1iwwbQbJpkTve9GEOK+4hmrDD4IBtyQ9TW+b4+0kiIhcTFHc25o07rKrHKyPKFU4XJ00doqRQGnmfDBtBM2bjrYfG2tE44e/xRhx2qifAmXz9pJNRC4rKjtDbxdcD2pufjLb72Q4ue5+9u6ek5wIYNoFkmRodf53sRhpSJUu6VNtyGqWj+o6+PtBJyIXFHdcetOvQw6y6xTcuWLdIkHfyv+1zSKp4AZjB9tduwP6bQ5HdlWu8qpy9C2ZzvRvbE3Y7Yuout2YXERet/nnXXkMrIkDuS/Z6vj5Ci/ed2zngHmkhF5ALfiy+knFMY/AsbbsOq5WLTj74q+cHnWHextaiQ/D6te3jUyoVTfH2EFu3nf2dDBpCm2tbio6e+e/C88EKJJr2fu+9wbMgNOXND/zK9O73W10+aCb2QuEyMDic+12Vv7ldR2od+6esjpGiM128rrhiyYQNIg7tshibVu3wvupCyY3T4STbkhkx9wV4u/NjXR9rJQiHRtvhNpdibyj08do6ue6qvj9Cio5Kb3EebNmwADZqnF9WlvhdbKNFEt0t/vsDG2zAVzTfV99GsZKGQuLijvcLg4qXWdUP0jv8zvj5Ci/b7i2zIABoxvqm/6HuRhRRNTJfYcBvmznBu5Ud4WSkkUykXE9/NcW9Z2Kf2xP3AxIYNIKksvHucHB3+cxtuwyZHcy39QjhLhUT7wvdT+kWcjnKLb/D1EVo0zvfZmAEkMVlam4G7Hhb/xYbbsKkvg1vwBfveGc8PjFr3sbX8iETZWVr7Iuu+Ye658/URUjTGqjuCsiEDiGPqV0uB/8JG47vNTaY25IZNlIZTuQ97nFSKg8+07mNrRyHRNr/+xN7GL53iuPFXM3BnTY3xu6886egH2rABRKV35l/2vahCil7gF9hwG7a70jNf7V3n66eZyVohcUnzmlTaz97u6yO0uHHakAFEMbl53ajvxRRS9MK+PcUvQlVEih/29dPsZLGQVMuFb1a0zWwYDakUBo9We029ekAa0f5Rm9g8fIING8BsRpa7q7W29nuCuNH4bt6eHxq2ITdsopR7ga+fViSLhcSlWi5+Iq1L0UyWchVfH6FFR6w/XL++J5Wz/IGOpneH5/leRCFlYjT3Yhtuw+xs61/7+mlFslpIXNJ6Hk46uueB2u+Cv5uiy+Ro7jU2bAA+U3c9DPxjBnc0smVLepf6rhQGn+vrp1XJciHRvvI9G0rDdp+6/gFq70ZfPyHFjTGtj/WAjjSxJXem78UTUiZHh8+24aZChenrvn5alUp+4Mk2lNjaXUhcKvmVx9lwGjZZGn61r4/Q4j4KtSED2FttrDBSLRfv9L1wQoneDf44l+s5yIbcsBB+VKAjopNsOLGFUEhUiL+locybHlFj3PcP1bHCD3z9hBSN8SbOeAfqVDasPEYTwn2+F01I2bF53Z/ZkBs2dQvYcvFnvn5amawXEpeJ0dz/syE1bMfo8PHaF2u+fkKK3tTcsm3TyjU2bAB6Ufyr78USUjTpv9uGmwq1935fP61OJxQSbcuv2ZBSof3xG75+QouOTN5qQwa6WxZ+x693qFe5O+zZkBvmLnkRyrveDikkVf2Z2vcGOzcPP7O+jxDjjkqKvQtSubw+kGl6V/VF34sklLgJf3LzumNtuKkI6R1vJxSSPRnfuPJ4G1rD3JWGtW/e7+snpKiIfsSGDHSnidHhZ/teHCFFk8kHbLipmCjltvj6aVcqhf7H29BiC62Q6Lm6TMNK5Yt3RwX/nb5+QgtnvKOr6d3UFb4XRkipFPvW2nBToXX+iq+fdqWSH3isDS220AqJi46wNtrwGlbJD6329RFaVPAutiED3UU7/9/7XhQhpTpW/A8bbiqmbxkc1sclnVZIVKg/ZMNLhdr7pK+fkKL99L5aufAXNmSgO0yU1j7P94IIKZpAfuvekdqQU+GuDeVuXKVi8gtfn+1IpxQSvTG5WxPq+9K+z3ll08p+tXu7r8/QsqO09kQbNtDZjlt16GF60Qd9KQpNHDds27jqSBty6tyJb+PFwSeqn39TwXK/OPKOoxXJeiHRvvR/E6PDL0zzV3X1JkvDp/v6Di3an37qrhtmwwY6lw7Bx3wvgpCiyf31Ntym0/Y4pZ3FJMuFREd2/+1O7LThNI27qZT6avm9YpLknPzKk23YQGcaGeo5OKSPdXzRO9zfn10YHLAht8R4ftV69ftO93Gab0zNTBYLifahiyr5lU9v5bvvqe+3ysXf+cYTUjTGb2u4XNQRnWtyNBf8F+yTpdxWG27LuXuxuNvtaqJs2e1fxwt9ic+RaXUh0Xb5Ypq/yoprckvuVN+4Qov2oZfakIHOUtuaf7omgnt8O34oqY4Vrxrp6TnQhtw27nskTZgv0vb6b98400xl40DBuo2tFYXEfdHtbjylcQ5at+00T0eO3/SNM6RojLdUioMPszEDneGs/JG9mhSDP0t4d7l4qg05GNVy8V2+saaVkAuJ1v360K5yO54fCP420C5u27nvdmzYQPapiLzZt7OHFvdOzn38dtZxK5bb0IMwOTr8DI3tYiX1a5KFWEh0FHJlbazwitCeB+fLJ699iCbpP/jGHVrcr81s2EC2uUNsTQzBXyJ+72i8d2my+NzO0trnpHVf8DRsO6Z/pYrJe9PcniEVEr3h+KG7R4uaTu0yJ2nYePTSxZVC/7M1vk9l4ch6T9zHgu48GFsNILPmaUL+mm8nz0o0cf98x+jwSyojQ0tsndrO3YdC2/V1yi99Y46TdhcSbd9dmpw/YF/6B/VrI3dCqrbxP7kJ2Tf2LETj/4StDpBNlWL/Jt/OncVMvRPdmg/q1zB2c6yGCnU7C4nGfm9ta/Gp1lww3JsGFY/z9ZwH/eOQqEn7bH+gpfRCvMi3Y2c5ege9o5Er5qbNnUsxUcq9Utv6u77xzpXtxf5HW1OxJS0kKiC/1kT9pu35oWFrKgiVYu8R7hdieo6DvvJC3Gh7v8NWEciU+XoxZuIS3Emjifsm5a3uewtb57bThPE531hnS2VT/6Ns8diSFpKQbhE7VYhHh1+obXeJ9tmgb7CWNNpP76+NbXqxrTKQDe6EKN8O3YlxX3wrH3bXzmr3dY40GX7JN8bZ0o5CkvbFMJOobFyV09HHOXrubvCNsROzc3RdcB8jAjPShNbwl8BZjNb7isr6vsNtM7Sc3nle6hvXbOm2QlLJ5Q7Skce/+sbV6dH+8VXbDEDYdpZyJd9O3C1xH3m5y5y04+Mb9X25b0yzpVsKifsZrDuvolvf5Lho3auN/LgCaIlNy5Yt0s76a99O3I3Rtvj2jtLaZ2nTtORnrdWx4v/4xjFbOrmQTN3/ZfO6UR2BBHOP/HZHbza+G9K5UcB+NJGd79t5uz2ayH5cKxcqad+2t54K1zW+/mdLI9dkCrWQjOcH8trm53Xz0cds4Yx3BGv3qzas0LudjvjdfbOiyW1XbazwPNtkqdPEGfsy9I0UtwALyTy9mXmTr0/yp2gbXbu7wqXmEZiRoUOXaBL7vm+nJftGL+KaCsp/VfIDf+m2m23CVKiQ3+Hrc7Z0QiFx56PUysVxbdurfP2R/aPX6yfdnTptEwLtp52yqVeo7dRo4rtd2+7csx+zqs82ZWIVd+6OipSvn9mS4UIyz50Y6opykvUmUx9xvdq2JdBe7t2gJsO23nc863EfCSpfmCitfV7Sd4m10/K9vrbnStYKiRuv9rd3K8HfrTDUaNvdqeL775OltU+xzQq0n3bO7fU7K0kWvci/9pr1Rx1qmzay2un5YV97cyVLhaRWLr5cBTczV98NMdq/rq+Vj11nmxQIi7vPuTtUrnbYdYraEfdi13Z8Z5zb4NZO31T0tTVXQi8k05fOL56rd9BX+9oi0eK2n7vXzpkb+pfZpgXCVRjseZBdRPAyTQB85NVgtB0vdR9BuO9AbBN76Yhks2/5uVI5ZtVR1kRszSok7t7144XBZ2ndP64JMFP3sgkt2oZfHN+48njbtED22OfZH5n+2at/RyfRognhVk2qF8408dfKhZf4lpsrDX1fkXIhqWwcGNQ6vkn7yy2+5Ui0TB3RjhUuqBQGN9qmBbKvVi4+Tjv2Tb6dnsSLJol73dGHbdo/qm3Nb/M9fq6EUEj+dtOyRSogb9C6ZeIWtiFHr7PLVECW2qYFOktlpOfAidHhZ+vd5vd8LwASPe4jQ028V06Wcme4y9K47au/O9f32LnSzkLiPq+fLA1v0+R3ne9xJFq0/e5X/tvdybPdV6AGWmWeu5y1Jr5PqKj83vfCINHjPgZyX6Jqe17i+/e50o5CsrtcPFPjvljF8C7fv5No0fa7T8/7hyob+h9iTwnQfQqDi5fqKOW1ejFwTkCb0o5CQhqLjj5+6Irxto2rjrSnAoD76bBeHB13W94shEKSrehI7qNbtnD1XmBG48XBDa6g6AiFnw23KI1cnoVC0pro9XCnXhefmijlnq7NPm966wOY1fbC4MP1zusfq5yE1vS4YmCbPTYKSXOjAnLbxGju9e286yaQee66U5OjuVP0bux/fS800ngoJOFFb6C+fE6h/5S0rw4NdDX30+HaWKGsF9jtvhceSR4KSWgplG3zAmiG6S/li+e7z4z9L0ISNxSS9kdH3Ncpb61sWHmMbVoAzXbWcSuWn1MY+Bu9+C71vTBJ9FBI2hftv7+aLK19GScRAm1WKQ6eoBfkF30vVDJ3Gvkil0ISP9VyYZeOqj/sbsrFHQqBwNROyz9CBeUHvhcvmTmVkaHEX+hSSOJFBeQud90523wAQuQuYT85OnxatVy8xvdCJvuHQtL8aH/8vv58TeXYvlW26QCELpfrOWg8v/JEvYC5hP0coZA0LzpCvnzn5uFnalNxEiGQZe56RCoo7+anw/5QSNKN28+0v71xe35o2DYTgE6xu5I7SO8Q/9n34u/mUEjSi4rI1Y3ccRJANszbsXnd0/SC/5ZvIujGUEgaj/vVYCU/8JePP+qwQ23TAOgGlcLg0ROjw6+rdvltXSvr+w6xTRJbNxeS6vTNxf6D29kC6Nl49NLFk6O513TrT4d1RHKwbYrYurGQaD/51Y5S7hXczhaAV22s8NfunaZvAunUUEiiR0cgOysjyxfa6gOA39Ql7McKH1dBudc3mXRaKCSzR8Xjvmq58MHKxoHHcSY6gFjcdwc7t+Ser6LS0Zewp5D4ozcSt6mIXNjIHSQBYI/5E6PDz9a70os1ufzBN+lkORSSfaPiceWO0tpncTtbAE2x+/RNj9IRyk2+CSiroZD8KXpuL9BqcRY6gOZyl7DXu9Y36OikI67npVVKPHF2QiFxH2FN3c622LfWVgsAWme8MDiiiehLvgkqK7FVSSTLhURvBn46URrezu1sAQTBnZSmient1bHCdb5JK+TYKiSStUKi56jmvusazw/kbRUAICyvWX/UoZqovumbxEKNDT2RLBUSFZH79OcLbOgAEC53CfuJ0dyLdXTyVRWV4C9hb8NOJAuFRM/B/7nb2boib8MGgOxwV4JVQXmPco9vkgshNtREQi0kroDrCGTnxOjwCzmJEEBHOLswOFAbK5Sr5eIVvomvXXETrg0xkdAKibbvvcq73T1obIgA0HHmafJ+m28SbEc0lrttXImEVEhUQK6pnZ7nS3QA3aFS6H+8Jr4PaSJv6yXsO6GQVMcKl0+ODj+j0tMz34YFAN3DXcJ+YkvuTE3oN/omyWYnq4WkOnU728JHJzeve6INBQC6W2Gw50GV4uAzNTl+WkcqLbuMfdYKibbN7yZLuXM4iRAAZlEb2zSqCbMll7DPUiGpjhUuqmxa2W9dAwBmU9nQ/5DqWPG1mjybegn70AvJ9Jnoxc+NFwc3WJcAgJjmT5aGT9aEepVvom007rsG6yeRZhUSFdBfKW+u5AceYV0BABo0b/vGgUfq3fm5mmDv8E2+SaK2brX2E0m7kGj9fraztPZF7uoA1gUAIG210/IP1pHEtb6JOG5CKSRan7tq5cLZjdwbBQAQg/vVUqUw8Dy9g2/oEvbtLiTuOxqtw7u2FVcMWZMAgFabuoR9ufg5JfbPhttVSDTWK9wlY/gVFgAExF3d1l3lVu/y/883efvS6kKisX1jx+jwk2xxAECIKuv7Don6kVerCsl0cSucZIsBAEI30tNzYCW/8jgVilkvYV8dK95giyQyVyFR+zdzO1sAyDh3CXsdobxFBeWm/Sb6cvF6e1givkKi4jF1O9tzigNbRpYvX2gPBQB0gHnu+wlN9F//46SfYiFR8dilYvWpyqb+R9k/AwA6Va1cqKRZSFRAvlorH99nfw0A6AaVjQODOkJ5if1vIu6XYtzOFgAAAAAAAAAAAAAAAAAAAAAAAAAAAAAAAAAAAAAAAAAAAAAAAAAAAAAAAAAAAAAAAAAAAAAAAAAAAAAAAAAAAAAAAAAAAAAAAAAAAAAAAAAAAAAAAAAAAAAAAAAAAABaY97Q0NDBWY7W4YHTqzKng3zLR4ktP5sDfMulGfURdT1bIfF+o2UPmm6iqR7g6ztqtPyB083MKnEftvxMEu9LWrYV23ZvibaBLYtOceihh64+6qijdmc8V9vqzEqP+0rdcpGj7bTEmvE67LDDXuJbrhk58sgj79Oftyj/p1ylfEF/d6H+rCxZsuSvNJZ1GtIB0yNrDm2PR6k/7/jmisa605ppCm2DIfXzu/p+o8Zt3/7+/k3W3Iz0uIt8y0fJ8uXLV1gz+9G2fb5vmSjRmHbp+X+YNdV06u8S3zjmii2OTkEhiZaQCkmU6AX+a/15nvJgG2KqQi4kav/Dvn6jxi1vTc1KjwuukFjOs6aaTtuAQgIKSdRkrZDslfv1Yp/UO+wXLFy4cLkNt2GhFpIjjjiioPbv9fUbJVr2t3ouV1lzs9JjQy0kt6qZhdOtNZe2AYUEFJKoyXAh2Sd64U8sWbLkeBt2YiEWkmXLlj1Ubf/K12eUaNldfX19T7Tm5qTHh1pIdq9YseIfrbmmUl+X1vcdJbY4OgWFJFo6pZDsiSbBT2jMiT9LD62QqAAcr7bvru8rRn6jAvtIay6SkAuJxnavstGabBr18X1f/3PFFkenoJBES6cVkj3RRLDFViGW0AqJ2rzc11eMvMSaikx9BltIXDS+O9Tc/OlWm0N9UEhAIYmaDi4kd/T29j7VViOykArJihUrnufrJ2o0nsvVTOyfVmu5oAuJi47UXmTNNgWFBFMoJNHSqYXERZPBLk3Gm21VIgmlkLiP59TmnfV9RI3GcrP7ubA1F0sWConGeKOabNr5R2qfQoKOKSQ/ttWZlR5HIZk5d69Zs+aVWpV502s0uxAKyeGHH96n9v63vv2o0ThifbleLwuFxEVvEsat6dRRSDClEwqJdua/s9WZlR5LIZkjWs/H2SrNqt2FxJ0drbaurm87Zl5gzSWSlUKicd5sTaeOQoIpHVBIfrdgwYJeW51Z6bEUkrnzFa3OnEcl7S4kauNcX9sx8l5rKrGsFBKX/v7+p1vzqaKQYErWC4n7otVWZU56fKiF5Cd6QX52llykuBO/3KVQvqb8SLm9ro3U0tvb+2xbrRm1s5D09fU9Q+3U6tuNGvV/hZpp+HpPaiczhUT5XzWd+i+4tA0oJJjywKVLlxbaEe2Eb/LtZBFT1fJn2DpEomWCLCRaj3+wZmJZtmzZInfug4rpS9XGJco9vvbjRu1837qYUbsKifo9Um2464x5254r6vtmtbHammuI2spSIXHr/g01n+o12Ny+4utrrtjiQGPswnrenSxivmRNRaZlOqqQ1Dv66KMXq63P+PqIm0WLFs16ja52FRIt/7H69mLmTGuqYVqPTBUSF+2nJ1s3qaCQoK20M72vfueKkZrehZ9gTUWm5Tq6kJgD+vr6Xq02d/n6ipre3t6XW3tebSgk87TcGYq78rG33bmiZf9d7aR2DSq1l7lConzBukmFtgGFBO3R39//eN/OFTXaed9lTcWiZbuhkEzRNn6a2k188UJl1iO+VhcSFcezfG3FyPutqdRoPbJYSHYvXbr0ROuqYdoGFBK0xULtSL+s37GiRjvur9TGoumm4tHyXVNIHJvsk96X4y4dlSywpvbTykKicTxWy91f307UqL8r1UzqN1NSu5ksJMp3rauGaRtQSNB62okST7gu2nG3WlOxafmuKiSO2nY3vPL2GyFPtmb208pComW+W99GnGisj7WmUqX1yGohcd+VzHnjrii0DSgkaK2FCxcerh3vZ74dK0q07OVzTeizURtdV0jcxxi+PiNmxhsktaqQ9Pf3v9DXRox80ppKndYjs4VE+Zh11xBtAwoJWkcT2qB2usT3ilAuUzMNXTNIbXRdIZED1H7Sc06usjb204pCsmbNGncxxj/ULx816uezaibRx6BRqP0sFxJ3Hs7zrcvEtA0oJGgd7TwX1+9MUaOd9d4lS5Y83JpKTG11YyFx6/3V+j6jROPapcW9J7E1u5C4c2N8y8bIB6ypptF6ZLmQTEX77bHWbSLaBhQStIZeGI/x7UwxksrHE2qnKwuJ2v9XX79RoiPJxdbMPppZSPr6+g7RYxo5c/9uje8wa65pNMbMFxKloYKrbUAhQWtoZ0t8kpyW3aUX1qOtqYaovW49Inl/fZ9Rs2jRomXWzD6aWUj0mPPrl4kTHc3EuuJBUlqP0ApJksvG/GHBggVHWNexaRtQSNB87rpNvh0pRt5oTTVMbXXrEcm7ff1GyUyTTLMKiYrAZt8yMfIpa6rpQiskGs8PlNgnbGqZ91jXsWlZCgmaa9myZWu1o93o25GiRMtepGZSuymP2uzWI5KP1vcZNa38aGvNmjUn6d9vq3981Nj+0rQv1+u5/nzjiJImHZG4/fuddX8XJVX3WrXuY9E2oJCgeex+EdfX70BRox3UnXiY6tVK1W63HpG4Kwd7+54rWtx7kb+0C4mbyHyPjZHvWVMto/UIrpBoP3R3jPT926xJug9qOQoJmqfRS1po+RdbU6lRu91aSH7o63euaLlfWxP7SbmQzNffJS52WtbdKnjE2moZ9RtcIXHL689L6/5+zmhdbl68ePHSqQHEoOUoJGgOe3d5d/3OEzXaOSfUTKRbvsahtruukGjch6mPpJcXmfGktTQLiYrAuO9xUaPlX2VNtZTWI8hCsnTp0rz+O8kX79e57l0bUVFI0Czu3eU3fDtPxNypF9JR1laq1HbXFZL+/v4X+PqMkjVr1jzDmtlPWoVE4/tz/V0j19Fy34u0hevbN6YoaWYhcfTfn6z7t0hRUX6LNRGJtgGFBOlr8JIcLg3fAnUmarvrConaT3QiqMa0y33PZc3sJ61Cov/+ge8xUaPlP2JNtZz6DraQqI0/8/x7lNxtTUSibUAhQeoO0E6SeLJWbjn88MMfYm2lTu13VSGxX0El/Yhx1i+vUygki/Tf/1H/bwlyp7b9yulRtVbIhUTca/FTdf8eKToqOcXamBOFBGlboJ1qwrfTRMx1egGlcgvUmaiPrikkmgxG1Xa1vq8YmfX8nUYKifJVrfMnPH+fNE27MONsAi8kjvuY+XLP4+aK+67kAdNNzE7tX+lZfs7Y4sC+tEO9zbfDRE1fX9+Mn8enRf10RSFRESmp3cQXO3TR+jzMmvNqsJCkHvddiw2tZTJQSFxbj/M8bs7o9RjplsTaBlf4lp8rtjjwJ+4yGtqhEt/aVct+35pqKvXV8YVEbT3F10fMXG3NzSi0QqL1/k8bWsuoz+ALiaO/v7rucVFygy0+Kz3uW3XLRYotDvyJdow31+8oceIuo2JNNZX66tRCcojeQf6F2vqc2rqnvv24iTKeAAvJfatXr27JfrRHaIVE4/maNbEP9/No3+Mj5B3WxIz0mNjnrLjY4sA0FYGN2jEa+fnmZ6ypplN/QRYS5b3u3Ju54j5uWrx48TH688lLlix5ubbdm5TPa/k769prJLfMdKHGvYVWSPZEk+YJNsSmC7CQXG5N1HuA/u0a3zJzxX1Mam14qd0dvuXmii0OTJ14uEg7UuKfb2rZX8z2gkqb+gy1kAQTTRx/Y6s0q1ALieJuxuW9rEvatP+GVkh+YE3sR8/rX/qWiRD3MeeMlyrSvyf6ebktDjT2QtKy965atepIa6ol1C+FZJboOfmGViXS9c0CLiTuhwJPtGE2VWiFRPmJNeEzT+P9rWeZOaPxbLY29qM2P+tbZq7Y4uh2KVwe/p+sqZZRnxSSmfOtma706xNyIVG+aMNsqtAKicbzC2vCS/voOj0u9q/51O6MP2SgkCAx9xm6doYb6neOqNHO93M1c8h0a62jvikk/vwk7s2NAi8k7uerz7KhNk2AheQaa2JGK1asqPiWnStLliw53prYB4UEiWlH+Fj9jhEjNR3NPNaaain1TSHZP1cdcsghfbYakbWgkFQ1SSU5mW5Prk5yNds4QiskyvXWxGwO1rhjf8SlZSZt+X1QSJCIXpxrfDtGjFxqTbWc+qaQ7BVNAtcefvjhsYuI0+xC4iaokZGRA/XnTb5/jxIt+1823KZQ+6EdkfzWmpiVHvvG+mWjZM2aNUVr4o/c8+R77FyxxdGttON8yLdjRE1fX98TrKmWU/8UEkXPoTt59I16LhJ/vNjMQqLx3b5s2bKHun5WrFhxju8xUaOj36dODbgJNM5MFhJ3PTs9PvZP9l379T8N199RSBCLu27Pub6dImLuXr169dOtrbbQGCgkOiLUujzGhp1YMwtJ3fcbD9J+9yvf46JEy/5MbaR2u+a9qe3QPtr6nTUxJ439Qs/yc0bLvc2amKL/p5AgOr24T/PtEFGj5SNdu6eZNI5uLSQ3aPu/zp3UaMNtWLMKiSam/c6q7+/vP9n32KjRUc02aypVARaSW62JOS1cuHC5Hv+7uuXnjNb5Po3vjz/bp5Agjvl68hv5ldbvZ7u3RatoLN1YSD7Q29u7wIaZmiYVkh+r6YOme9jHPP3b9XWPjRztfzepjUjnx8SR5ULi6DVZ8LQRJa+3JigkiE7v6F7q2xmiRsuPW1NtpbF0eiG5VblMOV/jeZIS67apcTShkFyld8mHW/P70RHV2Z5lIkf7YOR7bESV9ULiaJkv1rUxZ7Te12rRB7nlKSSIRJPRSu0sv/ftDBHjLlkR6d4GzaaxBFlItH2/o1wYMW9R/sFNrEuWLHmZ+j1ZKc41vrSlXEhudb8GtKZn4n62utOzbNRc7/ZlaysVGk/mC4n2oUdqudj3d9f+d5ZbXtuAQoK5aUe5xLcjRImWvUcvivXWVNtpTKEWklTvR9IKKRaSan9//9Os2bkcpMd/r275OLl+2bJl/dZWwzqhkDha7qN17UTJbUuXLh2mkGBO2kle7tsJomb16tUvtqaCoDFRSFKSViHRusc618PtU752okb9vc6aapja6ohCon13k6etKPlJ0m1gXaPT6d3GRu0k9/p2giiJO0G0gsZFIUlJSoXkBu1nOWsyqsVuubp24uQ3amPhdFON6ZRC4mjZ79a1FSnaBr/2/f1csW7R4Q7SDtLI5eFv1wQxaG0FQ2OjkKSk0UKidb5SbRxmzcXS19f3Il+bUaO+32RNNUTtdEwh0ev1RE97TYt1i07mzjnwPflRs2LFipdYU0HR2CgkKWmwkNyi5VdbU0m4k2Ov9LQbKVr23j1nzjeikwqJo+X/tq69psW6RKcaHBx8kJ7ou+qf+BhxF45L/Tf7adDYKCQpaaSQaH13WjOJqY0X+tqOkQusqcQ6rZA4auN/69psSqw7dCp3FrDviY8aHc2cZk0FR+OjkKSk3YVEFqqd7/jaj5hb9Jyts7YS6cRC4j5N8LSbeqw7dCK9MLYo9/ie+Ih5s5oJ8mjE0fgoJCkJoJD0aDJeqPZ+Ut9+1Ggcty9evPhoay42Ld9xhUTcnRR/6mk71Vhf6DS9vb1P8T3hUaOd70PWVLA0TgpJSkIoJI47B8XXR9RoLDPe/W8uWrYTC4nr/5metlONdYVOoyf3m/VPdpxEODO57TROCklKQikkjtr8ZX0fceIuq25NxdKphcRRW7fUtZ1qrBt0kr6+vif4nuyo0QvqX6ypoGmsFJKUhFRItP+e7usnajSeC62pWDq5kDT6y825Yt2gg7jPma+uf6KjRi+mm2a72F5INF4KSUpCKiTyALX74/p+YuR+rU/se7R0ciGRg9Ve4u+f5or1gU6hJ/WC+ic5Tvr7+59jTQVP46WQpCSwQuJ+bfQkX19RozF9Q83E+qFIhxcSd5l5V0x+U9dHKrEu0An0hD5MiX3LzT3RC+ke5cMhJMp3NBozhSQloRUSR+0mvsCoi5Y/w5qKRI/v6ELiqM3xuj5SiTWPrNPE5y4Pf63vSc5ili5dWrBVm5EeRyFJSYiFxN1PXG1f4+szSrTsPUuWLHmENTcnPb7jC8nBBx88pPW8z9NXQ7HmkXXaOT7ve4KzGgpJa4VYSBz3Uauvzxi51JqaUzcUEqevr+98T18NxZpGlr3tbW97tu/JzXIoJK0VaiFx1P7Xff1GjSbO51pTs+qWQiKHal0bubndfrF2kWVvfetbK74nN8uhkLRWyIVEz8XJvn6jRuO73JqaVRcVEreub/f0lzjWLLKMQhI/FJJ9hVxIxP3aKPFP2l1WrFhxgrU1o24qJBrTY9R+ta6/xLFmkWUUkvihkOwr8ELifg68xdd3jFylZh443ZpfNxUSR+s7qj5SKSbWJLKMQhI/FJJ9hV5IHPX1+vq+40TjdOeWLJhubX/dVkgc9fH+uj4TxZpDllFI4odCsq8sFBJHfSW+06fLkiVLTrGm9tONhURje7Sn39ix5pBlFJL4oZDsKyuFpK+v78W+MUSNxvodNeM9470bC4mjfr5d12/sWFPIMgpJ/FBI9pWVQiLutryN3ADLffH+UmtrH6EVEo3nGmuiqXSUNuLrP06sKWQZhSR+KCT7ylAhcV+8NzTxabw3u7Pmrbk/Cq2QKF+xJppO6/6fnv4jx5pBllFI4odCsq8sFRJH/X63fhxxojFvtab+qJsLiY5Knu7pP3KsGQAAAAAAAAAAAAAAAAAAAAAAAAAAAAAAAAAAAAAAAAAAAAAAAAAAAAAAAAAAAAAAAAAAAAAAAAAAAAAAAAAAAAAAAAAAAAAAAAAAAAAAAAAAAAAAAAAAAAAAAAAAAAAAAAAAAAAAAAAAAAAAAAAAAAAAAAAAAAAAAAAAAAAAAAAAAAAAAAAAAAAAAAAAAAAAAAAB6On5/1lMqgiwoQOJAAAAAElFTkSuQmCC;" parent="1" vertex="1">
          <mxGeometry x="647.28" y="734.63" width="80" height="90.75" as="geometry" />
        </mxCell>
        <mxCell id="a8Lo-MuXTKm9hJjzGvLO-64" style="edgeStyle=entityRelationEdgeStyle;rounded=0;orthogonalLoop=1;jettySize=auto;html=1;exitX=1;exitY=0.25;exitDx=0;exitDy=0;entryX=0;entryY=0.5;entryDx=0;entryDy=0;strokeWidth=4;" parent="1" source="a8Lo-MuXTKm9hJjzGvLO-55" target="a8Lo-MuXTKm9hJjzGvLO-6" edge="1">
          <mxGeometry relative="1" as="geometry" />
        </mxCell>
        <mxCell id="a8Lo-MuXTKm9hJjzGvLO-55" value="" style="rounded=1;whiteSpace=wrap;html=1;fontSize=20;fillColor=none;strokeWidth=4;dashed=1;" parent="1" vertex="1">
          <mxGeometry x="585.95" y="150" width="170" height="400" as="geometry" />
        </mxCell>
        <mxCell id="a8Lo-MuXTKm9hJjzGvLO-59" style="edgeStyle=entityRelationEdgeStyle;rounded=0;orthogonalLoop=1;jettySize=auto;html=1;exitX=1;exitY=0.5;exitDx=0;exitDy=0;entryX=0;entryY=0.5;entryDx=0;entryDy=0;strokeColor=#000000;strokeWidth=4;" parent="1" source="a8Lo-MuXTKm9hJjzGvLO-56" target="a8Lo-MuXTKm9hJjzGvLO-8" edge="1">
          <mxGeometry relative="1" as="geometry" />
        </mxCell>
        <mxCell id="a8Lo-MuXTKm9hJjzGvLO-60" style="edgeStyle=entityRelationEdgeStyle;rounded=0;orthogonalLoop=1;jettySize=auto;html=1;exitX=1;exitY=0.25;exitDx=0;exitDy=0;entryX=0;entryY=0.5;entryDx=0;entryDy=0;strokeWidth=4;" parent="1" source="a8Lo-MuXTKm9hJjzGvLO-56" target="a8Lo-MuXTKm9hJjzGvLO-7" edge="1">
          <mxGeometry relative="1" as="geometry" />
        </mxCell>
        <mxCell id="a8Lo-MuXTKm9hJjzGvLO-61" style="edgeStyle=entityRelationEdgeStyle;rounded=0;orthogonalLoop=1;jettySize=auto;html=1;exitX=1;exitY=0.75;exitDx=0;exitDy=0;entryX=0;entryY=0.5;entryDx=0;entryDy=0;strokeWidth=4;" parent="1" source="a8Lo-MuXTKm9hJjzGvLO-56" target="a8Lo-MuXTKm9hJjzGvLO-9" edge="1">
          <mxGeometry relative="1" as="geometry" />
        </mxCell>
        <mxCell id="a8Lo-MuXTKm9hJjzGvLO-56" value="Authentication" style="rounded=1;whiteSpace=wrap;html=1;fontSize=20;fillColor=#fff2cc;strokeWidth=4;dashed=1;strokeColor=#d6b656;horizontal=0;fontStyle=1" parent="1" vertex="1">
          <mxGeometry x="645.95" y="270" width="80" height="240" as="geometry" />
        </mxCell>
        <mxCell id="a8Lo-MuXTKm9hJjzGvLO-66" value="API Gateway" style="text;html=1;strokeColor=none;fillColor=none;align=center;verticalAlign=middle;whiteSpace=wrap;rounded=0;fontSize=28;fontStyle=1" parent="1" vertex="1">
          <mxGeometry x="580.95" y="80" width="180" height="50" as="geometry" />
        </mxCell>
        <mxCell id="a8Lo-MuXTKm9hJjzGvLO-68" value="" style="shape=image;verticalLabelPosition=bottom;labelBackgroundColor=default;verticalAlign=top;aspect=fixed;imageAspect=0;image=data:image/png,iVBORw0KGgoAAAANSUhEUgAAAGQAAABkCAYAAABw4pVUAAAAAXNSR0IArs4c6QAADPBJREFUeAHtnHl0VNUdx1N7erqe9o8u57S2eoQqCMLMm5l3H6lk5s3MWxNCFAiRRPaEbBAWWRIgIUSRsBgCKYiGBCEii4CBAhLZQQwKsojYWOtylNZT4LjU2mqr/Hp+dzZeSCZvRmYS4s05v/MmeXfue/l+3u/e+/vde19CAvthCjAFmAJMAaYAU4ApwBRgCjAFmAJMAaYAU4ApwBRgCjAFmAJMAaYAU4ApwBRgCjAFfAoIuv5bImvppk3R72PaxVABQVKHElkD86Z+HMPbYVUHgNgq68BS1xQ0a+0e4FdsMRjJGAVEZkBi+tQEgFjX7IF+DUeC1n9TMzj2vWMwfmwhAxJTGgkJCQxIrBWOsH4GJELBYl2cAYm1whHWz4BEKFisizMgsVY4wvoZkAgFa13c4XRynFt2RWs2URrAe1N6BE3RCjAoZMPe1kqb/N2aJH5iGeiCaM3qdLcZlfMj88BRWByyvBlARk4wGJ+SFtc4RJDUNF7RlqSnp3/XpDzxL0aBuGW4s6TKYL0nl0Of/OKg9R090QetrAaslWtD9vBq4IsXG4woOtxTOBvumrs8aL1mL4V+RaUGc6Slxw1IopTcj0jq5zSlI+l/SkxM/2H81TZxRQTSTxkEt1VtNtgdtU3Qs+Fo0O6s3kKB9H/6aDD6xkjcsuVlQ/SN0ThRk6HnonWG+m5fsT1YV6BeLisnLkDQI3hZeY3IOpAxE6lH85J21C5JPzMhUXyLfBuA8IqehZ4hTHsEhB0tQKY+7GtmJfWEKIo/iK/iHVzt2wCEyMpuoiSD8MwrIOx402cPLQz0fes7kCi+p7s7EGyWiKR+QcZPCcGgUFpAyJnuh6Jmx1f1MFfr7kB4ryrRjrxsZSsgb4Kw6TSQtOHAS+qndlX9dRiZ4nequwMhspZL+4+aHdcDQU9Z1ODvT7Sq+Kke5krdH4haSYHUH24bSOOfgaSPRC/5Z39F+XEYqeJzqrsDEWR9KQWy/qW2gaCXlNZQL+ElbUjMVLckub62DHRdNWFgwcCweKnBeheVQZ+8mUHrO7rQHxguB8vCuqBxFauAn1VpMBoYFpRA7znLQla8BPpPmmswx+BhKMRVXlI/MmOJqvr7SAUjst9D1h1rH0j9YR8QWa8O1M/p+i+D6SBvSg+7mPqLwLmojpYkETDgu3t0YdD6jiqAfkOyjKalgcXpAWvuTKONzANrxtiQDRlBgfQZkROsD+u+Z2Q+2EaMMxgC4ccUgGPS3JAVzAJ+VJ7RUtLAjveTMzVk2VMNdWHdjsFDqWAOTesVqRiCopVQD1m5q30gz70BRE0BXtLe4WVtBy+rH+B32rArRNEaBUkdK+j6TyO6FwTSa8IMQ7R82/Kt/mj5SDBq7l28BCx6miH6xgjctvO8IQK3rz9Egdy+bIuhzttrGoN1BSJw/OfMJhd7lSw11IcZg0A9gWP/KfOiB+JfBSMsqGsfyI43gaT6oOO9k8wcEIrmgVC8FEjpChCKlwCZVEr/TqN9WcM+5yNe0ebaU1N/ZApMeCChlEh3B5LoGXQrfdJzZ4QFQmOSxzaBsPW18OU2nQKh4kkgQzL9zZzSzICYUiBUyKGo50hyWsdiB6J4E0cy3Rfp84pWELpSmE/MQ0LiCLJaSL1kTnX4p98ECEy9kCf2AjZdvFc7a7fbvxe6UphPDEhIHIwviKS9T72kIczw1wyQtYdBwNGhpH4pKIo9dJUOPjEgRoGIpI+iXpIxFoRnTkXlKWRFI5DB6dihf8VL6nDjFTr4jQHxCYSduqBoC4msfYZAhOypNIcVzPqa8Aqy/jiQonLA4TyRtH8RWRvRgfzXn/7WAikvv4WoqkWQ1cmYdsenmXpG+igQlmwAobGlY+947g0Q1h4B8kg9kOxpgKl7rIOXleYBUsrd16ltEz3VnEvcE85wjrzPA+Phjsp1QeuxcC30KqsxWN9xU8AiJ4Ol9nmDcTXPgq1qQ9C40mU0DulZsTpYH9bdc0Ed3D1/lcF4RQf7wlqwrtkbstrd4Fi+yWC42LpffjH0WLw+ZIvWG+rCurkxuAZYA18aRJ9F5GtNne2PxmsFRdtHZO0KBUADO516BDY1bYLAPFZmDs1l0WPGWCBDR9AZz0AdPqDqfl7RU68DEfiDJcn1ebSLEm7099pb5BD4h+J5FLRBQB4YCwSDukUNIGDMEK5JWraVgiaSeonI2ttoONXLy/oLvKIuw5nGPyjKrwK6t3u0DBT/ZxmUDtzKPZ1utpqdIKzZ37mGIx+cDTTTHF0DiIwrwtHS18SbfFe7Yps5gYlD67BRYH3yQKeb7anj4Z/CawQI+7TGu9xTR32dtKI1mtE8bBlLkniVyxjf6TDwgbhZgWCzhs0pryQ7w4pt5iSOoKxZeQxItF617kXacTu82ikzendYBuc4rJm5DEiUQEjhXP+oTUvuUGwzBSxJ4n+tqRkMSDRA6GSUDsSrHjGjtaky1iTXpzjLxzp1/xqrSMCMm4zecZV4tURTYpspxDnFixhPMCARAgmsMJG1zWZ0Nl2Gc3oOIBBu5fOdDuWmGWVtPu3L0sraJ5jfMi22mYJ20TMLgdjmrWZAzDZXE/0duaSONaNxRGUSPZ5bcejLjZrIgJgBsuQZX8zh1Q4kJCR8JyKxzRa2OMV/W9wSWJ882KlQunyThTFHMt0YdJlXlN+Z1TficpzLs5v2I49tZUDa85Kt533JRsxXSZoasciRfAH3BtKR1oP5MQUyadfL0LDvAKzfdxBWvfoX4NcYPbLLegim1nNn+ANAvSwSbaMua00SL1MvebwpJlAcdQfhie2NYB0owrDxE+DkxYtQeuS84VpdEkhjC03BY65KkLVtCeXlt0QtciRf5Nze+dRLiuYbRLpR8cl9G1+EonkVdGKK9yrgHToc6s791XCtrgiElFT5OnFZOxTvHVK30MmqJDdYn3jBINSNgGJfcwieen4vcE43IJDS5Stg+v6zhut0KSDoGTOXUBhEUs90yh5Cu+idTL1kRM4NG3FxmFZfuYcKn7n1OGxqfgU2NJ+E8qOvA1fbVfuQFhCmBfcOnjE10xdJcxRJWZvL00L7koo6w9NryktqDwC3ai9wlU8DN/VR4IY8CBjj0BS/iQmwLuEh286DkF/i78C1l4nX+/NI9LvhZXF8jRlgi+gB66ChwA3JAmv6GOCy8oAbWQDW8dOAy54OttFFwD2QCxzONiYPBaso0f4BYaLxHhmG5U+CzEeq6dSwGaCdDqThJSAjxvthqHtML36+4RRaVWgTvQ9SL3G6IXtmCUwongOjp02H4RPyYHhOLj1mTCiA7OISKCgrh7I/Pg7Lt2yD+qb9UHfwRdjV8jacvXQZzl+5As0fXoLEtYdNeVtnAqEL13yr1q8SSVvc5d7QYBvoqUYos6uqoen0adj76qum7NTFixQEwghYxQnjaKo9b+kUINhE4RYBfBGAbwFceqvns+v8and6dyGUovkPQ9OZM1EDOX3pCigbX+rQS+IOZOUuIEOzgv2FXVF6dx3127kTziXuRCiZEyfB3jNnO4TSloegp+x890Owt4rMW3tK3IBgTiq/mK4U4WXtP7hYrss1Ue3woH+2JXnqcaSUlJIK20+cDAulPSAIpfrMu2G9JOZANp4EYfqjdMsZRt4OSWtqczlnODG6yjm7WymyDHR9hd7yaP06aDrbtreEA4JQypvfahdKrIDQBc64KUZPpc0TbroRZF3pKtpGfR/Yxlqdrr8hFPf9w+DpQ0ehqVVn3xEQhLLglbY7+RsJhGy/AMJjm4HkPBTosOmmGCKpmXHLR0WtdIRftIueYstA8QsEMyw7FzYdOx7s9M0AQSh1F96HAWuPGLzlGwPBleardtM39ZBBQ6g30K3Ssv5Ct/CIcJww0caJnmf9e9jBNfh+WLZxCzSeuwCvXTPkRfHbs30f/AMydpwOQokGCDZHQuU6IHmzgKTcH4CAx7eJopXj/vBw/0e3O9dHFH+CMYs1yf0xegyac9BgyKtYCCt274Omt94LBoltgTl3+QrUnHsPXA3Hwi8l3fY6CHWHaDMkzF3ha4r8e84Dq+J9LxZTKx2yfm/MpldvJoJ2tzvF5hIPWnCt1zXvXuRcXlAysmD0zNkws2Y1lK7dAIue3QnVu/bB6v3HoPZwMyzdtR9SFtcDKVsFwuxlQKZU0EkhYWS+b5+FL3ALeYCkfs3L6gVe1uuJrGbbJem2m0mruN/rvbL8G4fLu8Dq9JywOsW/W5NcX9JE4zWgroWGnzlXmy/B/IxIWosgq3uIpFURWc0TVNUd8dsP4q7ATXBBXde/bxPFAVanlGkTvYU20TPH5vJUodlFz1Kb2z0V30nlUFWCT3yXfbnkTaA1u0WmAFOAKcAUYAowBZgCTAGmAFOAKcAUYAowBZgCTAGmAFOAKcAUYAowBZgCTAGmgCkF/g8ShObbzjfZuAAAAABJRU5ErkJggg==;" parent="1" vertex="1">
          <mxGeometry x="1320" y="50" width="80" height="80" as="geometry" />
        </mxCell>
        <mxCell id="a8Lo-MuXTKm9hJjzGvLO-69" value="\" style="rounded=0;whiteSpace=wrap;html=1;labelBackgroundColor=none;fillColor=none;strokeColor=#6c8ebf;strokeWidth=4;dashed=1;" parent="1" vertex="1">
          <mxGeometry x="100" y="40" width="360" height="830" as="geometry" />
        </mxCell>
        <mxCell id="a8Lo-MuXTKm9hJjzGvLO-70" value="Clients" style="text;html=1;strokeColor=none;fillColor=none;align=center;verticalAlign=middle;whiteSpace=wrap;rounded=0;fontSize=28;fontStyle=1" parent="1" vertex="1">
          <mxGeometry x="190" y="120" width="180" height="50" as="geometry" />
        </mxCell>
        <mxCell id="a8Lo-MuXTKm9hJjzGvLO-71" value="&lt;br&gt;&lt;br&gt;&lt;font style=&quot;font-size: 28px;&quot;&gt;Web SPA (WIP)&lt;br&gt;&lt;/font&gt;&lt;br&gt;Angular" style="rounded=1;whiteSpace=wrap;html=1;fontSize=20;fillColor=#d5e8d4;strokeWidth=4;strokeColor=#82b366;fontStyle=1" parent="1" vertex="1">
          <mxGeometry x="140" y="300" width="280" height="180" as="geometry" />
        </mxCell>
        <mxCell id="3" value="" style="shape=image;verticalLabelPosition=bottom;labelBackgroundColor=default;verticalAlign=top;aspect=fixed;imageAspect=0;image=https://miro.medium.com/v2/resize:fit:600/1*dM-Z56reDfjCwIq957US-w.png;" parent="1" vertex="1">
          <mxGeometry x="934.08" y="730.0000000000001" width="108.3" height="100" as="geometry" />
        </mxCell>
        <mxCell id="4" value="" style="shape=image;verticalLabelPosition=bottom;labelBackgroundColor=default;verticalAlign=top;aspect=fixed;imageAspect=0;image=data:image/png,iVBORw0KGgoAAAANSUhEUgAAAPsAAAEACAYAAAB1UADIAAAAAXNSR0IArs4c6QAAAARnQU1BAACxjwv8YQUAAAAJcEhZcwAAFiUAABYlAUlSJPAAAD4ISURBVHhe7X0JmBTF+b7mTjS/RE2MUSPu7Fw9C5hIYg6NJMYkRo0aEYXZXUBQQATkUDxQVwIo3iIo4gXijfd9cXgf+ROjRhOjSYyiAiK7Mz3nLuzM//2Gr5fenurZnpmenp6h3ud5n+6u46uvjq+quru6egcJCT3aW0MHRZpDb3YMD83PtAZ3Y2cJCYl6QWaS96sdYeXPkbCyOdocyuYYVta1NystbW07fIGDSUhI1DISzQP2joRDq3uMXEeM8hkcl3963A+/y8ElJCRqEZ83B3+G0Xyt0ciNRGfw3yjCcjQJCYlaQkdL0xAYekJk3ELmwiotHF1CQsLtyO6ww46Yno+LNOvuzy2yA9N6xD2LZLA4CQkJN4KMFCP0ZBjsFpExW2HuPr4lNDcrH9xJSLgXkeE0opdu6BrJ4OnpfTYrR3gJCdehoyUwBAZa9NTdjLkRvrlpCouXkJBwAyIjQgdEm4t4GGeRHc0KzRKO4mQkJCSqiY3DAntGwspHRkO1i5AdiZ4Q9HNyEhIS1UB27KAvR8PKUyIjtZVh5S/Zkf2+xslKSEg4jWg4NF1onJVguOnPnKyEhISTiLUM7B9pVpJCw7SFSq/rSDiUah/RfyAnLyEh4QSybW1fgAE+pzdGRxgOrZDv3yUkHES0pWmE0BgrzK2v4/ofwWpISEhUEpmWgTtFwsqHImN0hGHlNbnYRkLCAUSbg1OERugQc6vrhoUOYXUkJCQqgU/GDvoGRtY+P1mtNNvDoftZJQkJiUqgIxwaJTI+pxlpVjo3jAztwWpJSEjYidynq+HQyyLjqwYjzU0TWDUJCQk78Xlrk4IRtewv2uwiOh4VtxSro+HQtZGwMn5TuOnA9qGDvuXEwzt6/bdxdOCbsZZgf+jwB7A1Mjw0EbpMjbaEppI+sXBgAAeXkKgtqGFlhsjo3ESa3sPw3og2KwsizaHhm05o+gGrXzY6WvwN6GDGgrfCmN9FGp0iHTQi3N+zgwd/iaNLSNQG4s3B76PxPitq1G4mPbkH3wYvbg8rB9Mut5wlS4gN6/+9juGhacj76yRLlEYhRlpCzSxKQsKdoGmqStP2cOhsjGIv5EZMQWOuJcJYsx1h5TOcL2ofHjoo22Y+6kaHKz7k+wbMEuJGOcWQOons0KFfZLESEu7BR8f97OvRcFMrpqivwThcc39uN2mURgf2T3Bme2toH87+DpHwgF06wqGrYKQpUbxiSR2M2qz8ksVLSFQfaOSeSLhpHhr5x6JGW8+kWQtG8YeQ91NxtP27fMi8mYtZQqJ6aB/WfyBG8dvRIG3bTsqMNMqJ3GuLvb/Es0LMFDauaxm4Exe5hISziAwPHRANh+4vbapefIOvFovtYKyGL1puWDmUi15CwhnEwgMGoPHdh8Za8ZFcchsjzcGLuQoktifQk256BfR5s/f/2sNKv00twf6R1v4/jg5TfkpHWqhB7rRAhMLZ8f12clTTD3BPegtGmC5RY8xn7YzetjJcmXxHmpUXuSok6hW5p9vDgz+PtCindAxXFmLq/BSMjhZktNPfT0QNQ+NWf6WdwneElSdwvArHMfFW5UeFXhvp8d5h9PfUJloMEzHKl3SSSuS9It/xS7gcNFpHWkKHqc2hS1HJa9CjV2S6DLmxjmblSTSiM2LDlCbREtGO5qZfIdw/RfElnSU66m60Cy9XjUStIhsesEtubXRz6EFMk2Oiyq4kcw2pOfTPWLNywcbmAQHqcDpovbjJw7diHy5J2kPMsH7NTUailkCrotqblV/C0G7F1DwqqtxqkN4ZY7Qv+K64csa+nd7nWyTaSpibj0StYP2w/t9Tw6FX5AjpBtbQa8CwMp6bkEStIPeOWlCZkpKFSJ/AchOSqBV0NCu/EVVmLVHOSpwnZoMncxOSqBVEw01HiipTUrIQY62hodyEJGoFHc39/ySqTBHlCFrvLOKZQUvTL7gJSdQK1OagZWMvh+V2FLKjcQ9p5eLG0YE9uQlJ1ArUsHK0qEIly2MknPvGfH00rPwDHdWbMJCHcKR1/Fs5XNl2Th/xhEMrwNcR938Ia/u/4e0k9PtI/tiiBkEr5EQVWmmikQvdRSwmrNOEgaY6mkPvRcJNS3E9jW6LOsKhH9LGEWvGDvoy7WLLRW0JtObhg5H9vhYfGdpjEy1NDofC6DBmoQyW51YQhhVbNqIohzD2d2mDSlZZolZAO4+IKlTShLToKKzci+Oo2AilqWPkft926ueMbUgn2hrcjVavweDOhT5PozNQ83R0gOh8Hi92DzyJKmPrhg/iCiW6eVR1gjCqzTCov+J8dntr/8G0fJeLzhXIfb8wvOn36ICuga5rnayvjrByp9xxtoaQGLHfXqKKLIdu6yCK1QfGTXwV59OSuj3d3A66BYht/WDoehi+I18G0ncLTs1sJMrER8ft/XU0DIvfhdcRBd96o1PYCM7fRF/eFXmv7TZsGBraOdqsjMbtBs1K8vJqL5ULOFkJN2N12+AvoXcuemNG0WipudHR6C8K3xetyihFtkaKi1H872pzaJzbpuh2gEb7jpbQIejc6P6+W1QGIhZTpmg/3dGW0ChOUsLNQCN4RVSJ9UzMZrqR7+c3NQePoKfmXBR1C3pVpoabDoTR04YjJkZf+oc4KM+UOjx0ECcn4Vag8m8VVWAxtDoKu4G4p32RnmjT020ugu0K9DcZlMELorIphzD4dXb+okqiAkDFzxRVXrVYqY4CndqnkeGh5lq/H7cD1NGhwzsW5fJvYzmVQ+pI5Ss5F6O9OXSUuOLy3UplJQzYqkw0wC0dzaFFtNCFsyzBoD3gMbWf1WHjYh2U92UsXsJtoF8GwXCK/tFfTTCsbMLxKDmaFwbtAkyjcl75lUBM5zdHmoO/Y9ESbgIZAk1xRRVX0wyH/kuv0TibEn0gOzT0FTX388tQWliexfF/keNCu7JoCTcBI+A9ggpzNQtN4zFtf4a23OLsSRSBrbsXKWXfy6N+bmSREm5CpCU0UVRhNcpr38YoxVmTKAH0fAPG+gCm9qLytUS6NYw1K79hkRJuAU13zd+/1gapcXWElVly+aY9WD148JdodRzKteTfXeP+/R/0cxEWKeEGkIHYMXWzQjQeoXs5JEMHz5cP4uxF7nlOc2g4RvhOUblbIQaRs1mchFuASp0vqiwjSzHWUuIUQ/rZoDT0ygEGO7QMg49sGiUX27gKtLJKUFGuJzqSW2gNOGdDokKItvY/HEZf0vfzmM7fzGIk3AB6qEWvq0SV1ReNI3elR/JtVFbJe0LnEM/twhP6RFwX5oSxd3U0B/dnMRJuQEdYuUhUWS7lB7GWgbuz6hIOIdoa9MPgi16XgTiPylstFyHaOtCPe7OK/K3VTqLhpOh9MKst4TAi4eCg3BZdgroxI2Z73bQNGouQqDao58XU+IloCyrI1VQms8oSVUJuL7wWJZGrDzLovDrSkf0xkDzM0SXcgGircni0FZXjUqKBPZJta5Pv0l2AjhblGNRHl6ieRIy0hDKftzYpHF2i2qB37pHW0JvREaigKjIicmsNfZYY/SP5gwIXob01NAn1kjHWlSlbQ9dyVAk3AJUXjoxExWikStJfW6E+TqH4WiMQ+WmEPxl/+4jgCFZRwiXIbXE9Qlmor6tedWcg6jGaGSM/knENsm2DvxQZobwlqqxqsWOE8oRcCutOvDfJ+9XISGWVqN5EjI2Sv3x2FdBDHxUZhenZKFRQlYlZRjo6OhBg1SRciNiY/t+DIX8iqj8j0TG8IRdCuQg0inaMVJ6OnogK6otUiSJ3PY1hrMTpoXIhq1WzoO/FN41QmqIjm1qRp7mRUcq9kRNDb6FD/cRI5Hctyue/8H87cqLyEo4PRkaHroT75E0jg0dERjQ1Zl24UWbsROVQ5Gtzfv31JvKTiY4M/oyjSbgBsZPQOE9UktHRSlY1od6PzrVrYxzNT+9uDCsKg8a+nn6zxCrVFBIneffuGB08Gfm5D+W4AXnJiPKrd9Mo8tPcIKcb8jaCT0dODJ6vjvEfmB3Z72ucbFURHR28WK+7kZp7x4nKNRxFwi2IjA629VTWGN3RSDP3UslpYkSbxKrUBDZMCO2MBt2qjg4+g4bfWbDcRH50bgyrdxP5g9ETg+sjowNLo2OUw6tp+JhxfAP5fqOXfiJ9RwfXuaWDkmDQX0XVMcG/qCehkoj6StNfa+f6cNq5kVbjjAn+JzN175pY+05/Xo2OCc6NjFE+M827mbuBUTqKysVq/DHKx+C8jpGBfVk9RxEZEzoAZdEl0i1HygeIgUTuVec2RMcPCKABZoQVV0Gi0YxjFVyL2PiBu0PXy9C4E0b9K8FcR2CR0Glz9KTg8ujJTb9wel26elLwUpFOesZODi3i4BJugXpycLB6MirIQaJRf5CZ6t4v2rJtoa/AkKahbDaJ9LfCqMCtEqSOGmmtjo0L/Mopo6d/uKN8Psylb9BnG4MfydepLgMay3XqWFSOg4yODU3j5F2H+MnB/dGA/yrS282Ezt2Rk5WHPx8XCnFWKorIycFhUYEeGqFPJjY+2J+DS1QbuXv2ccH16jhUkBmp8kTuJRINJBo5xX0/daB3w9Fxyunq2GBSpHeOVspCC2M8Gv2tsJiwTJRvMjo2OIcepnHWKoLcdmfjgi/k6UA6s94wePlRk1uAyviDOh4VY6SxAvXuhfz1YUzcYuOCrruXax/r+VZsvHI/6QmD36azGdmfwuaF53zmnRvD6d2M7iI30FQ3zU3nB4N/J3Gy8lPOYkWgTggdFBmndBvT1s4jY5V7OKhEtREdr1yfqxiHiPQyGNUHcfKuQHJyaB/o9ZZI39pnsAvHcyr5N1vIf7h3mtsYHR/8cLlcTVd90EMoNIaP1FNQMU5xvPKmm3Y0iU1QmqKnBD8U6loGowK3ahH5y0ZOCT4eG++pyM4/HeOVH8GoN4vTVrKJUwPyS8Zqo+PU4P7qBFSKkzzFPVsPbzo1MAAN8hOhnnVIGP2/OyaEfsjZtw3UeasTgg/1pKNLkxiZEDqMg0pUC+qpwTPVU1EhDjEyIbglemrQz8lXFbj39UUnBD8W6WkrqcGL3PMY7AmbM5Y8f7gL3EpgJD7J/sUu7af4B6I8O3ulpeXjFGUGB5OoFtSJypNg1imisa7hpKuK2PSBu8O43hPp2ENqpCL3OiDqIa1OCh3HxWEb0JHfI0pPnRhcxkEkqoFPxg76hjop2K5OQmU4xuD5nHzVQK8aIxODL4j1K4LUiK24FXK3iyXIj04MdsYmB4dxsdgCjOQH96Sh12mi8goHkagGIqcGftxTGQ4wOknJRCYHq/oUPpvdYcfopOAikX71TpR/vttEJd0xuWkIF0/ZoPKF3DeM6UQmBdfRw2AOJuE0UAGnqpNRGQ4RRvZRtf++GpkcClOnk9PHoJ8djE4OdmH28h7OH0XHtgwN/Qpcn4m8T4tODE1H2hfB7w6Eew1uEdRBThdLJMPRXdulP3RKxqaEDuEiKhvI94T8NHLPanbjIBJOQ50cXKKehsoom0GBm4CTlVs46aqgfYLSTz0t8Hlvvcx0J3fNTzsXh4Xhfhw7TbkGxng0PQvg5PoEbU7RPrVpPxjaJBj9Y5CTyk/LmK7RXX8tctf76f3z3NvpzQSrVhbUaf7vIC9JY7qxqfbIlygB6pTgm7EpqASHGJkSaOakHUduenla8GGRXqVQnRLoip4WuJ+eatu1/dLnk7z/F53ib0WHtAK6bhGla0bUpdC9KJ4W/E9scv/vsTplQZ3sf8goPz5VOZy9JZwEfW2GBoLpGypiKlN/bkZjmEJxdH5Ia0ti0oC9OXnHgdHlGOiQEemWd23mhyNkdMMo7lFPa1IqtTCI5G6aojQhrZvAVC59o04i6sPpw5vFFYRFJ7aCNpdkVUoGRvFwXjpT/S3sLeEkaEqlTtU1/gpTnRp4r1obEOZWCU4J/EukVzGEjI+iU4JH0CyBRVcc6WlBP4xlOdLuFulUIc7l5EtG9qwBu6CjUvVy0d4msLeEk4hM8R8fm4ZKcIjqtMCdnLTjUKcqY0Q6WaU6LZhBQ70pggbMIh0FjfTxKcHfoQzfF+lnN9Exb46drhzKyZeM2LTA/Xq50enKGewl4STQgM+LTUclOESkdxYn7Shof/zYdIzqAp2sUJ0e6ALHu2Et/8YzAt9EXm6gzkeka45kWKJzEQv4I40Py/0EOTo9ONIgs429JJwEGs0tsdNRCQ4xWqWHM9EzAkeJ9LFCGHlnbLr/eBblClCngxGyFbrFRDrbymmBxeV0cpiNfD9XhixPnea/hL0knAQK/7XYGagEK6TKErkXwcSM6jycQ9oPG3XpYYF8qadjKjvd3tVldiI6I/gz6Pip5brRh6Nz7bpAfIzM3e3TlYM5yaKRewNyeuBVLY3o6e7bw6DuQd8WR88Ifmas3EpRPSMYzS53/uFc4ozAnshnWqRTIULfDBqma7fM0oBZS0A9PfiBKA92Ecb6Wjk/q4B+bT2yZgTuYGcJJ5BtC+0cmRGYGZuBCnCIMJ63qnHPGzszeKpIn74IfW+lnxmyGFcjcnpTI/RdK8qHXYycUfr6CPXs/kH1jECS5EDPqn8XsV2Aemf00uPQu66HEWQd5YzAI6yGo1BnBFcK9SlAlM/77Wd6vsUiagK43eiPMv5clB9bOCPwrw/aSv/ZQ+SskBe3HUdUcqccCUZkRugA9azgmthZqLhq8MzgpayKY4hMDe2qnhmIc/pbuU0f4bV6ZrA7clZt/tQgck7g98hvZ698aXkzXuvdjNeam/4ahLGO5KQk3Aj600r0rMA8sCt2NlccHa3SSngtjD6sIR46GscXU0Rn+P/Qo4tG47Xmts39HicXzNgN9ezAOYb89E2z8AY39azA2/KvrC5F9NxAQD0bo7lWmVVk4mzlGFbLMSDdOUY9ChFltUU9t0nh6DUJmiajY39WlL9yiQ47G8fsgZOScAvUcwJD0HijsXNQUS4gdBnMqjkGpPmkSBczRs8OLueoNY3oWUE/8p4S5bFszgw+zMlIVBu0YX98ZuBc9ZxgNyqGKscVjJzjO4BVdAT05B9T2k9FuoiI8sqoM0t/n+w2wDBni/JZLlFOmxPn+PbiZCSqBfrYI3Zu4PrYuagYlzFxnrO702B0202dGejqpQc1WP21nucE3qun/5F1tO33bfXcwPqe/JnlvVh3UJ3plxtHVhP0WkQ9L3B3/LxAlgijzx0LMVboWhDfGL4vd43k77Sx4x6zf1966Rk9LzCPo9YN1PP8Z4nyWi4hd438UWOV8DZG9Pj5/nvj56MyiFrFGK9FNPqLZOjOcwYkiqO/FtBxY5/pPySnl56ki8m1ep7zzxQqDZrdxM/zt4vyW9BNRArHRBvojrSFvJyMhFOgJajoaW8TVpBDjAncjHTa2FEmR1vRixg7zx/7vM37fxy1rqCeH1ggynO5RNmexklIOIHcRwbnBy6PtaECXEi9Xo4be5v/GL0uhRg73/9XjlZ3iLcF90c9ZET5Locw9ic4CQkngAY9IVeRF6ACXMoYHyNtzj6Nzxm7To9CVC8ILOBodQea+cUv8L8tync5jLX529dNH7gTJyNRSaizgoNjswKp+CwUvg2ELKG7VfYVPzbL/xtW3RGof4axC/QQMXFBYBJHq0ugbuaJ8l022+z/X5yEAZ/NCX4fFfhx/M8ocBGpIopxB3PGSkeDe7EUxSe32AXKCay+I0jM8R+dS19rmNq58QgmZvtP4Wh1CdTtr7W85vKtLwNjeWhuhfz4HLO2qu0UvF2AXnnAeJ7oKXgbWK6BWyHScPSBTnKW8kur+VJnBcZztLrEuksH7oR8poz5Lp++yzkJiUogNss3MT4bBa1jzHBdiBTWanhROLO4hWRu9QtexllwBPFLQnuos/2bRfoYiU4hzNHqErSaMDbbv0aU93KIW6VnOAkJu5Ga3dSISlPjc1DYNUYY/AOcDUeQezA1298h0iWPswMncrS6BQxzqTDvZVCdHVhby18Iuha56ftc/6PxuShoC4wJ3ES0Gk5PfZwi4v/D6YYRmxN4VaBHPucEZnKUukV8TvBsYd4tUlTP6hx/Z2buD7/LSUjYBXWO708o8Ez8QhR0DVK90L95Q1toZ86OI1DnBhaIdOkhNVoc0Yku5Sh1i9hc37C8/NvA1NzArzkJCTuQbRv0DTTM9+MXoYCdICoxJnI3kMJoFPkbqc7zH8RZcgQw9uNEeuQaqu4a+v+No9QtYhf5DhXl3RILxIldJH/nZCtiF/qnbC1YcYFXgpVIS70weCZnyRGsa/PsHrswkBTpoifymsrM99b1dLTH2G2mNHYbkbk48E0U6ob4PBQsSEc9RW7lsC955aQXm+d/irPlGChNkS5Gxua5d394O5AzdkG+y6U0dhuBAj09fjEK1sCYwK0cWpWnD2d2bkYYXjw7b5Cju7ZGL/GNEOliJHSr6x1YYpfA2AX5LpexS6Sx24Lskn5fQ2F+Er8EBVsS/QK36lKdFziOs+cIcjOji/2fbU0f5XGxuExiF/u7UhfW72ebscu8v92ad1H+Lbhp5WYoP2nsNiF+qW9kAoWe46V81M71FLlp7mZ+Rmphi5VlFl6jwR+N6DbOnmPAqDbPTJ9ebpf4buYodQf1Ut+xPXnVl8Elvt7lYFY+RrJfUhp7+cjtJXep/+VehV4HhLFvotGWs+kIEhcH9kTHGRPpoyfCbElc7uzXeU5BvdQ7XpTnchm7pL5XHzoCTI8Gxi/zdycuQ6HWGdFAhnI2HQPSvdCohwn/lrl8769ztLqBeqn/fEFey2bycufrsu6QuNw/F8zWI+OX+R7kbDoG2okGnedakT5Gxi/3X12N/9JVEsjXTcZ82sH4ZXIf+bKhXuE/MH45pp5XoFDrjDCmdGK+1/HfNyeu9B8TvwKzJYFOesav8HUnLg+M42h1AdyerBTltVzG5ys/4iQkykHiysBRaHidaKTZgqSCF7kXw75kWE3DYrj4lX7H/+ZJa/MTV/hu7KXjFb5eemmkco9d5auLd+/ZtsFfQp435PKm5Z2OZnVltQ7RcaYu9TdwMhLlInmVNwzD2Cwq7Fpm/ErfJx9V4d6YHg7GrvD/TaSTkTD4rtSVvlEctWaRujKwryh/5RLGno5d1fA9TkbCDsAwRsWvgsFfhUKuJ14RHMtZdBSpK3yexJW+dUKdDERHuyV+ZeDcbFtbze6TnrwqMFSUN1t4pf/p7LUDduGkJOxA7OrgcBg87nVRwHVC5OeDaozuhPgVjfvH5/s7RHqZ8MmOq2tzyhq/yrdQkB/7eJX/7cTlPvlLKDuBSjs8cbU/Cmbrhguqt/94YqHvp/H5vo1CvQSMX+1TE/N9F0QuD+3KIkpGbhvw+d5Q7Cr/wNW4p2Zn25FdPOjL8av9/+7Jx3xfXr6KJhl4vtvbsRvklN5WJK7x/wSV93FiAQrYLaTKFrlb4dX+DWj0VfviLHZVsD8M/n3WZRu36df7HITRbwKvSlwbHLQGxsSiLIHe4aODOyqxwLcS9dgNORkcH86urozBR9Gh9eSB9e91rl1rbvqj3l1PvZsuTHyB70Xa746TlrAD7QuVfmgkf+kp6BpnfKFvIWetKshc69kdejxm1MsK4wv8/4Hh3oQ8jFKv8Sk0klIHoJG+b4heGwgg3Engfai3DQIZGRrlWR1bgfQuN6ZXScYW+G6stzUKVQca1TeoYOML/ZnEQhR0DRMjQhdNqTlrVQHtWZdYGJgMw42JdLRCrosojDfSw4X+tDGckegoPs9e2e/brIptoI4HBvgfUZqVInVcsQVeuYTWbtB9X+wafwum9h1gtqa50P96Zr73q5y1qiF1rc8Tv8Z/f/waX7dQT5sJQ/8guSD4c07eVsDofitKs9JEnjbFF4b2YDUk7ERkvrcRjXN14loUdi3zGt+fOUtVBXWiyet8B6NMV8av9Xdv1c+Xr28ZhOwudCqLowuCu3GytgNpPNiTJhmiLv2K8xrfMjmdrxByq6QW+SegAbXjmK1Fxq/FdH6Re746y624w+0FZk9LYfRRkc69iQ5B6K6nrx3yFscX+fbjZCoCdVEotLU8DelTp2V0s4W95SLtLYnrqntrVvdAoe8FLgO7MTpla42JRd532xd7HN3Nxgo6cE8du9Y3DOV6e3KRdx017iSR9NafC4g8dYIrML09uWOJ/ffmIqQWeZf10kOvq97NqLfmJnI3uzb6bXN/gjpMVkmiUkBjPCBxnXcleteMsCJczMRi3630PT9nxXWgBhzBvT3K94/oACajjGelrmu8iI7x67xtOp6Zus77u6zDnVfsBv/A+CJv1Tt7lAc99/gJqyVRSeR+LLHYdyiMZ3XO6BejEmqApGviOv+pnA2JIoCO6AvJ673PiMq1GkwsaryVVZNwAmT0ycWBX8Do7wZTyetRES5n4npfGve1h3MWJCwCht4sKs9qMbHYG1MX+7/D6kk4ieRizz7xxb6Zieu978KgMskbUCkuZeIGXyRxo+fHrLpEH0jcGNgTdbpBVJbVZOoG/0msokQ10IbRPrHY/xP0vHMTN3jfgmFlkjeicipNagAid6LYb726qDKry+oJtCgoeYP30V5lpzO4XmVrdDMeRW5GP41GPxFv8D3OakpUG7lXTEt9e8Wv942A4V+Pynk9eaM3Jqy46nBteok/yOpKCID6OjMhLruqE3olMw86u8mohEWQ8WeWDdwpemMgkLi58ejkTb4EmK0qYfCxmwMDWEUJHVI3+Q5N3OTtEpabS5i6We5VVxNILPHNS96MSqsyEzf5NoByoYYO6mJ/MHmTd6OovNzExM3uWB0p0QeyS/p9O7nEtxbMVpuJJV41fYv3SFZtuwbdeiVu9r4vKie3EXrK+/ZaQfJmbzi5FBXnAsLgNyeWeqe6eeFNpUEbRaAM3hKVT8VJBixyL8w123N91RSWL9/hizCyx5O3cOXRsViaxdMahP5a7673Y2JUg9H7bt0eH/zkXrHd4n0zr1wE5ZRHLYyVsBpLSUcjhV3q/UvyltA+rL5ELSB1u8+TuMUXEVZqlYjR7e+dyyr7UYmbkL5d8cHQ3xOVhduIDnkLjgvpYS+rL1FLQEMbn1yGynQRE8t8icQyTOsrtLWTW5C8xTsYne0GURm4jdDz/dQtjb+Xn7nWMOi1XHKZ99HkrahUlxEG/3xsmac/q1o3yC2AWuabDKZF+XYTE7f6OuLLfOfSTkqsvkQtI748tEf8Vu8nydtQwS4jDL4zcav30o4l+znyKWmlgc5r9/ht3vtFeS2aZJAidzu4zPtpfJm/LXpL5TbjkKgSUrc3/j5xm7crdbsXle3N0jF3rqPmp53nyGH14bT42rV23hOHr/V+puE0Wbd51yVubZyUfbg2Rxh6cp2+w3sc8vdpLr9Ujpw3EXvKgcJsK4NtYbRzgwxdefVy70XyE8RHHDV+W+PD6FyPy9xdf3++ldABBn9BT4NwKZO3N/43cXvjxOzy0M6stuuh3uJToPcjMOCMKE9OEGl3g6nkbY2dOCbhFsH5ezDwR3E+O76s8TCnNuKQcAFoq+TkHY2PpO5AA3E50WDXp+70zk4u97j2FVDibt9eKM9rknd4U6I8OEl0kPMy9wd3o9uIyO377EI71bKaEtsrIneHdkUDfReGlK0FJu9s7Ere6X0UxxPWueSVUOddvv1QhtfByJMincsh8ip0L0To8hrtd8/qSUhsQ/pefzB1V+PG1F1oLG4kNWKBe/KuxmjiDu9dybu94cwd/R39dVEGnWT8Tu+YxJ3el5N3ebtF+lWD6ARV9U6fwmpKSOSj607fL2HwsdTdaDROkhqp/miF+rB8DsNPJ+9u/Evi7saL03d5/5i4I7AnfSPO2Ssb9PoMhvSD1J2+UehcHkB6W8uqGL2NtJp3M3+j+9br0ayyhIQ5Enc1HoNG3NmrAVWYMByhe7lEPjZD9gfoAB6hDgBuY1J3ew5J3+vx0RJduoelziC7fAcdcb1m0JfpyXTy3n37xe/x/g7xp6WWe5fi+A+Uz2ZjOnaz2PLQh0c+b6N1FFydEhKFkVreeBIad7aemVze2AXjWAf+D+f/yfHuxv/g+sPkcu96GFBKFM+NhL7a8e9ygwmJopDAFDh1DxqQpCUmBW7Os3GTvE+XKBqJexqXpO5FA7JCrbGJ/IrhPY1idz37Skvnl9S7l0qztDT3QroQ+/LXs1BY8ivgj/rqit/nO4KrT0LCGrLLQ1+B4a1N3YeGZIXU4ETnhdxKoTEd7Vp/rie7JQ3XvcKK4oncjXE0Gt16Xes6L81N89df69314Y1+ejfNHUfMKjKJ+xoncfVJSFhH5wMNA2AgmbxG5hIm74MRCdydpRt00Nh4sXwgJ1ES0IAmpO5HI5J0PdHx3UivA7nqJCSKQ+oB71IwK+luJu/3Lqn3b/8lKozUg41/Sz2IBmWBSYGbG1kpPYuRa6cOyQe819NaAK4yCYnikV3d72vJBxujqYfQqCQLEPfsQvciSIYrci9AdBiZxION8+xcFSixnSL1QGDfxEON3amH0bicpNagjW5mRzPq44rctHP9tf6oGXHPNVMfR3/9sMHoRfFERzM/47n++iFPOvGAb6zcIkrCFnQ93PjzNBqwpMv4kGdt8iHPgVxNEhLlAw3rmPQjaFySbuKKzBPB73MVSUjYA0wXT0w/igYmWXWmHvFsST3SOJsWOXH1SEjYBzSuienH0Ngkq8329KMNcvmrROWQftw7Jf04Gls1SI1c5E7UjEDkpvczhtG76f2McQpRi6On3l07N4bXrvVufbnzeeoxz3NcJRISlUH6Mc9pvRqgC5gSuG0HfIarREKiMkg93nBK+gk0NsmqMvVE471cJRISlUHnk97m9JNocJJVZerJxvlcJRISlUH6Kc8f0k+hwUnaTI/AzZyJJ+UnqxIVRudTvh+mn0aDqwapoYvczaiF7yseG5DIL1VMmsawxcQtwJTAresp38FcJRISlUFsRcP3Uk97OtPPoNHVI8mYRO6VYgnpofwTkSdDu3KVSEhUBtnsDl/ASLNB1AidZOqZxgyOK6DLW+Bmo389E3l/latDQqKyQGN7Pr0CDa9KTD3jiaVWek+hjod2YEk/7fFBp0nJZzxP45gUxaknonP7M1eFhERlkVrROD+9Eg3PSVJDxxEGvSq9ct8Aq5KH7Av77JJe3XAkdLwkvcLzEuJtNX6RPM1d7292bmQhv2JIcjRZZjJzYTxZ5Cl33bWqcRBnV0Kiskg+09CcXoWG5yBTKz1rO1d4W+gXx6yGJWQe9341AeNIrWwYDYO5OrmyYUV6peeD1CpPWpSO24lyeGe13H1GwimkntnHk1rVuCW9Gg2wGFKDFbkX4irPRsSbmXnRvh8b0MYOJC/9pD+4eZXnN52rG1uRxrTO1Z45yVXoEFZ5bkiubLwxudID0nEb0Uk8hLwbdDScayzHX7s2uCVXNZ7D2ZCQqDzoF0ip1Z5306s9WRhI0ewrHvnDqD5FA5+ZedldT52z2aFfhG4PF5v3UstKT6Sbyq7utwerIiHhDNKrGq7ufBaN0Eamn/V04377RYysI7NrBn2Dk3Id1NX+70Dfd436V5rpZxuWsAoSEs4htbrxV53PoRHawWc973SubpiVft4bYvGuR/r5Bj86p/XC/FSA6ec8m9Or/UFOXkLCOby9PPQVNML/dT6va5R0rl1r50L/ho3gYzCYqeln+yn0Co3F1hTiz3p/lKa86PNaIWJUX8rJSkg4j9TzjbN7GuQLusaJcxhyV/p5T0fq+Yb3YBBPpJ7zXAGDH9X5fMNA2qGWRdQ8KD/I60e5/OuplYn+Wlc+ef4FmHquIZ56pd++nKSEhPOA0X5780ueQ1LP7fv7zS80/Db1bOOvu55rOCD94r6B+Op+e2Re3vvrHLSukXlp337pFzx/ERmqPWyYxUlJSEhUG5k3Bu6UfrHhus4XYZw2MvWC55+ZpwbuxMlISEi4BZtfbvgjjH5t50sw1jIJOV3JFzwHsWgJCQm3IfLCPrvAWC9Pv+hJdr4Mw7VCMvC864bZLFJCQsLNyL2ee8lzY/rlhnTOgF9hQ9aORjcd0y81PCv/1SYhUWNIveDzdL7ScDH4mdGohXy54aPMi4E9ObqEhEStgd5OpF9pGAKDvqfz1Qa181UYtoFpuHe91PATjiIhIVHrWPfUwJ1SLzce1vmXhnnp1xpe7HzN045jGjySg0hISNQjaNTPvOHZnS8lJCQkJCQkJCQkJCQkJCQkJCQkJCTy0NbW9oVhw4Z977jjjjvs+OOPnzJ06NArcbwVx/twvJ/PL8NxAnhgS0uL/LBBQqJWQAY+ZMiQX8B4rwDfgTF345i1yATCr8BxAjqI77JICQkJN2H06NHfhIFOhLH+w2DApTIJ0sj/Q05CQkKimjjssMO+CqOkafgnbKR2czM6kbtALycpUSEceeSR30DnOghlfSI4E2U/F9cXFuBIjipR70Bj+Am4ho2y0oyhcZ0DfoWTl7AHO6Js9wdvAj/jsrZEdAhjWIZEvYLuy1HRZ8DwUqJGUEkizVfC4bCHVZEoA6jDXcElKNfNxnLui6iH9eDOLEqiHoHG8XVU8p2iBuAgN4GHs0oSJWD48OE+lOF7ujItlnNZlEQ9Akb+LRj7SkHFmxJxVByfBv8MDsP1QcOGDRs4ZMiQgbg+GPJG4EhP7tfAz/IIg7BdOE6AWjtu1U7CKk444YQfoOw+1JdnMUTZp8F9WJxEvQGVuzMq2pKhI2w3uArnZNzfYhEFkc1mdzz22GM9iHMu+D9NVh+kP4FIYy8CY8eO/TLKbbW+HFFH+jK1wrtYnES9AY3hi6jguw0VLiTCPofjgYhWshHSrQJkjAPXanIFpJmAvGcsEijbVn05mhk6wnXiSK8/80jrKFicRL0BDeIcVLKwUeioItzJ4Bc5Wtlobm7+P8ilKf4WXTrUQDfKh3TFgx+svqUvSwGfRpjfooy/RXUpIouTqDfg/u4XqGC6PxY1DI3/QgOp2P/IoMMvocMHnNZmXP+OvSSKwLBhw36E8hOuaET50nEO3U5xcIntCTBgevL+trFh6An/12n9O0epGFpaWnZHek8jvTPZSaJIoOymGutPI/wep5Gfg0psb8AIeoaoYWhEA/mHE4auAel9BZTTyBKBzpsWzgjrEnX9Kw4msb3hmGOO2Q2GtVHUMIjwa0cDUTi4RA0AdfYY152xPmP0fISDSWxvQIMo+FAO/i0cVKJGgHoze3W6afDgwV/iYBLbE0aOHPk1GLPpu2741ez9HeWNPvjQc9KkSV9l7zxQPkVx9CylLOj2B2V5KEivGM9Fmc6mDhYcTa+2+hppSedidUE6VTV22q8gHA4PQh5bkOYMkBZatWGGOBG3GEfg+AMEM31ASDqK8gx5hb6X2JGePVmJQw8nEbYB5X8s9JqOMBeAVCcjQfpAyPG/75Ke0KcJaQ8Fp5FO0G0WnaO8jqWVkHAzvbWl9mDMO5HadC4AhB0OihoFcQutfssFrEGgkOjVE70mpJV9OeL8SfbeAY1xF7jRqr5bwTfh9zkYpfBaHO2cuZ7icPSCQOXsC85EnNchh95ji8pXI6X1BNhMlcMiegAZj1P6HK6HyN8BHCQP8Dczdnq1SXl9wwIfYHGWMHbsWDKs4eDDSKNDl2YeEYbe+ryFPJxPZcUiegA/qpde5c/XV3KQPPCn15/pwmq8moNQm/gu0qNvPf6OML1e8+oJf7qtXQYeWMnBjhY+QZ/fQa9lSJO+Qcjo9dATfrSA7QOEvQpH+hy8V2eJMPuBvdoIEWFX5QLg5GY4CIWDD+YC1SiQt/8I8vQ89XQ40uo9Wndv9DclCvl2Fm0KhGlA2KVIu9QPhz5E3PFgz2iE82cF4Uifn3OQPMA/Z+yI2xNef26FCP8PFlcQXJ60O9FHRhlWiHgp5OVGcC8WSZ3lGEE4Oi7iIHmgGRLJMoSncrqeZgo4ko65Z1OaX19EODK+pxB3ACdjC6gDgWyIPr6vtRBmpI7qUVqOziKpzumLxrywSOdVakS0cML023Rk8DCWU5NAHkTGTjvqvCJw74tU6b9m0XmgsoT/dDDG4cvla5i2BUk2zks29nKIPPVp7GhsP0W4gq9srRJy2sFRELujyNiZlo1dI9zuBZ8xuhdJWlE4iZMqCzSTsUEfjZ2QNZuXRpsbOxpLCCdmCy/W02YVrF9NAnkQGXtJhKx/mt3r0tQe/o+L4pVJFbdRR+Noy8heLBHX1Njpnhf+k8G+FmGVwsUgbZIi8it6ZLeTkHk1WPIrYcg4HPHbjXKLpTFvaAsr0fH+Vu+mEWFfpYSbjR4aEeBO1q9mgTzYZux0n8die4Efvv3NGN4uIg9doLBxVGtkpyko/C+Cv+n9ZbmE7A0id7Dokb0CnIfkil59iDZE3yr09fymZCLv603cc8Y+1+ihEQEms441C+TBLmNPwrB67ic1QD6tKS969x7EEboXy2KNvdh0EV5o7HA/D/5FG3qp+TbEq7qxIw16UHY8J2sJqKs/IU4lZkF9Eunm7tlvE3kS0Qv9hvUsGsjYUZBBD8AqQsg3Xg/lpHsBfkUZO8qDvt3+K84fBR/SCLfZLLIHcKPnHcspnhUibBykT4EXgReB9NEPbbH9MVjSCFmssTMj9IYFcUMWmLcXIL+qMn2KbSCNYq+BN4LzwEvBO1AO/wIt7USMcEY3O439c3Ap2vpEMIy443F9PY7CEVJPhNnwpz/9ydJPKDH7a0J4ejIulGXgFoSlZyD0hojKi8ptCdxeB4veZYiIeLl7dtpoQhgAmfezrkUDwm8Ryawg7+ekewHulowd+tIrj8lWX6sREO8koxwRIfdtkN7dCj/R5aeyB4HLwaKMHvVXirGX/J4djfv70JEMRCRXz0/B6YWMgTuTBZBX7Ehsh7F3Iu3zjzrqqG9y1F6A39dBetiaMMTrRaRl+hpQAz33QjgaQIQydIwhzUtgd40cNQ8oz70RjtZp0CtikQwhETY3sr9o4tmN3mhPTqNoIH7NGDt0XUEf3nAUS0ClfBfxTJcXM6lB0Xt2q5tm0hPoXyG89sVfn4R8J42dNquk985UZiK5ROqsbjr66KO/zXH6BL1xgLxi3o6UZezwp/UJh3CUgoAN/BjhCy0jV2mpOQcXAmlNE8XVE2FWou7z1hqYAeG/i3iW9pwgQs/cPfvLRg/mFurFWXbRgHBXGDv0KGjs8H8JLHpTDBQ2TcOFMpn0muaPHLwoUCcL+ZYe+CFc0caOOCUZO/QaiLIynUbCj6blM0r5bJYWEiE+/TlIKNvAko0dfhmw2HvtQxCn0L32SRw0D4hHz3T6uiVYUmhVpxkg94vQbQ6Ofc4GESY3svfaskjPYnoaIyDXaWO/m5PuBehRyNiThaZMZoBM2rLLdDEO/OnhzXAOXhJQiXtBVt4SZsjtdV2KsYMlGTviXa/JMOrBvAjBSv4+nhbmQO7zArlG9mnsmn5GPXH9WCmr4RC3J+9GQqbpKkO0r1NEcTQi7iNgydul81sRegYklK8RaeRGdnpAJAwA/oRlFg0Id9TYkd51nHQvwN3U2M3i9AXEGy6Sp+NNHLQsoKH8BrIKPsRyytjp3pbiGeTo+RrKpeRGqyEcDveDnKhAvp4lj+wor5IWidEDNsQ3eyi5DkGEnRx0eVUQXuNn0Kfs355BBu1DUfDPTKQHNYgFRg+NCFDy6IT4kxD/PjsJmaY/NYD/eZx0L8DP1NhhTCV90424dxhl6aiiwZV8+2MAfahRqDN2zNjR2OlnnSJZOQ4ZMuSXHLRsUF2K0tCxVGNPlPozUX6I+m+BzBzhl7fRKtrXD+BuOv2Hn22vtiHvj5BnOp2HX87Ypxg9NKIhXcKyqg4oS0tR/2vUUcdhHLQXEE9o7HDvKqVXZT0Kbct8Iwe1BZB3sEF+Lzpl7Mj3hQI5GtdwMFuAjoUWKRV6Cl6qsb9fyhReA+Q+JZCZI+oh7xUljJ0WvgvDQ1aUPtrhoGWD2+W7xnQ0wv9VKthDRJ7EXACXgH9yYPpuF4Ut3BMPeTAz9lQpS4FbW1t3Q/xCD0Rs/ZkFjyimD3icMnbEecQgo4fQYSYHsw2Qa2pYYKnG/g4HKwmIT2suRHKzNM3nYD2AHrNFYYnwu5eD2QbIpffxZum9mmu8OEmLAoCd9F6PZVUV0MV0BgJuQh6Ea5XhbjaNT8Kv6HtMxPmhQFaO8NtMoxIHtQ2QS5+LCtN00NjfNMjoIT1b4GC2AXJnGdPRsVaM3fS5FcpMuPS6HEAmfUMhTA+6bB24cUErnISB0Jim5QJVF/TBhemiBPiZ9pLwt9XYUR6DBbJyhLyNPZsE2AjInm9MS6ODxp5364L8EjNoZCUvvjID8nWiMT0dSzJ2yLTN2Cnv+qOJsT+ohTcSfkW9/rMCyKVv2Xt00qVF7DF2WnLaK4CO7xfbMOwGdKD7VtOpMxpbKwfNAzJpq7Efe+yxvxbI0riOPjPkoLYBel4sSCtHp4wdOvT6Th3X2rEb5V/yK1ozIF8n6NMzsCojO3QqamQvFJ5GYQ5mG5BeQJQWEWWy1diRsAKHQmtuR+QCVgc0qpt+9ws/tdASV/jbauyIJ/xemAh5tMON7X+tgWzT96gOGnuh79X342C2ATJp+y5RWsSamMbDPbfaUEToSN/s2wrIpV+qm6XX8/yNlkEKv5dm0s4plv7hZjeQ9jEGXYws+E4b/rYaO92TC2T1sBJTWsg1M1onp/G0ZZZIFulwAgezDaiby0RpMWvlnr3QGwz6RNZWoO2FBenkCF22PWxHQPqSSRiQiMC0AKXk1VGlAI2I1p8X+v8bzUYKjiqIb6uxk5EgXqHlj+M4qC2g98JIz/Q1lBVjR3xjvKKNHelcbpDRQ8gvaXFSAdBsjvbtE6YH1oqx00abwvAoz9c4mG2AXNP/BECXbcbe1tb2JTgWWo9Na4pHcvCKA2nRDyL62vlFuERWD8iw1dgJiGf6dBx8AUFs6xQhr+CXdVaMXcBSjD3vnTHKQTt+Dn/bdmKFvEGQW+gT2powdprlQRezXaDoWYdt/2GgD48g03T3G/htM3YCEv8DPAq9Q6aPO37PwSsGKEYLBGhbIpEOOSJMgt69cxRTIJztxo64Ztsl5SoRx0M5aFngnVpNV20RnTJ2+lQV8aj+RfKI0zlouaBR/QGBfD1rwth53XrPQhfo1SsOrm/joGUD7eB8vWwjkVZvYweooAt+eQT/ODoF258kaoD8ryAd048OdDyXoxQE5AmNHYVTzsi+B2i2NoH4TqnLMnWg5yiXGOTmsRRjR5yijZ2APBea0XSEbfjTLt1OIp2+vuIqydiR74oYO9ITGjsBaZquF0C87iFDhpT901KkQftI9vXdfZ6xU2HR5gRme39ppHvls2nqz9FsAdLdA3JNN9PQiHCvgJYMFeFsH9kJiGu6ww/zrlIMSgMaD93v9bkbTLHGDr3pWJKxI97v9bIEXFPM5h9GIC8DoJ+VjRhdZexEM2OHLvvA33RGBP/10CvAwYsGZrffgYw+d/ZFmHxjJ9B0Hp59bn+DMM/hWPZrF5ruIMO0Ed86vXwT0pdCDRy1T0DHihg7VS5kFNw4EPLvBIt+FYc4JyO+pU0JURYFjR2yRPFKHdnp++kX9LKM8uH/Gpi3V19fQKM9ALJod5te8ozk9CwZu0A3x42dAD2uEcXRCH9aw7A/B7cM2Cl9aFPoQWYPEU5s7AQIot01+ppOEalTuB2kz2GLejDF3y8fD1rZsocUpqnKwRzdEhCnIsZOgAzaQ04kW8930MhoV5Q+ywYNZk/o1NeMoRch25F7dg2IS+9yTQcC6E+kLb5awD63W4b+X0dbOwtxCz0PMLLqIzvlUzsnFjJ2et6B8H3Nlqltny36G5ARVK4IS7tC9yWzh4hjbuy8Jzi9J7Ri8CSMNmx4EwU6B5VHv7LZy7B0lOTtDHcvSKuj6L5cOJIjXJ4bSLu7HsWyLAPxKmbs9NUSZFiZQtFDO9qU4STKPz14Q3QqDxopd4U7rcpbhOs+NyREmF7XiO/YPbsGyJhjlCkilQ14OgxhIJUVzeCIZJDw3x/t5HzoUugLQjPWxAM6PZDP4xDOii3R5qNzqV7plgh5oQ5zR3oGdOyxx9L2XbRP/xuGOH0SccyNnUAVg0D0sztLBm8g9f70gQpNUcjgKBOREmVFkPmSNh1A3IoZOwF6Wb3P1EidIv0DbR2O1DMXM6LlkRoFq5IH+Ns+shOo3CDDdJGNiIhDHRnlmdYoWN1l1Yw1Z+wEhKOdYoXxTUijPbURGhRLtZ0cEbewsWtAwNGIUFajLJVI+98g/cCuJCBuRY2dgPvNwZAVF6RRcVoxduhmjFeWsRMwa/s20jbbv7DSrEljpzJH2KXGuE4QZWLN2AnIzI8QqdQf0JVC6sXuQIPalVUoCchkxY2dAHkHgpbvoaxQZ6RP4Fz4XKMaI7sG6PQtyCpqhLdCzjeVJe01n+cP1qSxE6jcod/ViFPyKG1GzrfwORL8rBs7AQ2L9tKml/flTsMKEmm8i/u5I5Fk2SvRkElHjJ0AvRsgk95QiNIrhXQrdCn/sM/OHzvaYuwE0g060A6nff7pBGGE7kai7l+hd/Y42vZjR2bVjZ1BayjoE96IXkY5RJ4/AA/CufmPHUsBKncvRKaf2/W1MWBRhLx/4TjOzm/CIdMxYyewYU6A7D7/KFKIiP/6kCFDevbIg5srjV0DGvtPIZdey5UzYtGzjBnaDkJ2GzvKyi3GngP0oV973wNa/btOHpFXWty1ELJyM2Cc22vsGuiFPgTR0lGq5JJ+Vgcl6OEWbeBIf7a03fgg01Fj1wDZNMWlf4HTE+mCO8TqSL/9eRE8njoNFpUD3Gz5iyuf227sBMj+Igz0dzg+CBZaYdiLCLsW+ZgFg+m1y4/I2Fl/y8bO4XN0m7Ez6K0MfQtAH7FYHukRh+zmWuSp14IcuFXG2PWgP6pA6BAIvRh8DOfvgPSLGpre0Uc0VAG0aGINzmmxCb1bPRjK2vYBhQhIZzylJeDpYMm/3bUKXjA0AKR1C3chTVoE8TGO9JeRtTj+Pxzpu+cJCJO3aaEGNHz6D1lePhDHdAEL/IcbwxMh6zTSi4NVBNDruyC9C74WadKtzX9x3AjSijH6P/4jONJS0oNxLux04bcf/PL0h7vp9xn8qyWqW1E80585WAHiU/vOk0ukgY+DlQzIoVfTR+FIn/c+jeN7ONKOyvT84j1cP0N+CHOE2XJs+NNS7jz9jj/++BH/H51RZ13Sn+ErAAAAAElFTkSuQmCC;" parent="1" vertex="1">
          <mxGeometry x="1257.28" y="740.57" width="77.33" height="78.87" as="geometry" />
        </mxCell>
        <mxCell id="Hi3oB4pyn632pyHiELuE-12" value="Payment&amp;nbsp; &amp;nbsp; &amp;nbsp;&amp;nbsp;" style="rounded=1;whiteSpace=wrap;html=1;fillColor=#dae8fc;strokeColor=#6c8ebf;strokeWidth=4;fontSize=20;fontStyle=1" parent="1" vertex="1">
          <mxGeometry x="875.95" y="580" width="230" height="60" as="geometry" />
        </mxCell>
        <mxCell id="Hi3oB4pyn632pyHiELuE-22" style="edgeStyle=entityRelationEdgeStyle;rounded=0;orthogonalLoop=1;jettySize=auto;html=1;exitX=1;exitY=0.5;exitDx=0;exitDy=0;entryX=0.051;entryY=0.837;entryDx=0;entryDy=0;entryPerimeter=0;strokeWidth=4;startArrow=classic;startFill=1;" parent="1" source="Hi3oB4pyn632pyHiELuE-12" target="28YDYIqc8vvuPCRXRERG-1" edge="1">
          <mxGeometry relative="1" as="geometry" />
        </mxCell>
        <mxCell id="Hi3oB4pyn632pyHiELuE-23" style="edgeStyle=orthogonalEdgeStyle;rounded=0;orthogonalLoop=1;jettySize=auto;html=1;exitX=1;exitY=0.5;exitDx=0;exitDy=0;entryX=-0.013;entryY=0.598;entryDx=0;entryDy=0;entryPerimeter=0;strokeWidth=4;startArrow=none;startFill=0;" parent="1" source="a8Lo-MuXTKm9hJjzGvLO-71" target="a8Lo-MuXTKm9hJjzGvLO-55" edge="1">
          <mxGeometry relative="1" as="geometry" />
        </mxCell>
        <mxCell id="Hi3oB4pyn632pyHiELuE-25" value="" style="shape=image;verticalLabelPosition=bottom;labelBackgroundColor=default;verticalAlign=top;aspect=fixed;imageAspect=0;image=data:image/png,iVBORw0KGgoAAAANSUhEUgAAAGQAAABkCAYAAABw4pVUAAAAAXNSR0IArs4c6QAAAARnQU1BAACxjwv8YQUAAAAJcEhZcwAAFiUAABYlAUlSJPAAABBQSURBVHhe7Z19eFvVfcevrreWbe3awlZK26yDFbry8sAaKJKc4A5iS7Kk+/6qeyX5LdkoKxktDzwtY6EM1rCSkad5aElaOtoV2ga6WH6X/KIXy3qx5Ni59zoBEkY6KJTRhrVpgJDE2nOuLPvqWFbsxEls936e5/uP7vcg5Xx9z/mdc64EgpiYmJiYmJiYLGcKCGJR1iEfgV83uYCoVjQAv2ZyAdFslof22ZHPwK+bXCBUm+UB1Wb5Fvy6yQVCtVl2KHb0dTCfwNdMLgCKFR3X7Ghh/zrkKviayXlGrUWuV+zoFAhEtdf8LXzd5Dyj2i27QRhAk/YaHL5uch6ZtNUQpTD0O8RW44E9JueJifXI5ZoV/V9jIOA12GdyHgArc82O7jeGoVnRt8wq6wKgWZGLFTuaLQtDl+Vx2GtyjlHXI2s0O3pgbhhoYb8V+RzsNzmHTM8Zh+AgdNksP4P9JueQSTuyHp7AS1Ks6LvKOuQKuI3JOUKzoaJiRd+BgyhJtaGb4TZGCgiC7rch16q1aKtqt+xU7ZZ+zY5+SbsaeR/sNanCbhap0eyWb8IBlMlm6ahUWYHOnqytcWk2y/cUG/rmjN+KvqTYERvsNzkNLzqR96s2y0/nBFCu/eN1yIeN7SZtyKdUu+VRzYoegf2q3fL0i59H/tToN1kA+29CLtHs6AjcoZDeMC4Ci+sSy3bFjh6HvYoV/a15gHWGHLgZ+cv5ylqD/k9Zh6wttdGsNU7Fiv6igg+EoU3ejFxZ/i4mC0KrRf5CsaOH4U6FdAxUXKU2YEJX7OipCr6CarV059ciHyp/F5MFod2EfEyzof8Nd6pReqVlq7m11EaxoXfCnpkwbJYdoLoqfxeTBZFfi/yhakUTcKdCek+trfGW2kzaam7TrOjJCj4weX+j/B1MFoVqQ/8J7lSjpockqeQvVmDoC7BPl83y7fL/usmi2L8euUyzob+b07EGqTb0bmMbzYY2wx7dZ0UT4G4zek0WiWZHvwx3rFGKzfIU3Ea1o3HYB4Yvs5paAjSbJTKnc0th2NGD+bXIH5f5r0beB+YT2KvZ0LzRZ3KGzDlkMkitRb4A+8GeFOzTvVY0DXtNzgDVjo7BnVutg1UrUgt7p/VLs8xdAqrsV90FewGaHbmhgleXccFocoaALXG4Y4EUW40b9gJAyatY0aOwH0i1WXpgv8kiAbu1lTpYtdfQsLeEZrU8B/tnVIusg/0mi0S1WbbBHatYLbtgXwnNinwe9hsUg/0miwRsnZcdIhX3rY5W2xjUbJafVAhjui1SB/tNFgkYouZ0rA29E/aV0DcjKxxCFWXpgv0mZ4Bqt3y/rGOt6POVjmdLzLeFoi8crcjFsN9kkYB9KMVuGTR27ume1dXslr4KgRSM2/QmZwH4ywZ3RqljFRuagT1GtHXI1aWvIpQHiQqw1+QM0Y9xDYdVp5ukNZslOicQe00D7DM5C8Ajo4odfVHvXCuarjaXqHbLViiQtw/YkQ/CPpOzRD8rsaITeifbUBG+XgKcEJYPV5ZtsMdkidDqkA+Ah+E0O/oKvBVfQrNawrPDG/rz5+uQP4M9JhBCy4GP+zdObpBataDUOnmfr03dIbYpT/latefEVu0xoU27NRh8+SK4HQA8wQiGJdWO3gdfA5O6ZkVP6GHY0V+DzUfYUw3Bn72R8+ce5uTss0wgG2ECo99hAjlmy5bC6to5ltuev1zeuP8uqVXtF9vUX0ltk4WiNF2+NuV1qVX5Z36j+ldw2/kA5yMpK/JHxtdKZa/+LVwr8mnjtWpwTaM3sYFcjg3kCmxgtFz+bIGVMnv5ptE1cLsVh2/jget8GycHZwOYDQFIbNPeEluVZpbVzvpBZ60W/Sp42EG1oV+M1iF/AF+fD/DXzwRSn2A35T/EyaPXsoHRu2l/9hcgCGZGmQLlTz+PB8fLHlVdUch/p14vtkweg0PQ74hWVRcIA253JoB5Aiz+qlVfQmv6Uq4p9zk2kBO5wOhDjJz7T3BnwD4A6HjGn4mCIBi5pHSBktMPw94Vg9SmfbtSCLNSCmKzckxsUXrEFuXfxeaJ24XmfYyvWdkgte2z+pr2XedrVq6AxbTs+4wvOLaWC+atXPPeDUJwzMkG8hwfHNvEB8bu5YL5rWww/wQXzD/L+PNJxp97mZOz73L6cFQckphA5ueclKv6DSuGSV1MySNv0nK6MKvUYdi3YpA2qpulCiGUJLYA7YM0URCbJwqCrvFyNe0t8GUaKypYFBfMlyuQ0zVnXvCPDjDNe/8c/ryVoH3pHbScKtDSrAh/9hLYtyIAY7PYqjzma1VOzgRx2hCgIJrgIKZDmA5iTgjBYgiVg8ieYKXM1xZTMVFS+ssgBEoamRHhT6zsn+vg2yauElr2fUNo2Te5oBBOczcsJAQ6MHqEkTNJxp/dyUjpzYycrmeD2Y/Bn+10kNLIIzNh+ICSBVKKXwb7ViyyPPFRvmW8QWie+IrQPL6dD44/IzSPRbnmMY1ryr/BNuWP8E1734ZDYIO533HB0Tc4f/4lJpAbYwOjCVbO9XCB3JNMIPd1Nji6ifZnPZycuX6hw9FCIIRkEoSgB+FLFnAh+U5dXXTBFdyKBHQg3zTOci0T18LXLiSkPHIt6UtMgSBI37AuXBwehH2rBt4/9lk+OPYU35Q/zjblX9i0Kb+snsMlheH/0IMQS0oUCGG4BfatCtjg+EYQRGlY4oL5V0Qxv6R7TmBooeX0zaSUqlreVgLnk+txPn5KD2FamBg/5HT2vB/2rni4wNgtfFNuCi5XmUD+l1wg96Ag5272bMpX3DicD3B38f7sVaSUcVNy6h5aTnXRvtRvQYVESqmTpC+5nWWjH4DbVQJrSX6QFOOHSkEQYryAcdH3MC5+C+xdFXCBsa/PVykZS1VGHn2VDWRirD+7m/Vnf0z7szuBGDmzi/GndzNyKkxJ6RQtpQ/RcvrE9MJtZr1AweWqkDhMiclG+PMYAXcVwSe6QQiEUBQmxE8SQlSGvasGRh77tF4xVShXyzb0oL0k4zYGtHouW7gZQyiVqqUqaXpOuB/+TEUKFpyP7yoFQQixgpeP/QoXY1VDXBUIQvpSJpDbRcuj7xhW0FVDAHtJZUEsOIRkgRQSBwkx8RgtJG+EPwuAZXfX4Hz8SRAELsQKuDA0hQmxHzJMYslK6BUB05q6mJWyHOvPfJfxZw/PDQIKoWxIMoSgB1EKITGF+xIHCF/8B4SYuN0rp6puw9fL4T/B+NgeEIRXGHob52Pf93ADiy4EViVgNU3LI3bKn/HTUvoBWkr9kJJSu2lppIOWkv2ElBoifCM5UhwJU9Lwjylf8nFSTP4L6UveRQjDHO5L3rCYgsAtxq708kMdXi76E4KNym7fsPkT5YBgMHoRI2cClJT5ESNntsDXzxUMkyo74DIBneLP2mgp83JpeKKk1Ddhz0IB6wRSSDhJIfE9QkgcxPmEH/aYVEFfO8jpo8Y5ghSTp2gx9SzlG25lpMTVYGI17tCCv2pSHvkoKQ9fj4vDXlIYvoMUE98h+Vge42PvldYOM9USH+/AhOTHy9/ZpCKUnHq82tqhNFFPV0zvlvaUyrYzjJopWYtla7FiihVwdugIxg3+/v7gDDgjZ4OZtaycbaLl9L2MnHmQkTNfZeV0E+3PzpSetJR6dE7FNKdsPcMQeKDojDz84NuYMFTxm1irFjqQvYaRs09S/uxv5i9fR6ZoOfk0GEbA6RsljYzPDWFmETcTQnkQxhBKa4dSELMhYLoGXsf4oX/FhMiihi0vF7G62f771y6zTc8FAcZ42p99hPJnTlZeUY9MUVIyRknp+0hphKF8qQ2kNOIGkzDYhyLFxBcJX3Jf9buhWgizQXjZ6CkPP6hg/NBjHn7otjPdRXZTkSs9TKTQyETCKy4U2p/eMTeE6YWcmFIZX+o6uE0lcD6+hhTjEiHEtxJ84jmMj8UwIa5iXPQ1QogeI7ihIzgXexPjoi/hfOygl42OeLno0xg39KCXjzbh/MB6p9SzJL8S52EifjcTLuii+m6Hry9bSCnzSUYfhgxBGB8K8A3P/LjYSgEMb246/IqbDhfcdB/Qv8GeZQvrS94wd1vDMFGLyZXz14UgSCMVvsVN9x2eDqLQqKuXg33LFlBRkWLy1fmqJcKXPEn6hh9ySpklGUrODQVLI9nndFO9PW66Z0oPgerV5aR68ivuHJ0Sh72ENHJybrVknKTjx0gx8VNMGCbxYPSCP5IJNhVddNjVSPdtayR7Dk7fCTNBFNWjuJnOT8BtVwQgFFJIvjU3iLklK8ZFTxFCdBJseWNC7E5w5kDwiatYdvdZP+MLAyoknO9b46Ejt7mpyGY31fddF9WTdZF9x2eGpPIQCk6i56ST7NmBYe3zftHnNuK/LnGQvcv7kSCvkL6UFId34WL8OBzCgkpWPnoSrBv0spUdGPByQ09j3MBOjB18xMMNPuxlB+4tV+TeRjZyr5uNfM3D9G91U5En3EzfM24m0umhInk3E37NTfdOGSbn2XmhLIRiEA6q55iL7H6qger4a/jfZmQD1XllA9bxwgasfVFrmwsGeJgMFxL3EFwsQwjRqdOtoosLuKECxpU0qMtbEjsAqb/gAWKAImXSy1Q9gJKqh9BIdZ1wEV3dTqJHrlvAuXsD1tHcQIR+04B3VvyFomUPKUU/iQnxOzA+9gzODb644BC4eULQg6gQQlkQZRVSeQhE19FGsmvARXY/4CK766sNS0Yaia7PNhChbifRWXDg7VMNWPvq+B+OgUMgrzBQjzFDmz3c4HYP1x/ycIOKm+s/Wj2E8iDmCwHISfW92Uj2TjaSvQMuqvuJRrLnrkayy1nPhC/fsmXLgp/tBbiprisceGiXg2g/4cA7imHgoX+EfauSumD0IrAo89KD13jY/nUeKux1MxG2qP6Amw1v0kWFN7mZsOAmw4yb6t0A1g5OuudvQEW0FNscIDQXGbrVQXTuqfd2nCoGAbTnRAMe+hLsX5GAf+RyPqEDDzo4iA6bE+/c1oC3vzobQqgob2i/09NR8Qs+KxaSjF/m5fs9Hnbwbi8z0IrRkRs9no4Fn4EvJWCx14h33eAgOv7eiXfsdnhDv54NYTaIDZ7Q/9Rj7XfW1UUrfgl11eDlwrVeZmCbmwlPeujwITcTbvfQ4UfdTOQfvHSfx0v3XtPA9J31j8a43V0fcdChaxxkl7sB7/wKmA+cRMdIA9F5zEEYAygL4VQD1h5rwNqbz8XaaNnjZcKXe+jwHSAUfe1gnKzJnvfcdN9rjVSf4iR64y6iu99Fdf/MRfXudlHdRZFFOcnOThfZFXPh3WMNeMdhJ97xjpPoKoDKqCSHXiVVCAHfc2wDtifS4NlzdwO+Z+V/43YpwfG+NY10L+Wiere66O6Qi+g+4CR6j5fWDi4gEqgbEuj8kmZDKJaqsyHUe0PHHVj7hAMP/ajeG7rHge9Z/3t5J5wNYNIFZasD7/2Ck+xhnETP7S6y+34n2bXdgXfuLKrrSX0+IEI/cOAdOx1Yx1YHHnrAgbVvdmIhtt4bqm2kuj61dtPOs67ETExMTExMTExMTExMTExMTEzOG/8PGL/4Oar8oakAAAAASUVORK5CYII=;" parent="1" vertex="1">
          <mxGeometry x="1020" y="155" width="50" height="50" as="geometry" />
        </mxCell>
        <mxCell id="Hi3oB4pyn632pyHiELuE-26" value="" style="shape=image;verticalLabelPosition=bottom;labelBackgroundColor=default;verticalAlign=top;aspect=fixed;imageAspect=0;image=data:image/png,iVBORw0KGgoAAAANSUhEUgAAAGQAAABkCAYAAABw4pVUAAAAAXNSR0IArs4c6QAAAARnQU1BAACxjwv8YQUAAAAJcEhZcwAAFiUAABYlAUlSJPAAABBQSURBVHhe7Z19eFvVfcevrreWbe3awlZK26yDFbry8sAaKJKc4A5iS7Kk+/6qeyX5LdkoKxktDzwtY6EM1rCSkad5aElaOtoV2ga6WH6X/KIXy3qx5Ni59zoBEkY6KJTRhrVpgJDE2nOuLPvqWFbsxEls936e5/uP7vcg5Xx9z/mdc64EgpiYmJiYmJiYLGcKCGJR1iEfgV83uYCoVjQAv2ZyAdFslof22ZHPwK+bXCBUm+UB1Wb5Fvy6yQVCtVl2KHb0dTCfwNdMLgCKFR3X7Ghh/zrkKviayXlGrUWuV+zoFAhEtdf8LXzd5Dyj2i27QRhAk/YaHL5uch6ZtNUQpTD0O8RW44E9JueJifXI5ZoV/V9jIOA12GdyHgArc82O7jeGoVnRt8wq6wKgWZGLFTuaLQtDl+Vx2GtyjlHXI2s0O3pgbhhoYb8V+RzsNzmHTM8Zh+AgdNksP4P9JueQSTuyHp7AS1Ks6LvKOuQKuI3JOUKzoaJiRd+BgyhJtaGb4TZGCgiC7rch16q1aKtqt+xU7ZZ+zY5+SbsaeR/sNanCbhap0eyWb8IBlMlm6ahUWYHOnqytcWk2y/cUG/rmjN+KvqTYERvsNzkNLzqR96s2y0/nBFCu/eN1yIeN7SZtyKdUu+VRzYoegf2q3fL0i59H/tToN1kA+29CLtHs6AjcoZDeMC4Ci+sSy3bFjh6HvYoV/a15gHWGHLgZ+cv5ylqD/k9Zh6wttdGsNU7Fiv6igg+EoU3ejFxZ/i4mC0KrRf5CsaOH4U6FdAxUXKU2YEJX7OipCr6CarV059ciHyp/F5MFod2EfEyzof8Nd6pReqVlq7m11EaxoXfCnpkwbJYdoLoqfxeTBZFfi/yhakUTcKdCek+trfGW2kzaam7TrOjJCj4weX+j/B1MFoVqQ/8J7lSjpockqeQvVmDoC7BPl83y7fL/usmi2L8euUyzob+b07EGqTb0bmMbzYY2wx7dZ0UT4G4zek0WiWZHvwx3rFGKzfIU3Ea1o3HYB4Yvs5paAjSbJTKnc0th2NGD+bXIH5f5r0beB+YT2KvZ0LzRZ3KGzDlkMkitRb4A+8GeFOzTvVY0DXtNzgDVjo7BnVutg1UrUgt7p/VLs8xdAqrsV90FewGaHbmhgleXccFocoaALXG4Y4EUW40b9gJAyatY0aOwH0i1WXpgv8kiAbu1lTpYtdfQsLeEZrU8B/tnVIusg/0mi0S1WbbBHatYLbtgXwnNinwe9hsUg/0miwRsnZcdIhX3rY5W2xjUbJafVAhjui1SB/tNFgkYouZ0rA29E/aV0DcjKxxCFWXpgv0mZ4Bqt3y/rGOt6POVjmdLzLeFoi8crcjFsN9kkYB9KMVuGTR27ume1dXslr4KgRSM2/QmZwH4ywZ3RqljFRuagT1GtHXI1aWvIpQHiQqw1+QM0Y9xDYdVp5ukNZslOicQe00D7DM5C8Ajo4odfVHvXCuarjaXqHbLViiQtw/YkQ/CPpOzRD8rsaITeifbUBG+XgKcEJYPV5ZtsMdkidDqkA+Ah+E0O/oKvBVfQrNawrPDG/rz5+uQP4M9JhBCy4GP+zdObpBataDUOnmfr03dIbYpT/latefEVu0xoU27NRh8+SK4HQA8wQiGJdWO3gdfA5O6ZkVP6GHY0V+DzUfYUw3Bn72R8+ce5uTss0wgG2ECo99hAjlmy5bC6to5ltuev1zeuP8uqVXtF9vUX0ltk4WiNF2+NuV1qVX5Z36j+ldw2/kA5yMpK/JHxtdKZa/+LVwr8mnjtWpwTaM3sYFcjg3kCmxgtFz+bIGVMnv5ptE1cLsVh2/jget8GycHZwOYDQFIbNPeEluVZpbVzvpBZ60W/Sp42EG1oV+M1iF/AF+fD/DXzwRSn2A35T/EyaPXsoHRu2l/9hcgCGZGmQLlTz+PB8fLHlVdUch/p14vtkweg0PQ74hWVRcIA253JoB5Aiz+qlVfQmv6Uq4p9zk2kBO5wOhDjJz7T3BnwD4A6HjGn4mCIBi5pHSBktMPw94Vg9SmfbtSCLNSCmKzckxsUXrEFuXfxeaJ24XmfYyvWdkgte2z+pr2XedrVq6AxbTs+4wvOLaWC+atXPPeDUJwzMkG8hwfHNvEB8bu5YL5rWww/wQXzD/L+PNJxp97mZOz73L6cFQckphA5ueclKv6DSuGSV1MySNv0nK6MKvUYdi3YpA2qpulCiGUJLYA7YM0URCbJwqCrvFyNe0t8GUaKypYFBfMlyuQ0zVnXvCPDjDNe/8c/ryVoH3pHbScKtDSrAh/9hLYtyIAY7PYqjzma1VOzgRx2hCgIJrgIKZDmA5iTgjBYgiVg8ieYKXM1xZTMVFS+ssgBEoamRHhT6zsn+vg2yauElr2fUNo2Te5oBBOczcsJAQ6MHqEkTNJxp/dyUjpzYycrmeD2Y/Bn+10kNLIIzNh+ICSBVKKXwb7ViyyPPFRvmW8QWie+IrQPL6dD44/IzSPRbnmMY1ryr/BNuWP8E1734ZDYIO533HB0Tc4f/4lJpAbYwOjCVbO9XCB3JNMIPd1Nji6ifZnPZycuX6hw9FCIIRkEoSgB+FLFnAh+U5dXXTBFdyKBHQg3zTOci0T18LXLiSkPHIt6UtMgSBI37AuXBwehH2rBt4/9lk+OPYU35Q/zjblX9i0Kb+snsMlheH/0IMQS0oUCGG4BfatCtjg+EYQRGlY4oL5V0Qxv6R7TmBooeX0zaSUqlreVgLnk+txPn5KD2FamBg/5HT2vB/2rni4wNgtfFNuCi5XmUD+l1wg96Ag5272bMpX3DicD3B38f7sVaSUcVNy6h5aTnXRvtRvQYVESqmTpC+5nWWjH4DbVQJrSX6QFOOHSkEQYryAcdH3MC5+C+xdFXCBsa/PVykZS1VGHn2VDWRirD+7m/Vnf0z7szuBGDmzi/GndzNyKkxJ6RQtpQ/RcvrE9MJtZr1AweWqkDhMiclG+PMYAXcVwSe6QQiEUBQmxE8SQlSGvasGRh77tF4xVShXyzb0oL0k4zYGtHouW7gZQyiVqqUqaXpOuB/+TEUKFpyP7yoFQQixgpeP/QoXY1VDXBUIQvpSJpDbRcuj7xhW0FVDAHtJZUEsOIRkgRQSBwkx8RgtJG+EPwuAZXfX4Hz8SRAELsQKuDA0hQmxHzJMYslK6BUB05q6mJWyHOvPfJfxZw/PDQIKoWxIMoSgB1EKITGF+xIHCF/8B4SYuN0rp6puw9fL4T/B+NgeEIRXGHob52Pf93ADiy4EViVgNU3LI3bKn/HTUvoBWkr9kJJSu2lppIOWkv2ElBoifCM5UhwJU9Lwjylf8nFSTP4L6UveRQjDHO5L3rCYgsAtxq708kMdXi76E4KNym7fsPkT5YBgMHoRI2cClJT5ESNntsDXzxUMkyo74DIBneLP2mgp83JpeKKk1Ddhz0IB6wRSSDhJIfE9QkgcxPmEH/aYVEFfO8jpo8Y5ghSTp2gx9SzlG25lpMTVYGI17tCCv2pSHvkoKQ9fj4vDXlIYvoMUE98h+Vge42PvldYOM9USH+/AhOTHy9/ZpCKUnHq82tqhNFFPV0zvlvaUyrYzjJopWYtla7FiihVwdugIxg3+/v7gDDgjZ4OZtaycbaLl9L2MnHmQkTNfZeV0E+3PzpSetJR6dE7FNKdsPcMQeKDojDz84NuYMFTxm1irFjqQvYaRs09S/uxv5i9fR6ZoOfk0GEbA6RsljYzPDWFmETcTQnkQxhBKa4dSELMhYLoGXsf4oX/FhMiihi0vF7G62f771y6zTc8FAcZ42p99hPJnTlZeUY9MUVIyRknp+0hphKF8qQ2kNOIGkzDYhyLFxBcJX3Jf9buhWgizQXjZ6CkPP6hg/NBjHn7otjPdRXZTkSs9TKTQyETCKy4U2p/eMTeE6YWcmFIZX+o6uE0lcD6+hhTjEiHEtxJ84jmMj8UwIa5iXPQ1QogeI7ihIzgXexPjoi/hfOygl42OeLno0xg39KCXjzbh/MB6p9SzJL8S52EifjcTLuii+m6Hry9bSCnzSUYfhgxBGB8K8A3P/LjYSgEMb246/IqbDhfcdB/Qv8GeZQvrS94wd1vDMFGLyZXz14UgSCMVvsVN9x2eDqLQqKuXg33LFlBRkWLy1fmqJcKXPEn6hh9ySpklGUrODQVLI9nndFO9PW66Z0oPgerV5aR68ivuHJ0Sh72ENHJybrVknKTjx0gx8VNMGCbxYPSCP5IJNhVddNjVSPdtayR7Dk7fCTNBFNWjuJnOT8BtVwQgFFJIvjU3iLklK8ZFTxFCdBJseWNC7E5w5kDwiatYdvdZP+MLAyoknO9b46Ejt7mpyGY31fddF9WTdZF9x2eGpPIQCk6i56ST7NmBYe3zftHnNuK/LnGQvcv7kSCvkL6UFId34WL8OBzCgkpWPnoSrBv0spUdGPByQ09j3MBOjB18xMMNPuxlB+4tV+TeRjZyr5uNfM3D9G91U5En3EzfM24m0umhInk3E37NTfdOGSbn2XmhLIRiEA6q55iL7H6qger4a/jfZmQD1XllA9bxwgasfVFrmwsGeJgMFxL3EFwsQwjRqdOtoosLuKECxpU0qMtbEjsAqb/gAWKAImXSy1Q9gJKqh9BIdZ1wEV3dTqJHrlvAuXsD1tHcQIR+04B3VvyFomUPKUU/iQnxOzA+9gzODb644BC4eULQg6gQQlkQZRVSeQhE19FGsmvARXY/4CK766sNS0Yaia7PNhChbifRWXDg7VMNWPvq+B+OgUMgrzBQjzFDmz3c4HYP1x/ycIOKm+s/Wj2E8iDmCwHISfW92Uj2TjaSvQMuqvuJRrLnrkayy1nPhC/fsmXLgp/tBbiprisceGiXg2g/4cA7imHgoX+EfauSumD0IrAo89KD13jY/nUeKux1MxG2qP6Amw1v0kWFN7mZsOAmw4yb6t0A1g5OuudvQEW0FNscIDQXGbrVQXTuqfd2nCoGAbTnRAMe+hLsX5GAf+RyPqEDDzo4iA6bE+/c1oC3vzobQqgob2i/09NR8Qs+KxaSjF/m5fs9Hnbwbi8z0IrRkRs9no4Fn4EvJWCx14h33eAgOv7eiXfsdnhDv54NYTaIDZ7Q/9Rj7XfW1UUrfgl11eDlwrVeZmCbmwlPeujwITcTbvfQ4UfdTOQfvHSfx0v3XtPA9J31j8a43V0fcdChaxxkl7sB7/wKmA+cRMdIA9F5zEEYAygL4VQD1h5rwNqbz8XaaNnjZcKXe+jwHSAUfe1gnKzJnvfcdN9rjVSf4iR64y6iu99Fdf/MRfXudlHdRZFFOcnOThfZFXPh3WMNeMdhJ97xjpPoKoDKqCSHXiVVCAHfc2wDtifS4NlzdwO+Z+V/43YpwfG+NY10L+Wiere66O6Qi+g+4CR6j5fWDi4gEqgbEuj8kmZDKJaqsyHUe0PHHVj7hAMP/ajeG7rHge9Z/3t5J5wNYNIFZasD7/2Ck+xhnETP7S6y+34n2bXdgXfuLKrrSX0+IEI/cOAdOx1Yx1YHHnrAgbVvdmIhtt4bqm2kuj61dtPOs67ETExMTExMTExMTExMTExMTEzOG/8PGL/4Oar8oakAAAAASUVORK5CYII=;" parent="1" vertex="1">
          <mxGeometry x="1020" y="245" width="50" height="50" as="geometry" />
        </mxCell>
        <mxCell id="Hi3oB4pyn632pyHiELuE-27" value="" style="shape=image;verticalLabelPosition=bottom;labelBackgroundColor=default;verticalAlign=top;aspect=fixed;imageAspect=0;image=data:image/png,iVBORw0KGgoAAAANSUhEUgAAAGQAAABkCAYAAABw4pVUAAAAAXNSR0IArs4c6QAAAARnQU1BAACxjwv8YQUAAAAJcEhZcwAAFiUAABYlAUlSJPAAABBQSURBVHhe7Z19eFvVfcevrreWbe3awlZK26yDFbry8sAaKJKc4A5iS7Kk+/6qeyX5LdkoKxktDzwtY6EM1rCSkad5aElaOtoV2ga6WH6X/KIXy3qx5Ni59zoBEkY6KJTRhrVpgJDE2nOuLPvqWFbsxEls936e5/uP7vcg5Xx9z/mdc64EgpiYmJiYmJiYLGcKCGJR1iEfgV83uYCoVjQAv2ZyAdFslof22ZHPwK+bXCBUm+UB1Wb5Fvy6yQVCtVl2KHb0dTCfwNdMLgCKFR3X7Ghh/zrkKviayXlGrUWuV+zoFAhEtdf8LXzd5Dyj2i27QRhAk/YaHL5uch6ZtNUQpTD0O8RW44E9JueJifXI5ZoV/V9jIOA12GdyHgArc82O7jeGoVnRt8wq6wKgWZGLFTuaLQtDl+Vx2GtyjlHXI2s0O3pgbhhoYb8V+RzsNzmHTM8Zh+AgdNksP4P9JueQSTuyHp7AS1Ks6LvKOuQKuI3JOUKzoaJiRd+BgyhJtaGb4TZGCgiC7rch16q1aKtqt+xU7ZZ+zY5+SbsaeR/sNanCbhap0eyWb8IBlMlm6ahUWYHOnqytcWk2y/cUG/rmjN+KvqTYERvsNzkNLzqR96s2y0/nBFCu/eN1yIeN7SZtyKdUu+VRzYoegf2q3fL0i59H/tToN1kA+29CLtHs6AjcoZDeMC4Ci+sSy3bFjh6HvYoV/a15gHWGHLgZ+cv5ylqD/k9Zh6wttdGsNU7Fiv6igg+EoU3ejFxZ/i4mC0KrRf5CsaOH4U6FdAxUXKU2YEJX7OipCr6CarV059ciHyp/F5MFod2EfEyzof8Nd6pReqVlq7m11EaxoXfCnpkwbJYdoLoqfxeTBZFfi/yhakUTcKdCek+trfGW2kzaam7TrOjJCj4weX+j/B1MFoVqQ/8J7lSjpockqeQvVmDoC7BPl83y7fL/usmi2L8euUyzob+b07EGqTb0bmMbzYY2wx7dZ0UT4G4zek0WiWZHvwx3rFGKzfIU3Ea1o3HYB4Yvs5paAjSbJTKnc0th2NGD+bXIH5f5r0beB+YT2KvZ0LzRZ3KGzDlkMkitRb4A+8GeFOzTvVY0DXtNzgDVjo7BnVutg1UrUgt7p/VLs8xdAqrsV90FewGaHbmhgleXccFocoaALXG4Y4EUW40b9gJAyatY0aOwH0i1WXpgv8kiAbu1lTpYtdfQsLeEZrU8B/tnVIusg/0mi0S1WbbBHatYLbtgXwnNinwe9hsUg/0miwRsnZcdIhX3rY5W2xjUbJafVAhjui1SB/tNFgkYouZ0rA29E/aV0DcjKxxCFWXpgv0mZ4Bqt3y/rGOt6POVjmdLzLeFoi8crcjFsN9kkYB9KMVuGTR27ume1dXslr4KgRSM2/QmZwH4ywZ3RqljFRuagT1GtHXI1aWvIpQHiQqw1+QM0Y9xDYdVp5ukNZslOicQe00D7DM5C8Ajo4odfVHvXCuarjaXqHbLViiQtw/YkQ/CPpOzRD8rsaITeifbUBG+XgKcEJYPV5ZtsMdkidDqkA+Ah+E0O/oKvBVfQrNawrPDG/rz5+uQP4M9JhBCy4GP+zdObpBataDUOnmfr03dIbYpT/latefEVu0xoU27NRh8+SK4HQA8wQiGJdWO3gdfA5O6ZkVP6GHY0V+DzUfYUw3Bn72R8+ce5uTss0wgG2ECo99hAjlmy5bC6to5ltuev1zeuP8uqVXtF9vUX0ltk4WiNF2+NuV1qVX5Z36j+ldw2/kA5yMpK/JHxtdKZa/+LVwr8mnjtWpwTaM3sYFcjg3kCmxgtFz+bIGVMnv5ptE1cLsVh2/jget8GycHZwOYDQFIbNPeEluVZpbVzvpBZ60W/Sp42EG1oV+M1iF/AF+fD/DXzwRSn2A35T/EyaPXsoHRu2l/9hcgCGZGmQLlTz+PB8fLHlVdUch/p14vtkweg0PQ74hWVRcIA253JoB5Aiz+qlVfQmv6Uq4p9zk2kBO5wOhDjJz7T3BnwD4A6HjGn4mCIBi5pHSBktMPw94Vg9SmfbtSCLNSCmKzckxsUXrEFuXfxeaJ24XmfYyvWdkgte2z+pr2XedrVq6AxbTs+4wvOLaWC+atXPPeDUJwzMkG8hwfHNvEB8bu5YL5rWww/wQXzD/L+PNJxp97mZOz73L6cFQckphA5ueclKv6DSuGSV1MySNv0nK6MKvUYdi3YpA2qpulCiGUJLYA7YM0URCbJwqCrvFyNe0t8GUaKypYFBfMlyuQ0zVnXvCPDjDNe/8c/ryVoH3pHbScKtDSrAh/9hLYtyIAY7PYqjzma1VOzgRx2hCgIJrgIKZDmA5iTgjBYgiVg8ieYKXM1xZTMVFS+ssgBEoamRHhT6zsn+vg2yauElr2fUNo2Te5oBBOczcsJAQ6MHqEkTNJxp/dyUjpzYycrmeD2Y/Bn+10kNLIIzNh+ICSBVKKXwb7ViyyPPFRvmW8QWie+IrQPL6dD44/IzSPRbnmMY1ryr/BNuWP8E1734ZDYIO533HB0Tc4f/4lJpAbYwOjCVbO9XCB3JNMIPd1Nji6ifZnPZycuX6hw9FCIIRkEoSgB+FLFnAh+U5dXXTBFdyKBHQg3zTOci0T18LXLiSkPHIt6UtMgSBI37AuXBwehH2rBt4/9lk+OPYU35Q/zjblX9i0Kb+snsMlheH/0IMQS0oUCGG4BfatCtjg+EYQRGlY4oL5V0Qxv6R7TmBooeX0zaSUqlreVgLnk+txPn5KD2FamBg/5HT2vB/2rni4wNgtfFNuCi5XmUD+l1wg96Ag5272bMpX3DicD3B38f7sVaSUcVNy6h5aTnXRvtRvQYVESqmTpC+5nWWjH4DbVQJrSX6QFOOHSkEQYryAcdH3MC5+C+xdFXCBsa/PVykZS1VGHn2VDWRirD+7m/Vnf0z7szuBGDmzi/GndzNyKkxJ6RQtpQ/RcvrE9MJtZr1AweWqkDhMiclG+PMYAXcVwSe6QQiEUBQmxE8SQlSGvasGRh77tF4xVShXyzb0oL0k4zYGtHouW7gZQyiVqqUqaXpOuB/+TEUKFpyP7yoFQQixgpeP/QoXY1VDXBUIQvpSJpDbRcuj7xhW0FVDAHtJZUEsOIRkgRQSBwkx8RgtJG+EPwuAZXfX4Hz8SRAELsQKuDA0hQmxHzJMYslK6BUB05q6mJWyHOvPfJfxZw/PDQIKoWxIMoSgB1EKITGF+xIHCF/8B4SYuN0rp6puw9fL4T/B+NgeEIRXGHob52Pf93ADiy4EViVgNU3LI3bKn/HTUvoBWkr9kJJSu2lppIOWkv2ElBoifCM5UhwJU9Lwjylf8nFSTP4L6UveRQjDHO5L3rCYgsAtxq708kMdXi76E4KNym7fsPkT5YBgMHoRI2cClJT5ESNntsDXzxUMkyo74DIBneLP2mgp83JpeKKk1Ddhz0IB6wRSSDhJIfE9QkgcxPmEH/aYVEFfO8jpo8Y5ghSTp2gx9SzlG25lpMTVYGI17tCCv2pSHvkoKQ9fj4vDXlIYvoMUE98h+Vge42PvldYOM9USH+/AhOTHy9/ZpCKUnHq82tqhNFFPV0zvlvaUyrYzjJopWYtla7FiihVwdugIxg3+/v7gDDgjZ4OZtaycbaLl9L2MnHmQkTNfZeV0E+3PzpSetJR6dE7FNKdsPcMQeKDojDz84NuYMFTxm1irFjqQvYaRs09S/uxv5i9fR6ZoOfk0GEbA6RsljYzPDWFmETcTQnkQxhBKa4dSELMhYLoGXsf4oX/FhMiihi0vF7G62f771y6zTc8FAcZ42p99hPJnTlZeUY9MUVIyRknp+0hphKF8qQ2kNOIGkzDYhyLFxBcJX3Jf9buhWgizQXjZ6CkPP6hg/NBjHn7otjPdRXZTkSs9TKTQyETCKy4U2p/eMTeE6YWcmFIZX+o6uE0lcD6+hhTjEiHEtxJ84jmMj8UwIa5iXPQ1QogeI7ihIzgXexPjoi/hfOygl42OeLno0xg39KCXjzbh/MB6p9SzJL8S52EifjcTLuii+m6Hry9bSCnzSUYfhgxBGB8K8A3P/LjYSgEMb246/IqbDhfcdB/Qv8GeZQvrS94wd1vDMFGLyZXz14UgSCMVvsVN9x2eDqLQqKuXg33LFlBRkWLy1fmqJcKXPEn6hh9ySpklGUrODQVLI9nndFO9PW66Z0oPgerV5aR68ivuHJ0Sh72ENHJybrVknKTjx0gx8VNMGCbxYPSCP5IJNhVddNjVSPdtayR7Dk7fCTNBFNWjuJnOT8BtVwQgFFJIvjU3iLklK8ZFTxFCdBJseWNC7E5w5kDwiatYdvdZP+MLAyoknO9b46Ejt7mpyGY31fddF9WTdZF9x2eGpPIQCk6i56ST7NmBYe3zftHnNuK/LnGQvcv7kSCvkL6UFId34WL8OBzCgkpWPnoSrBv0spUdGPByQ09j3MBOjB18xMMNPuxlB+4tV+TeRjZyr5uNfM3D9G91U5En3EzfM24m0umhInk3E37NTfdOGSbn2XmhLIRiEA6q55iL7H6qger4a/jfZmQD1XllA9bxwgasfVFrmwsGeJgMFxL3EFwsQwjRqdOtoosLuKECxpU0qMtbEjsAqb/gAWKAImXSy1Q9gJKqh9BIdZ1wEV3dTqJHrlvAuXsD1tHcQIR+04B3VvyFomUPKUU/iQnxOzA+9gzODb644BC4eULQg6gQQlkQZRVSeQhE19FGsmvARXY/4CK766sNS0Yaia7PNhChbifRWXDg7VMNWPvq+B+OgUMgrzBQjzFDmz3c4HYP1x/ycIOKm+s/Wj2E8iDmCwHISfW92Uj2TjaSvQMuqvuJRrLnrkayy1nPhC/fsmXLgp/tBbiprisceGiXg2g/4cA7imHgoX+EfauSumD0IrAo89KD13jY/nUeKux1MxG2qP6Amw1v0kWFN7mZsOAmw4yb6t0A1g5OuudvQEW0FNscIDQXGbrVQXTuqfd2nCoGAbTnRAMe+hLsX5GAf+RyPqEDDzo4iA6bE+/c1oC3vzobQqgob2i/09NR8Qs+KxaSjF/m5fs9Hnbwbi8z0IrRkRs9no4Fn4EvJWCx14h33eAgOv7eiXfsdnhDv54NYTaIDZ7Q/9Rj7XfW1UUrfgl11eDlwrVeZmCbmwlPeujwITcTbvfQ4UfdTOQfvHSfx0v3XtPA9J31j8a43V0fcdChaxxkl7sB7/wKmA+cRMdIA9F5zEEYAygL4VQD1h5rwNqbz8XaaNnjZcKXe+jwHSAUfe1gnKzJnvfcdN9rjVSf4iR64y6iu99Fdf/MRfXudlHdRZFFOcnOThfZFXPh3WMNeMdhJ97xjpPoKoDKqCSHXiVVCAHfc2wDtifS4NlzdwO+Z+V/43YpwfG+NY10L+Wiere66O6Qi+g+4CR6j5fWDi4gEqgbEuj8kmZDKJaqsyHUe0PHHVj7hAMP/ajeG7rHge9Z/3t5J5wNYNIFZasD7/2Ck+xhnETP7S6y+34n2bXdgXfuLKrrSX0+IEI/cOAdOx1Yx1YHHnrAgbVvdmIhtt4bqm2kuj61dtPOs67ETExMTExMTExMTExMTExMTEzOG/8PGL/4Oar8oakAAAAASUVORK5CYII=;" parent="1" vertex="1">
          <mxGeometry x="1020" y="405" width="50" height="50" as="geometry" />
        </mxCell>
        <mxCell id="Hi3oB4pyn632pyHiELuE-28" value="" style="shape=image;verticalLabelPosition=bottom;labelBackgroundColor=default;verticalAlign=top;aspect=fixed;imageAspect=0;image=data:image/png,iVBORw0KGgoAAAANSUhEUgAAAGQAAABkCAYAAABw4pVUAAAAAXNSR0IArs4c6QAAAARnQU1BAACxjwv8YQUAAAAJcEhZcwAAFiUAABYlAUlSJPAAABBQSURBVHhe7Z19eFvVfcevrreWbe3awlZK26yDFbry8sAaKJKc4A5iS7Kk+/6qeyX5LdkoKxktDzwtY6EM1rCSkad5aElaOtoV2ga6WH6X/KIXy3qx5Ni59zoBEkY6KJTRhrVpgJDE2nOuLPvqWFbsxEls936e5/uP7vcg5Xx9z/mdc64EgpiYmJiYmJiYLGcKCGJR1iEfgV83uYCoVjQAv2ZyAdFslof22ZHPwK+bXCBUm+UB1Wb5Fvy6yQVCtVl2KHb0dTCfwNdMLgCKFR3X7Ghh/zrkKviayXlGrUWuV+zoFAhEtdf8LXzd5Dyj2i27QRhAk/YaHL5uch6ZtNUQpTD0O8RW44E9JueJifXI5ZoV/V9jIOA12GdyHgArc82O7jeGoVnRt8wq6wKgWZGLFTuaLQtDl+Vx2GtyjlHXI2s0O3pgbhhoYb8V+RzsNzmHTM8Zh+AgdNksP4P9JueQSTuyHp7AS1Ks6LvKOuQKuI3JOUKzoaJiRd+BgyhJtaGb4TZGCgiC7rch16q1aKtqt+xU7ZZ+zY5+SbsaeR/sNanCbhap0eyWb8IBlMlm6ahUWYHOnqytcWk2y/cUG/rmjN+KvqTYERvsNzkNLzqR96s2y0/nBFCu/eN1yIeN7SZtyKdUu+VRzYoegf2q3fL0i59H/tToN1kA+29CLtHs6AjcoZDeMC4Ci+sSy3bFjh6HvYoV/a15gHWGHLgZ+cv5ylqD/k9Zh6wttdGsNU7Fiv6igg+EoU3ejFxZ/i4mC0KrRf5CsaOH4U6FdAxUXKU2YEJX7OipCr6CarV059ciHyp/F5MFod2EfEyzof8Nd6pReqVlq7m11EaxoXfCnpkwbJYdoLoqfxeTBZFfi/yhakUTcKdCek+trfGW2kzaam7TrOjJCj4weX+j/B1MFoVqQ/8J7lSjpockqeQvVmDoC7BPl83y7fL/usmi2L8euUyzob+b07EGqTb0bmMbzYY2wx7dZ0UT4G4zek0WiWZHvwx3rFGKzfIU3Ea1o3HYB4Yvs5paAjSbJTKnc0th2NGD+bXIH5f5r0beB+YT2KvZ0LzRZ3KGzDlkMkitRb4A+8GeFOzTvVY0DXtNzgDVjo7BnVutg1UrUgt7p/VLs8xdAqrsV90FewGaHbmhgleXccFocoaALXG4Y4EUW40b9gJAyatY0aOwH0i1WXpgv8kiAbu1lTpYtdfQsLeEZrU8B/tnVIusg/0mi0S1WbbBHatYLbtgXwnNinwe9hsUg/0miwRsnZcdIhX3rY5W2xjUbJafVAhjui1SB/tNFgkYouZ0rA29E/aV0DcjKxxCFWXpgv0mZ4Bqt3y/rGOt6POVjmdLzLeFoi8crcjFsN9kkYB9KMVuGTR27ume1dXslr4KgRSM2/QmZwH4ywZ3RqljFRuagT1GtHXI1aWvIpQHiQqw1+QM0Y9xDYdVp5ukNZslOicQe00D7DM5C8Ajo4odfVHvXCuarjaXqHbLViiQtw/YkQ/CPpOzRD8rsaITeifbUBG+XgKcEJYPV5ZtsMdkidDqkA+Ah+E0O/oKvBVfQrNawrPDG/rz5+uQP4M9JhBCy4GP+zdObpBataDUOnmfr03dIbYpT/latefEVu0xoU27NRh8+SK4HQA8wQiGJdWO3gdfA5O6ZkVP6GHY0V+DzUfYUw3Bn72R8+ce5uTss0wgG2ECo99hAjlmy5bC6to5ltuev1zeuP8uqVXtF9vUX0ltk4WiNF2+NuV1qVX5Z36j+ldw2/kA5yMpK/JHxtdKZa/+LVwr8mnjtWpwTaM3sYFcjg3kCmxgtFz+bIGVMnv5ptE1cLsVh2/jget8GycHZwOYDQFIbNPeEluVZpbVzvpBZ60W/Sp42EG1oV+M1iF/AF+fD/DXzwRSn2A35T/EyaPXsoHRu2l/9hcgCGZGmQLlTz+PB8fLHlVdUch/p14vtkweg0PQ74hWVRcIA253JoB5Aiz+qlVfQmv6Uq4p9zk2kBO5wOhDjJz7T3BnwD4A6HjGn4mCIBi5pHSBktMPw94Vg9SmfbtSCLNSCmKzckxsUXrEFuXfxeaJ24XmfYyvWdkgte2z+pr2XedrVq6AxbTs+4wvOLaWC+atXPPeDUJwzMkG8hwfHNvEB8bu5YL5rWww/wQXzD/L+PNJxp97mZOz73L6cFQckphA5ueclKv6DSuGSV1MySNv0nK6MKvUYdi3YpA2qpulCiGUJLYA7YM0URCbJwqCrvFyNe0t8GUaKypYFBfMlyuQ0zVnXvCPDjDNe/8c/ryVoH3pHbScKtDSrAh/9hLYtyIAY7PYqjzma1VOzgRx2hCgIJrgIKZDmA5iTgjBYgiVg8ieYKXM1xZTMVFS+ssgBEoamRHhT6zsn+vg2yauElr2fUNo2Te5oBBOczcsJAQ6MHqEkTNJxp/dyUjpzYycrmeD2Y/Bn+10kNLIIzNh+ICSBVKKXwb7ViyyPPFRvmW8QWie+IrQPL6dD44/IzSPRbnmMY1ryr/BNuWP8E1734ZDYIO533HB0Tc4f/4lJpAbYwOjCVbO9XCB3JNMIPd1Nji6ifZnPZycuX6hw9FCIIRkEoSgB+FLFnAh+U5dXXTBFdyKBHQg3zTOci0T18LXLiSkPHIt6UtMgSBI37AuXBwehH2rBt4/9lk+OPYU35Q/zjblX9i0Kb+snsMlheH/0IMQS0oUCGG4BfatCtjg+EYQRGlY4oL5V0Qxv6R7TmBooeX0zaSUqlreVgLnk+txPn5KD2FamBg/5HT2vB/2rni4wNgtfFNuCi5XmUD+l1wg96Ag5272bMpX3DicD3B38f7sVaSUcVNy6h5aTnXRvtRvQYVESqmTpC+5nWWjH4DbVQJrSX6QFOOHSkEQYryAcdH3MC5+C+xdFXCBsa/PVykZS1VGHn2VDWRirD+7m/Vnf0z7szuBGDmzi/GndzNyKkxJ6RQtpQ/RcvrE9MJtZr1AweWqkDhMiclG+PMYAXcVwSe6QQiEUBQmxE8SQlSGvasGRh77tF4xVShXyzb0oL0k4zYGtHouW7gZQyiVqqUqaXpOuB/+TEUKFpyP7yoFQQixgpeP/QoXY1VDXBUIQvpSJpDbRcuj7xhW0FVDAHtJZUEsOIRkgRQSBwkx8RgtJG+EPwuAZXfX4Hz8SRAELsQKuDA0hQmxHzJMYslK6BUB05q6mJWyHOvPfJfxZw/PDQIKoWxIMoSgB1EKITGF+xIHCF/8B4SYuN0rp6puw9fL4T/B+NgeEIRXGHob52Pf93ADiy4EViVgNU3LI3bKn/HTUvoBWkr9kJJSu2lppIOWkv2ElBoifCM5UhwJU9Lwjylf8nFSTP4L6UveRQjDHO5L3rCYgsAtxq708kMdXi76E4KNym7fsPkT5YBgMHoRI2cClJT5ESNntsDXzxUMkyo74DIBneLP2mgp83JpeKKk1Ddhz0IB6wRSSDhJIfE9QkgcxPmEH/aYVEFfO8jpo8Y5ghSTp2gx9SzlG25lpMTVYGI17tCCv2pSHvkoKQ9fj4vDXlIYvoMUE98h+Vge42PvldYOM9USH+/AhOTHy9/ZpCKUnHq82tqhNFFPV0zvlvaUyrYzjJopWYtla7FiihVwdugIxg3+/v7gDDgjZ4OZtaycbaLl9L2MnHmQkTNfZeV0E+3PzpSetJR6dE7FNKdsPcMQeKDojDz84NuYMFTxm1irFjqQvYaRs09S/uxv5i9fR6ZoOfk0GEbA6RsljYzPDWFmETcTQnkQxhBKa4dSELMhYLoGXsf4oX/FhMiihi0vF7G62f771y6zTc8FAcZ42p99hPJnTlZeUY9MUVIyRknp+0hphKF8qQ2kNOIGkzDYhyLFxBcJX3Jf9buhWgizQXjZ6CkPP6hg/NBjHn7otjPdRXZTkSs9TKTQyETCKy4U2p/eMTeE6YWcmFIZX+o6uE0lcD6+hhTjEiHEtxJ84jmMj8UwIa5iXPQ1QogeI7ihIzgXexPjoi/hfOygl42OeLno0xg39KCXjzbh/MB6p9SzJL8S52EifjcTLuii+m6Hry9bSCnzSUYfhgxBGB8K8A3P/LjYSgEMb246/IqbDhfcdB/Qv8GeZQvrS94wd1vDMFGLyZXz14UgSCMVvsVN9x2eDqLQqKuXg33LFlBRkWLy1fmqJcKXPEn6hh9ySpklGUrODQVLI9nndFO9PW66Z0oPgerV5aR68ivuHJ0Sh72ENHJybrVknKTjx0gx8VNMGCbxYPSCP5IJNhVddNjVSPdtayR7Dk7fCTNBFNWjuJnOT8BtVwQgFFJIvjU3iLklK8ZFTxFCdBJseWNC7E5w5kDwiatYdvdZP+MLAyoknO9b46Ejt7mpyGY31fddF9WTdZF9x2eGpPIQCk6i56ST7NmBYe3zftHnNuK/LnGQvcv7kSCvkL6UFId34WL8OBzCgkpWPnoSrBv0spUdGPByQ09j3MBOjB18xMMNPuxlB+4tV+TeRjZyr5uNfM3D9G91U5En3EzfM24m0umhInk3E37NTfdOGSbn2XmhLIRiEA6q55iL7H6qger4a/jfZmQD1XllA9bxwgasfVFrmwsGeJgMFxL3EFwsQwjRqdOtoosLuKECxpU0qMtbEjsAqb/gAWKAImXSy1Q9gJKqh9BIdZ1wEV3dTqJHrlvAuXsD1tHcQIR+04B3VvyFomUPKUU/iQnxOzA+9gzODb644BC4eULQg6gQQlkQZRVSeQhE19FGsmvARXY/4CK766sNS0Yaia7PNhChbifRWXDg7VMNWPvq+B+OgUMgrzBQjzFDmz3c4HYP1x/ycIOKm+s/Wj2E8iDmCwHISfW92Uj2TjaSvQMuqvuJRrLnrkayy1nPhC/fsmXLgp/tBbiprisceGiXg2g/4cA7imHgoX+EfauSumD0IrAo89KD13jY/nUeKux1MxG2qP6Amw1v0kWFN7mZsOAmw4yb6t0A1g5OuudvQEW0FNscIDQXGbrVQXTuqfd2nCoGAbTnRAMe+hLsX5GAf+RyPqEDDzo4iA6bE+/c1oC3vzobQqgob2i/09NR8Qs+KxaSjF/m5fs9Hnbwbi8z0IrRkRs9no4Fn4EvJWCx14h33eAgOv7eiXfsdnhDv54NYTaIDZ7Q/9Rj7XfW1UUrfgl11eDlwrVeZmCbmwlPeujwITcTbvfQ4UfdTOQfvHSfx0v3XtPA9J31j8a43V0fcdChaxxkl7sB7/wKmA+cRMdIA9F5zEEYAygL4VQD1h5rwNqbz8XaaNnjZcKXe+jwHSAUfe1gnKzJnvfcdN9rjVSf4iR64y6iu99Fdf/MRfXudlHdRZFFOcnOThfZFXPh3WMNeMdhJ97xjpPoKoDKqCSHXiVVCAHfc2wDtifS4NlzdwO+Z+V/43YpwfG+NY10L+Wiere66O6Qi+g+4CR6j5fWDi4gEqgbEuj8kmZDKJaqsyHUe0PHHVj7hAMP/ajeG7rHge9Z/3t5J5wNYNIFZasD7/2Ck+xhnETP7S6y+34n2bXdgXfuLKrrSX0+IEI/cOAdOx1Yx1YHHnrAgbVvdmIhtt4bqm2kuj61dtPOs67ETExMTExMTExMTExMTExMTEzOG/8PGL/4Oar8oakAAAAASUVORK5CYII=;" parent="1" vertex="1">
          <mxGeometry x="1020" y="495" width="50" height="50" as="geometry" />
        </mxCell>
        <mxCell id="Hi3oB4pyn632pyHiELuE-30" value="" style="shape=image;verticalLabelPosition=bottom;labelBackgroundColor=default;verticalAlign=top;aspect=fixed;imageAspect=0;image=data:image/png,iVBORw0KGgoAAAANSUhEUgAAAGQAAABkCAYAAABw4pVUAAAAAXNSR0IArs4c6QAAAARnQU1BAACxjwv8YQUAAAAJcEhZcwAAFiUAABYlAUlSJPAAAAfGSURBVHhe7ZxrjCVFGYar62x3zZjdBWWNuInGa4wgiYarGMN6iwkiJGow0YhGCUJgo65TXbOsOgmoWZEEI9EI0XhBYlg0qNGRbHVNdc1OJoITUfkhJKCJJLLGFVYMEVj2a1M9jNPz1WGZ6a7uOZd6kvfX1FTV977nnD7dp6oICQQCgUAgEAgEAoFAIBCoB1/YRoR8C03VpTTNPk1FJiKRXRel6sYoVd+IUrWfpllKhbqMCLmL7M1ehrsI1OVzi5O9dO59UZpdHwl1kHJ1mApVbFhcHY6E/AVN5R7CD+7EwwReiCn95kjIH1Ehn3DMbSz5jO2bTOlT8bABzO5ZFonsVsrVcddI35KP99K59+IpBFaY0VsikWWucW1KPtMT2fvxVAKEEJpm+1zDOtFRMqVei+cz3lyxFFMh/9nHrE4UpeoAntJ4I+QubFKn4uo4mZavwdMaW2iaXeOYtKynKFe/p0I+2udvvrUbz2tsiVL1FWxQlMpfkz16x0obmmafolwew+18KRLqB2tnNcZEQt20xiCuDpOZ2e1uO/l1bKQvRan6DR5vbImEuhmZ0/8iy7O3YyO9iUuDhxtbnECEmsVtLL1pdaFjpC+FQFbBgVCuniTT+nV92t3lGOlLIZBVnEBKg9TDPS4vIkKeRPZmp0Vc3ea08akQyCp9A+laIZBVQiADRghkwAiBDBr77n4FmZ4704eokA85Zq9HKJBCk5OLnC2dSGBiCSa5BfLkYpglrPr/geegaXa/Y/Z65ASydUdhWLFegY4ftsFU+whsYiDLoTCAPNlX7Wfs2cxAKsFcVe1r8+AHd/bS7EPLy3KyWyKR3WGfS3Up+wugY/Z65DMQw54CHb+p2l+n9Li6OOJKd7M4oSV5DKQMRceq2l83TOlTu1+Y0JI8B1KGkm85u9pnu6TqdCrkI05hw6o2AtHJd6t9tse0PKX29/1BVQuBFIYdLZZIXO23FezF2ilo2NVOIAXMT1xQ7dc/03PnUiHBKWjIFQl1Z7VMmN/6UmxuHUGeXFvt1zut/y6xSbKr5qt1Qp68EZtbR5Czn1b79cvuWVb7e/6Ai6TZOdVSIWfvwebWEej4L9V+/bLZC9raElf34lIhTwQ2t47s45TiEHkx7t8LNFVTTjHDLi6P2Q1AuFYw7HfY3LqCefYu3L8XIqF+4hQ03HqWcvlRXCccik8vX9l9zK0jMOxKPIYXqJAP9ClqOMXVkZ6YuwTXaIGc/Qqb2kSQs+vwGM2Zmd0+1M+qVsTV01GafY9ca16OS7TAfHIRNrSpQCffweM0Z1qe7RTXjezHymP1lf2dcvkHe59BU3XVifYYgmGvBpMcwYY2FZjkh3isxvRS9YE+ZvkXl/+NRPYz+xifCPlKu7MKz6UNCs1eBTl7AJvpQ2DYHXi8xlCRXe2Y51n2kUz5+3rHwPzkuWDiR7GR3qQT/yvrqVAcG+hNXD35fBfYNrELGSCPvwmGHXNM9Cgwybfw2I2hQn3BMdKHuDqC75LboigIhYXJnZAnF9pXLWj2b2xeGwKTfBHPpTH2xATHzKbi8liPZ+/AY61QSHIS5BOXQZ7cZm/UwMSPgGaPNdDT2KyO9AlcW2Psli/H0ObieBxLoclWMOxrXb2C2xboyfNwjY0pzxZxDa0vrh60u2/xOKC3nAUmfggXNayy1ydYJJO4zubsnXubY2oTpepSPATkE28dlXfFikCzP+I6/bBH73BMrS35OJk5kFS7t7/QgY7/gQsadkGefL9ap1doqv7mmrtxlYe/IOzEcTGjINCsve3WEc9+js2tpTT7bLVfWCQvsYvLcDGjIMiT11dr9QpNsxnH3BoqH4tUAD3xMVzIKAgMu69ap3fsnj9sbh31hHpntV/IkxlczCgIzMTHq3X6Z/nC/iw2eKNyA4lvxsUMu+y3q+IA6VXrbAWaqkVs8EY16oGAZk90ttjaXpCxwRvVKAdS3kdp9u5qfe3yGX2yfTqLTd6IRjUQMOxPnb0zqkRpdgM2eSMatUDKB585+2Qn14y+2HdJgzOsfAYCObuzMOxAlwKT3Ao5+yrk8UdAM+cIkM0hVefbQySx2euRz0DsbxzVvsYae4NnfwPHhr+QQiBtwvVZVKh7sOknUgikdYqI8LkL7Mlw9mg+yuXSiWSXFFX/u0kgdttYcSg+s6lgIXlDdU5jTZNAfAl0Eo7WWCEEMmCEQAaMEMiA0XYgdhN/efEvV7NMnA8mWXTbhED+T5uBgGH346OTYIFsAxP/dU27EMgq7QaS9F/7Zdj+Ne1CIKu0Gwi7Go9nscs717QLgawCObsBG+lLkMd34/HKNb6a3bOm3aYcFjOgQJ58HhvpWftXjrgoNJkAk3wbtwHDfonnNbYUmu3CBrWgo8vnJLL/9PlbS9vOhhT76gXN/oVN6lJg2DV4XmMN5MmXsEldCTQ7Dmai851bA01506bZg9isLgQ6+TGeT2D56+8ZXX90gWF/tgu98VwCzwHzyWn2DFxsXBuyBwSA3HYKnkMAUSyRF5U7qJ7nG1ETlSeG5uyu1s4fGWXgt2Q7GHY5GHY7fva0XtmPQMiTBTDsRjDJB+3OWzxOoCZlQHryPDDxhyFP9kDOri+NztlNYNiX7ZFK9qCXcnmO2XKO3eaA+wgEAoFAIBAIBAKBQCAQ2Bj/A7vtKph3VVuOAAAAAElFTkSuQmCC;" parent="1" vertex="1">
          <mxGeometry x="1025" y="590" width="40" height="40" as="geometry" />
        </mxCell>
      </root>
    </mxGraphModel>
  </diagram>
</mxfile>
